<svg width="2030" height="546" viewBox="0 0 2030 546" fill="none" xmlns="http://www.w3.org/2000/svg">
<path d="M1627.45 278.555H1582.44C1581.69 278.555 1581.08 279.164 1581.08 279.915V481.699C1581.08 482.45 1581.69 483.059 1582.44 483.059H1627.45C1628.2 483.059 1628.81 482.45 1628.81 481.699V279.915C1628.81 279.164 1628.2 278.555 1627.45 278.555Z" fill="#FE0000"/>
<path d="M1215.71 488.126C1222.51 497.689 1232.58 502.495 1240.73 499.005C1248.87 495.515 1250.61 496.678 1279.12 474.574C1279.12 474.574 1278.54 483.299 1270.97 496.678C1265.83 505.777 1259.34 521.109 1247.71 526.926C1236.07 532.743 1192.44 530.451 1176.74 505.404C1175.89 504.029 1171.89 499.955 1170.31 500.189C1120.04 506.857 1073.02 488.784 1061.17 436.847C1048.72 382.409 1057.49 307.486 1125.39 295.291C1183.87 284.807 1239.01 302.924 1248.35 368.635C1254.1 408.904 1250.41 458.824 1216.28 484.529C1214.94 485.553 1214.75 486.752 1215.71 488.126ZM1129.78 411.053C1154.75 401.52 1175.15 406.579 1190.97 426.231C1192.46 428.132 1193.39 427.883 1193.74 425.485C1198.26 394.384 1201.19 334.156 1154.96 333.103C1108.42 332.051 1109.47 384.032 1112.45 419.52C1112.69 422.239 1113.75 422.605 1115.66 420.616C1119.78 416.259 1124.49 413.071 1129.78 411.053ZM1163.21 462.552C1155.13 443.514 1141.45 437.285 1122.67 447.945C1121.12 448.822 1120.9 449.963 1122.02 451.366C1131.32 463.269 1144.58 467.845 1161.8 465.096C1163.35 464.862 1163.82 464.014 1163.21 462.552Z" fill="#FE0000"/>
<path d="M1819.3 372.308V437.493C1819.3 439.61 1820.02 441.663 1821.34 443.313C1822.67 444.964 1824.51 446.114 1826.58 446.574C1834.01 448.24 1841.67 446.705 1849.57 441.968C1849.67 441.906 1849.79 441.873 1849.92 441.874C1850.04 441.874 1850.16 441.907 1850.27 441.969C1850.38 442.032 1850.47 442.121 1850.53 442.229C1850.59 442.336 1850.62 442.458 1850.62 442.582L1850.49 481.535C1850.49 481.886 1850.33 482.12 1850 482.237C1815.66 495.791 1768.9 487.852 1768.46 441.354C1768.22 419.304 1768.18 396.171 1768.33 371.957C1768.33 370.174 1767.43 369.282 1765.65 369.282L1751 369.238C1748.63 369.238 1747.45 368.053 1747.45 365.685L1747.49 336.645C1747.49 334.276 1748.67 333.092 1751.04 333.092H1765.26C1767.24 333.063 1768.25 332.054 1768.28 330.065V294.446C1768.28 293.934 1768.49 293.443 1768.85 293.081C1769.21 292.719 1769.7 292.516 1770.21 292.516H1817.1C1817.69 292.516 1818.24 292.747 1818.66 293.158C1819.07 293.57 1819.3 294.128 1819.3 294.709V330.811C1819.3 332.332 1820.06 333.107 1821.58 333.136C1829.56 333.282 1837.65 333.121 1845.84 332.653C1848.97 332.478 1850.53 333.955 1850.53 337.084V363.886C1850.53 368.594 1848.21 370.568 1843.56 369.808C1837.18 368.755 1830 368.609 1822.02 369.369C1820.2 369.516 1819.3 370.495 1819.3 372.308Z" fill="#FE0000"/>
<path d="M1517.88 398.714C1519.64 384.209 1514.04 375.333 1501.08 372.087C1482.37 367.379 1463.39 371.107 1444.15 383.273C1440.78 385.408 1439.1 384.486 1439.1 380.509V348.004C1439.1 344.7 1440.61 342.419 1443.62 341.161C1476.48 327.168 1544.86 322.343 1561.66 360.813C1564.79 367.949 1566.24 376.342 1566.01 385.992C1565.54 408.013 1565.52 429.376 1565.96 450.081C1566.93 492.543 1498.67 490.525 1471.12 486.49C1442.55 482.337 1427.65 466.735 1426.42 439.684C1424.06 388.449 1480.69 383.887 1515.34 400.117C1516.83 400.819 1517.68 400.351 1517.88 398.714ZM1518.02 447.317L1518.19 430.473C1518.2 429.482 1518.02 428.498 1517.65 427.579C1517.28 426.659 1516.74 425.82 1516.04 425.112C1515.35 424.403 1514.53 423.837 1513.62 423.448C1512.7 423.058 1511.73 422.851 1510.73 422.84L1493.76 422.621C1491.21 422.59 1488.67 422.953 1486.31 423.689C1483.94 424.424 1481.78 425.518 1479.96 426.907C1478.14 428.296 1476.69 429.954 1475.69 431.785C1474.7 433.616 1474.17 435.585 1474.15 437.579V439.158C1474.11 443.182 1476.11 447.064 1479.72 449.951C1483.33 452.838 1488.26 454.494 1493.41 454.555L1510.38 454.774C1511.37 454.786 1512.36 454.602 1513.28 454.234C1514.2 453.865 1515.04 453.319 1515.74 452.627C1516.45 451.934 1517.02 451.109 1517.41 450.198C1517.8 449.287 1518 448.308 1518.02 447.317Z" fill="#FE0000"/>
<path d="M1332.09 445.247C1350.12 450.862 1365.96 444.107 1365.91 423.183C1365.91 394.933 1365.9 366.128 1365.87 336.767C1365.87 335.187 1366.66 334.398 1368.24 334.398H1408.59C1410.23 334.398 1411.05 335.217 1411.05 336.854C1410.67 363.788 1410.7 392.257 1411.14 422.261C1411.58 450.599 1402.76 473.015 1375.25 481.919C1351.22 489.727 1327.95 489.362 1305.46 480.823C1282.3 472.02 1270.69 453.64 1270.63 425.683C1270.52 395.211 1270.46 365.777 1270.46 337.381C1270.46 335.392 1271.47 334.398 1273.49 334.398H1315.82C1317.78 334.398 1318.76 335.377 1318.76 337.337C1318.81 363.422 1318.78 390.868 1318.67 419.673C1318.62 429.982 1320.6 441.694 1332.09 445.247Z" fill="#FE0000"/>
<path d="M1949.18 424.39C1949.94 426.788 1950.69 426.788 1951.42 424.39L1977.39 338.544C1978 336.555 1979.35 335.561 1981.42 335.561H2027.4C2029.3 335.561 2029.91 336.453 2029.24 338.237C2010.03 388.566 1990.65 438.822 1971.12 489.005C1956.64 526.159 1937.71 532.724 1888.56 537.257C1798.63 545.552 1798.61 545.945 1798.63 543.225V545.552C1798.63 542.306 1854.48 519.376 1895.78 505.415C1928.35 492.618 1920.54 500.454 1925.19 483.96C1925.63 482.439 1925.54 480.933 1924.93 479.442L1867.42 338.062C1867.3 337.787 1867.25 337.488 1867.28 337.192C1867.31 336.895 1867.41 336.61 1867.58 336.362C1867.74 336.114 1867.97 335.911 1868.23 335.771C1868.49 335.632 1868.79 335.559 1869.08 335.561H1919.62C1921.08 335.561 1922.02 336.263 1922.43 337.667L1949.18 424.39Z" fill="#FE0000"/>
<path d="M1731.19 337.888H1684.6C1683.97 337.888 1683.46 338.399 1683.46 339.028V482.646C1683.46 483.276 1683.97 483.786 1684.6 483.786H1731.19C1731.82 483.786 1732.33 483.276 1732.33 482.646V339.028C1732.33 338.399 1731.82 337.888 1731.19 337.888Z" fill="#FE0000"/>
<path d="M1719.52 482.147C1705.21 478.247 1627.79 476.946 1628.78 415.835L1581.66 482.729C1607.33 482.729 1585.74 482.729 1641.54 484.063C1697.35 485.398 1719.52 482.147 1719.52 482.147Z" fill="#FE0000"/>
<path d="M1684.09 334.398C1684.09 334.398 1677.43 311.533 1684.09 303.325C1690.76 295.118 1725.9 295.117 1731.95 303.325C1738.01 311.533 1731.95 334.398 1731.95 334.398H1684.09Z" fill="#FE0000"/>
<path d="M1137.18 121.36C1136.96 121.36 1136.74 121.403 1136.54 121.487C1136.34 121.571 1136.15 121.693 1136 121.848C1135.84 122.003 1135.72 122.187 1135.64 122.389C1135.55 122.591 1135.51 122.808 1135.51 123.027V274.365C1135.51 274.807 1135.33 275.231 1135.02 275.544C1134.71 275.856 1134.29 276.032 1133.84 276.032L1084.67 275.988C1084.2 275.988 1083.76 275.803 1083.43 275.474C1083.1 275.145 1082.91 274.699 1082.91 274.233V123.86C1082.91 122.164 1082.07 121.316 1080.37 121.316L1031.68 121.448C1031.09 121.448 1030.8 121.17 1030.8 120.614V81.6612C1030.8 81.1349 1031.06 80.8717 1031.59 80.8717C1084.03 80.7254 1138.35 80.7547 1194.55 80.9594C1213.27 81.0179 1232.53 82.3631 1252.33 84.9951C1255.78 85.463 1255.81 86.1063 1252.41 86.9252C1229.78 92.4815 1209.23 103.39 1190.78 119.649C1189.57 120.722 1187.99 121.315 1186.35 121.316L1137.18 121.36Z" fill="#FE0000"/>
<path d="M1251.19 165.982V274.112C1251.19 274.366 1251.14 274.617 1251.04 274.851C1250.95 275.085 1250.81 275.298 1250.63 275.477C1250.45 275.656 1250.23 275.798 1250 275.895C1249.77 275.992 1249.51 276.042 1249.26 276.042H1203.95C1203.82 276.042 1203.7 276.017 1203.58 275.969C1203.46 275.92 1203.35 275.849 1203.26 275.76C1203.18 275.67 1203.1 275.564 1203.06 275.447C1203.01 275.329 1202.98 275.204 1202.98 275.077L1203.07 147.208C1203.07 146.008 1203.38 144.827 1203.98 143.781C1204.58 142.734 1205.45 141.859 1206.49 141.242C1234.04 124.924 1274.79 115.668 1305.19 129.135C1306.86 129.895 1307.69 131.182 1307.69 132.995V163.526C1307.69 165.164 1306.89 165.836 1305.28 165.544C1287.91 162.268 1270.65 161.552 1253.52 163.394C1251.97 163.57 1251.19 164.432 1251.19 165.982Z" fill="#FE0000"/>
<path d="M1392.57 186.263C1399.06 189.246 1401.37 187.301 1399.5 180.429C1398.86 178.002 1398.2 175.574 1397.53 173.147C1396.67 169.961 1394.99 167.055 1392.65 164.722C1390.31 162.389 1387.39 160.711 1384.19 159.856C1363.81 154.446 1342.77 158.686 1321.07 172.577C1320.98 172.631 1320.87 172.659 1320.76 172.659C1320.66 172.659 1320.55 172.632 1320.46 172.578C1320.36 172.525 1320.29 172.448 1320.23 172.356C1320.18 172.263 1320.15 172.158 1320.15 172.051L1320.24 131.957C1320.23 131.595 1320.34 131.24 1320.54 130.936C1320.75 130.632 1321.04 130.392 1321.38 130.246C1353.25 116.268 1384.57 114.264 1415.34 124.237C1440.65 132.483 1448.15 153.627 1447.05 179.288C1446.55 191.659 1446.57 204.029 1447.1 216.399C1447.59 228.068 1452.05 237.937 1460.47 246.009C1463.52 248.904 1467 252.238 1470.92 256.01C1479.75 264.462 1484.16 262.576 1484.16 250.351L1484.12 137.967C1484.12 135.861 1485.11 134.443 1487.1 133.712C1522.22 121.107 1554.17 116.487 1582.95 119.85C1616.81 123.842 1628.09 144.24 1627.56 175.384C1627.06 206.237 1627.03 237.703 1627.47 269.784C1627.47 270.001 1627.43 270.216 1627.35 270.416C1627.26 270.615 1627.14 270.796 1626.98 270.948C1626.83 271.099 1626.64 271.218 1626.44 271.296C1626.24 271.375 1626.02 271.413 1625.81 271.407L1581.19 271.363C1579.67 271.363 1578.91 270.603 1578.91 269.082C1579.03 237.002 1579.04 207.377 1578.96 180.21C1578.87 154.68 1551.94 155.425 1534.56 161.61C1533.13 162.137 1532.42 163.146 1532.42 164.637L1532.37 269.784C1532.37 270.808 1531.86 271.319 1530.84 271.319C1499.52 271.524 1467.7 271.466 1435.38 271.144C1424.53 271.056 1414.01 271.86 1403.8 273.557C1381.75 277.271 1361.03 276.54 1341.64 271.363C1319.21 265.368 1307.89 250.001 1307.69 225.26C1307.25 177.315 1358.97 170.735 1392.57 186.263ZM1399.02 234.735L1399.19 217.803C1399.21 216.801 1399.02 215.806 1398.65 214.875C1398.27 213.945 1397.72 213.097 1397.02 212.38C1396.32 211.663 1395.49 211.091 1394.56 210.697C1393.64 210.303 1392.65 210.094 1391.65 210.082L1375.11 209.907C1372.52 209.878 1369.95 210.241 1367.55 210.976C1365.15 211.71 1362.96 212.801 1361.11 214.187C1359.27 215.572 1357.8 217.225 1356.79 219.05C1355.78 220.875 1355.26 222.836 1355.24 224.821V226.839C1355.21 230.834 1357.25 234.684 1360.91 237.546C1364.56 240.407 1369.55 242.047 1374.76 242.105L1391.3 242.28C1392.3 242.292 1393.3 242.106 1394.23 241.733C1395.16 241.36 1396 240.807 1396.72 240.107C1397.44 239.406 1398.01 238.571 1398.4 237.649C1398.8 236.728 1399.01 235.738 1399.02 234.735Z" fill="#FE0000"/>
<path d="M1637.99 227.549C1656.07 239.539 1673.51 245.285 1690.33 244.788C1695.27 244.642 1699.1 242.887 1701.82 239.524C1702.53 238.641 1703.04 237.612 1703.3 236.512C1703.57 235.411 1703.59 234.266 1703.37 233.159C1703.14 232.052 1702.67 231.01 1701.99 230.108C1701.32 229.207 1700.45 228.467 1699.45 227.944C1691.38 223.645 1682.31 220.676 1672.25 219.039C1647.29 215.003 1634.31 195.614 1635.89 169.689C1637.42 143.808 1657.56 127.885 1682.56 123.981C1705.61 120.413 1727.03 124.083 1746.83 134.991C1747.21 135.196 1747.4 135.518 1747.4 135.956L1747.7 171.181C1747.71 171.353 1747.68 171.523 1747.59 171.672C1747.51 171.821 1747.38 171.944 1747.22 172.026C1747.07 172.108 1746.89 172.146 1746.71 172.136C1746.53 172.126 1746.36 172.069 1746.21 171.97C1731.71 162.32 1718.14 157.363 1705.5 157.1C1697.39 156.924 1687.08 158.109 1686.2 168.286C1685.74 173.491 1688.09 177.074 1693.27 179.033C1701.19 182.074 1709.25 184.516 1717.44 186.359C1743.14 192.105 1756.78 208.906 1752.84 237.331C1749.97 257.802 1736.24 270.64 1711.65 275.845C1685.91 281.255 1661.39 278.697 1638.08 268.169C1637.26 267.818 1636.85 267.189 1636.85 266.283L1636.81 228.207C1636.81 227.242 1637.21 227.022 1637.99 227.549Z" fill="#FE0000"/>
<path fill-rule="evenodd" clip-rule="evenodd" d="M303.365 468.211V311.429C311.093 313.807 449.25 296.073 517.362 286.909C616.038 270.859 671.42 270.314 686.776 272.048C715.903 269.076 767.768 303.008 790.059 320.346C836.425 363.739 874.766 377.56 888.141 379.046H939.411C952.488 375.479 959.225 384.495 960.959 389.449V431.802C953.826 469.252 916.872 485.549 899.286 489.017H686.776C730.764 454.539 711.049 419.666 695.692 406.539C688.51 399.108 667.308 388.26 639.964 404.31C612.62 420.359 617.673 453.598 623.617 468.211H385.1C403.528 434.923 384.852 416.198 373.211 410.997C364.543 406.786 343.638 402.675 329.372 419.914C315.105 437.152 323.427 459.295 329.372 468.211H303.365ZM472.779 424.372C486.525 428.713 542.068 427.888 568.075 424.641C556.954 425.07 516.55 416.177 472.779 401.337C444.201 391.649 414.187 376.066 389.951 363.482C381.295 358.988 373.377 354.877 366.524 351.554C372.923 356.14 381.049 362.152 389.984 368.762C420.129 391.061 459.481 420.172 472.779 424.372ZM735.023 360.561C728.07 353.514 721.562 346.919 715.755 341.151C784.115 401.783 830.183 422.143 859.162 433.288C884.293 442.954 911.884 440.884 921.481 440.164C922.95 440.054 923.997 439.976 924.55 439.976C900.029 468.211 874.023 463.708 845.044 454.837C820.688 447.381 771.661 397.693 735.023 360.561Z" fill="#FE0000"/>
<path d="M714.268 197C772.721 195.267 903.596 225.682 959.473 361.213C963.436 340.656 963.931 285.274 934.209 228.208C904.488 171.142 830.679 141.024 797.489 133.099C778.418 129.631 772.239 133.099 700.894 133.099C577.43 126.81 264.403 91.3858 0 0C27.5447 29.9485 107.308 96.0064 206.003 120.65L714.268 197Z" fill="#FE0000"/>
<path d="M321.976 268.176L686.776 240.016C568.546 232.927 224.614 187.957 35.2965 100.037C40.6874 117.224 80.9803 162.843 106.531 187.957C132.082 213.071 242.494 281.327 321.976 268.176Z" fill="#FE0000"/>
</svg>
