<svg width="2313" height="673" viewBox="0 0 2313 673" fill="none" xmlns="http://www.w3.org/2000/svg">
<path d="M1075.75 634.172V554.414H1050.34V544.483H1114.67V554.414H1089.14V634.172H1075.75ZM1125.96 634.172V540.659H1138.98V634.172H1125.96ZM1165.81 634.172V588.094C1165.81 585.462 1165.28 583.303 1164.21 581.617C1163.18 579.931 1161.53 579.088 1159.27 579.088C1158.37 579.088 1157.61 579.191 1156.99 579.396C1156.41 579.561 1155.57 579.746 1154.46 579.952C1152.2 580.404 1150.16 580.219 1148.35 579.396C1146.59 578.533 1144.9 577.155 1143.3 575.264C1147.61 572.755 1151.21 571.09 1154.09 570.267C1157.01 569.445 1159.6 569.033 1161.86 569.033C1164.91 569.033 1167.74 569.671 1170.37 570.946C1173.01 572.22 1175.1 574.297 1176.67 577.176C1178.27 580.054 1179.07 583.961 1179.07 588.896V634.172H1165.81ZM1225.81 635.529C1221 635.529 1216.68 634.645 1212.86 632.877C1209.08 631.108 1205.87 628.661 1203.24 625.536C1200.6 622.411 1198.61 618.813 1197.25 614.741C1195.9 610.629 1195.22 606.25 1195.22 601.603C1195.22 594.9 1196.49 589.122 1199.04 584.269C1201.63 579.376 1205.23 575.613 1209.84 572.981C1214.48 570.349 1219.87 569.033 1226 569.033C1230.32 569.033 1234.16 569.959 1237.53 571.809C1240.95 573.66 1243.7 576.209 1245.8 579.458C1247.9 582.707 1249.17 586.428 1249.62 590.623C1250.12 594.776 1249.62 599.176 1248.14 603.823H1212.74C1213.6 601.356 1214.83 599.279 1216.44 597.593C1218.08 595.907 1220.26 595.064 1222.98 595.064H1237.35C1237.72 592.062 1237.39 589.348 1236.36 586.922C1235.37 584.454 1233.87 582.481 1231.86 581C1229.84 579.52 1227.52 578.78 1224.89 578.78C1221.76 578.78 1218.92 579.643 1216.37 581.37C1213.87 583.056 1211.87 585.606 1210.39 589.019C1208.95 592.391 1208.23 596.565 1208.23 601.541C1208.23 606.352 1209.03 610.567 1210.64 614.186C1212.28 617.805 1214.54 620.622 1217.42 622.637C1220.3 624.611 1223.57 625.598 1227.23 625.598C1230.07 625.598 1232.78 625.289 1235.37 624.673C1238.01 624.015 1241.09 622.822 1244.63 621.095L1248.02 630.162C1243.95 632.177 1240.02 633.576 1236.24 634.357C1232.49 635.138 1229.02 635.529 1225.81 635.529ZM1377.51 634.172V588.094C1377.51 585.462 1376.91 583.303 1375.72 581.617C1374.57 579.931 1372.74 579.088 1370.23 579.088C1369.33 579.088 1368.44 579.191 1367.58 579.396C1366.76 579.602 1365.79 579.808 1364.68 580.013C1362.42 580.424 1360.32 580.219 1358.39 579.396C1356.46 578.533 1354.71 577.155 1353.15 575.264C1357.59 572.878 1361.35 571.254 1364.43 570.391C1367.56 569.486 1370.34 569.033 1372.76 569.033C1375.89 569.033 1378.83 569.671 1381.58 570.946C1384.34 572.22 1386.56 574.297 1388.24 577.176C1389.93 580.054 1390.77 583.961 1390.77 588.896V634.172H1377.51ZM1298.37 634.172V585.935C1298.37 583.632 1298.23 581.185 1297.94 578.595C1297.69 576.004 1297.22 573.269 1296.52 570.391H1306.88C1308.86 572.611 1310.15 574.811 1310.77 576.991C1311.39 579.17 1311.69 581.494 1311.69 583.961V634.172H1298.37ZM1337.97 634.172V588.094C1337.97 585.462 1337.44 583.303 1336.37 581.617C1335.3 579.931 1333.61 579.088 1331.31 579.088C1330.36 579.088 1329.52 579.17 1328.78 579.335C1328.04 579.499 1327.16 579.684 1326.13 579.89C1323.83 580.301 1321.75 580.095 1319.9 579.273C1318.09 578.409 1316.4 577.032 1314.84 575.14C1319.24 572.755 1322.92 571.151 1325.88 570.329C1328.84 569.465 1331.52 569.033 1333.9 569.033C1337.03 569.033 1339.9 569.671 1342.54 570.946C1345.17 572.22 1347.29 574.297 1348.89 577.176C1350.49 580.054 1351.3 583.961 1351.3 588.896V634.172H1337.97ZM1435.7 635.529C1430.15 635.529 1425.05 634.254 1420.4 631.705C1415.76 629.114 1412.04 625.351 1409.24 620.416C1406.48 615.44 1405.11 609.375 1405.11 602.22C1405.11 596.545 1406.01 591.63 1407.82 587.477C1409.63 583.283 1412.01 579.828 1414.98 577.114C1417.98 574.4 1421.29 572.385 1424.91 571.069C1428.53 569.712 1432.12 569.033 1435.7 569.033C1442.08 569.033 1447.54 570.493 1452.11 573.413C1456.71 576.333 1460.23 580.301 1462.66 585.318C1465.12 590.335 1466.36 595.969 1466.36 602.22C1466.36 607.524 1465.52 612.253 1463.83 616.407C1462.18 620.519 1459.92 624.015 1457.04 626.893C1454.21 629.731 1450.94 631.89 1447.24 633.37C1443.58 634.809 1439.73 635.529 1435.7 635.529ZM1435.7 625.598C1439.48 625.598 1442.61 624.549 1445.08 622.452C1447.59 620.314 1449.44 617.476 1450.63 613.939C1451.86 610.362 1452.48 606.455 1452.48 602.22C1452.48 597.161 1451.74 592.905 1450.26 589.451C1448.78 585.997 1446.76 583.385 1444.21 581.617C1441.71 579.849 1438.87 578.965 1435.7 578.965C1432.58 578.965 1429.74 579.849 1427.19 581.617C1424.68 583.385 1422.67 585.997 1421.14 589.451C1419.66 592.905 1418.92 597.161 1418.92 602.22C1418.92 609.087 1420.4 614.7 1423.36 619.059C1426.33 623.418 1430.44 625.598 1435.7 625.598ZM1506.41 635.591C1501.92 635.591 1497.65 635.077 1493.58 634.049C1489.51 632.979 1485.52 631.355 1481.61 629.175V540.659H1494.63V623.871C1496.56 624.529 1498.55 625.002 1500.61 625.289C1502.66 625.536 1504.6 625.659 1506.41 625.659C1512 625.659 1516.4 623.418 1519.61 618.936C1522.81 614.412 1524.42 608.573 1524.42 601.418C1524.42 596.771 1523.78 592.782 1522.51 589.451C1521.27 586.079 1519.46 583.529 1517.08 581.802C1514.69 580.034 1511.83 579.232 1508.5 579.396C1506.45 579.52 1504.64 578.965 1503.08 577.731C1501.55 576.497 1500.16 574.852 1498.88 572.796C1501.1 571.727 1503.43 570.925 1505.85 570.391C1508.28 569.815 1510.46 569.527 1512.39 569.527C1515.93 569.527 1519.24 570.267 1522.32 571.748C1525.45 573.228 1528.2 575.366 1530.59 578.163C1532.97 580.918 1534.84 584.249 1536.2 588.156C1537.56 592.062 1538.24 596.483 1538.24 601.418C1538.24 607.997 1536.9 613.857 1534.23 618.998C1531.59 624.138 1527.89 628.189 1523.12 631.149C1518.35 634.11 1512.78 635.591 1506.41 635.591ZM1554.01 634.172V570.391H1567.33V634.172H1554.01ZM1560.67 560.028C1558.37 560.028 1556.43 559.246 1554.87 557.684C1553.31 556.121 1552.53 554.188 1552.53 551.885C1552.53 549.5 1553.31 547.526 1554.87 545.964C1556.43 544.36 1558.37 543.558 1560.67 543.558C1563.01 543.558 1564.95 544.36 1566.47 545.964C1568.03 547.526 1568.81 549.5 1568.81 551.885C1568.81 554.188 1568.03 556.121 1566.47 557.684C1564.95 559.246 1563.01 560.028 1560.67 560.028ZM1587.03 634.172V540.659H1599.86V634.172H1587.03ZM1618.7 634.172V570.391H1632.03V634.172H1618.7ZM1625.37 560.028C1623.06 560.028 1621.13 559.246 1619.57 557.684C1618 556.121 1617.22 554.188 1617.22 551.885C1617.22 549.5 1618 547.526 1619.57 545.964C1621.13 544.36 1623.06 543.558 1625.37 543.558C1627.71 543.558 1629.64 544.36 1631.16 545.964C1632.73 547.526 1633.51 549.5 1633.51 551.885C1633.51 554.188 1632.73 556.121 1631.16 557.684C1629.64 559.246 1627.71 560.028 1625.37 560.028ZM1675.97 635.591C1668.94 635.591 1663.55 633.391 1659.81 628.99C1656.07 624.549 1654.2 618.34 1654.2 610.362V579.89H1643.15V573.228L1654.2 570.391V554.414L1666.53 550.467V611.349C1666.53 615.584 1667.44 619.059 1669.25 621.773C1671.06 624.487 1673.44 625.845 1676.4 625.845C1677.92 625.845 1679.42 625.721 1680.91 625.474C1682.43 625.187 1684.26 624.693 1686.4 623.994L1689.36 632.691C1686.23 633.72 1683.7 634.46 1681.77 634.912C1679.88 635.364 1677.94 635.591 1675.97 635.591ZM1681.83 579.89C1679.77 579.89 1678.03 579.458 1676.59 578.595C1675.19 577.69 1674.02 576.518 1673.07 575.079C1672.17 573.598 1671.45 572.035 1670.91 570.391H1688.43V579.89H1681.83ZM1710.16 664.582C1708.51 664.5 1706.74 664.294 1704.85 663.965C1703 663.677 1701.19 663.225 1699.42 662.608L1702.63 653.664C1703.99 654.034 1705.28 654.301 1706.52 654.466C1707.79 654.63 1709 654.713 1710.16 654.713C1713.24 654.713 1715.73 653.623 1717.62 651.443C1719.55 649.305 1721.22 646.344 1722.62 642.561C1724.05 638.819 1725.62 634.501 1727.3 629.607L1746.24 570.391H1759.75L1737.17 632.815C1735.4 637.421 1733.74 641.656 1732.18 645.522C1730.61 649.387 1728.89 652.739 1726.99 655.576C1725.1 658.414 1722.82 660.614 1720.15 662.176C1717.47 663.739 1714.14 664.541 1710.16 664.582ZM1720.02 632.815L1696.95 570.391H1710.83L1723.05 608.635C1723.99 611.554 1724.45 614.577 1724.4 617.702C1724.36 620.786 1723.93 623.686 1723.11 626.4C1722.33 629.073 1721.3 631.211 1720.02 632.815ZM1829.78 635.529C1824.23 635.529 1819.13 634.295 1814.48 631.828C1809.84 629.319 1806.11 625.598 1803.32 620.663C1800.52 615.728 1799.12 609.58 1799.12 602.22C1799.12 595.023 1800.54 588.957 1803.38 584.023C1806.26 579.088 1810.02 575.366 1814.67 572.858C1819.31 570.308 1824.35 569.033 1829.78 569.033C1832 569.033 1834.45 569.239 1837.12 569.65C1839.79 570.062 1842.36 570.74 1844.83 571.686L1841.62 580.63C1839.36 580.054 1837.24 579.643 1835.27 579.396C1833.34 579.109 1831.51 578.965 1829.78 578.965C1826.7 578.965 1823.88 579.828 1821.33 581.555C1818.82 583.241 1816.81 585.812 1815.28 589.266C1813.76 592.72 1813 597.038 1813 602.22C1813 607.442 1813.74 611.781 1815.22 615.235C1816.74 618.689 1818.76 621.28 1821.27 623.007C1823.82 624.734 1826.66 625.598 1829.78 625.598C1831.59 625.598 1833.56 625.33 1835.7 624.796C1837.84 624.261 1840.29 623.377 1843.04 622.143L1846.44 631.211C1843.15 632.815 1840.04 633.925 1837.12 634.542C1834.24 635.2 1831.8 635.529 1829.78 635.529ZM1882.55 635.529C1877 635.529 1871.9 634.254 1867.25 631.705C1862.6 629.114 1858.88 625.351 1856.09 620.416C1853.33 615.44 1851.95 609.375 1851.95 602.22C1851.95 596.545 1852.86 591.63 1854.67 587.477C1856.48 583.283 1858.86 579.828 1861.82 577.114C1864.83 574.4 1868.14 572.385 1871.75 571.069C1875.37 569.712 1878.97 569.033 1882.55 569.033C1888.92 569.033 1894.39 570.493 1898.96 573.413C1903.56 576.333 1907.08 580.301 1909.51 585.318C1911.97 590.335 1913.21 595.969 1913.21 602.22C1913.21 607.524 1912.36 612.253 1910.68 616.407C1909.03 620.519 1906.77 624.015 1903.89 626.893C1901.05 629.731 1897.79 631.89 1894.08 633.37C1890.42 634.809 1886.58 635.529 1882.55 635.529ZM1882.55 625.598C1886.33 625.598 1889.46 624.549 1891.93 622.452C1894.43 620.314 1896.28 617.476 1897.48 613.939C1898.71 610.362 1899.33 606.455 1899.33 602.22C1899.33 597.161 1898.59 592.905 1897.11 589.451C1895.63 585.997 1893.61 583.385 1891.06 581.617C1888.55 579.849 1885.72 578.965 1882.55 578.965C1879.42 578.965 1876.59 579.849 1874.04 581.617C1871.53 583.385 1869.51 585.997 1867.99 589.451C1866.51 592.905 1865.77 597.161 1865.77 602.22C1865.77 609.087 1867.25 614.7 1870.21 619.059C1873.17 623.418 1877.29 625.598 1882.55 625.598ZM2007.85 634.172V588.094C2007.85 585.462 2007.25 583.303 2006.06 581.617C2004.91 579.931 2003.08 579.088 2000.57 579.088C1999.66 579.088 1998.78 579.191 1997.91 579.396C1997.09 579.602 1996.13 579.808 1995.02 580.013C1992.75 580.424 1990.66 580.219 1988.72 579.396C1986.79 578.533 1985.04 577.155 1983.48 575.264C1987.92 572.878 1991.68 571.254 1994.77 570.391C1997.89 569.486 2000.67 569.033 2003.1 569.033C2006.22 569.033 2009.16 569.671 2011.92 570.946C2014.67 572.22 2016.89 574.297 2018.58 577.176C2020.26 580.054 2021.11 583.961 2021.11 588.896V634.172H2007.85ZM1928.7 634.172V585.935C1928.7 583.632 1928.56 581.185 1928.27 578.595C1928.03 576.004 1927.55 573.269 1926.85 570.391H1937.22C1939.19 572.611 1940.49 574.811 1941.1 576.991C1941.72 579.17 1942.03 581.494 1942.03 583.961V634.172H1928.7ZM1968.31 634.172V588.094C1968.31 585.462 1967.77 583.303 1966.7 581.617C1965.63 579.931 1963.95 579.088 1961.64 579.088C1960.7 579.088 1959.86 579.17 1959.11 579.335C1958.37 579.499 1957.49 579.684 1956.46 579.89C1954.16 580.301 1952.08 580.095 1950.23 579.273C1948.42 578.409 1946.74 577.032 1945.17 575.14C1949.57 572.755 1953.25 571.151 1956.22 570.329C1959.18 569.465 1961.85 569.033 1964.23 569.033C1967.36 569.033 1970.24 569.671 1972.87 570.946C1975.5 572.22 1977.62 574.297 1979.22 577.176C1980.83 580.054 1981.63 583.961 1981.63 588.896V634.172H1968.31ZM2041.12 663.904V589.944C2041.12 585.75 2040.93 582.028 2040.56 578.78C2040.19 575.531 2039.74 572.735 2039.2 570.391H2048.83C2049.89 571.172 2050.76 572.077 2051.42 573.105C2052.07 574.092 2052.67 575.366 2053.21 576.929L2053.45 579.088L2054.69 576.744C2057.48 573.865 2060.42 571.871 2063.51 570.761C2066.59 569.609 2069.43 569.033 2072.02 569.033C2077.82 569.033 2082.75 570.514 2086.82 573.475C2090.89 576.394 2094 580.404 2096.14 585.503C2098.28 590.561 2099.34 596.277 2099.34 602.651C2099.34 607.422 2098.56 611.781 2097 615.728C2095.48 619.676 2093.38 623.089 2090.71 625.968C2088.04 628.846 2085.01 631.088 2081.64 632.691C2078.31 634.254 2074.82 635.035 2071.16 635.035C2069.22 635.035 2067.23 634.871 2065.17 634.542C2063.12 634.254 2060.83 633.699 2058.33 632.877C2059.48 630.615 2060.94 628.785 2062.7 627.387C2064.47 625.947 2066.65 625.228 2069.24 625.228C2072.25 625.269 2074.98 624.467 2077.45 622.822C2079.91 621.136 2081.87 618.627 2083.31 615.297C2084.75 611.924 2085.47 607.709 2085.47 602.651C2085.47 598.128 2084.85 594.077 2083.62 590.5C2082.42 586.922 2080.65 584.105 2078.31 582.049C2075.97 579.993 2073.11 578.965 2069.74 578.965C2067.06 578.965 2064.41 579.684 2061.78 581.124C2059.19 582.563 2056.62 584.825 2054.07 587.909V663.904H2041.12ZM2131.05 635.529C2126.86 635.529 2123.24 634.727 2120.19 633.123C2117.15 631.519 2114.81 629.381 2113.16 626.708C2111.56 623.994 2110.76 620.992 2110.76 617.702C2110.76 613.754 2111.82 610.382 2113.96 607.586C2116.1 604.749 2119.64 602.425 2124.57 600.616C2129.55 598.806 2136.29 597.449 2144.81 596.545C2144.6 597.778 2144.21 599.115 2143.63 600.554C2143.06 601.993 2142.15 603.289 2140.92 604.44C2139.73 605.55 2138.1 606.27 2136.05 606.599C2132.88 607.093 2130.43 607.853 2128.71 608.881C2126.98 609.909 2125.79 611.102 2125.13 612.459C2124.47 613.816 2124.14 615.235 2124.14 616.715C2124.14 619.1 2125 621.177 2126.73 622.945C2128.46 624.714 2130.74 625.598 2133.58 625.598C2136.25 625.598 2138.95 624.878 2141.66 623.439C2144.41 621.958 2146.94 619.738 2149.25 616.777V594.879C2149.25 590.191 2148.05 586.387 2145.67 583.468C2143.32 580.507 2139.52 579.026 2134.26 579.026C2132.08 579.026 2129.88 579.252 2127.66 579.705C2125.44 580.157 2122.85 580.918 2119.88 581.987L2116.68 573.475C2120.62 571.748 2124.24 570.596 2127.53 570.02C2130.82 569.404 2133.87 569.095 2136.66 569.095C2144.76 569.095 2151.04 571.398 2155.48 576.004C2159.96 580.61 2162.2 587.127 2162.2 595.558V614.618C2162.2 618.813 2162.39 622.534 2162.76 625.783C2163.13 628.99 2163.6 631.787 2164.17 634.172H2154.61C2153.5 633.514 2152.6 632.63 2151.9 631.519C2151.24 630.368 2150.67 629.175 2150.17 627.942L2149.99 625.598L2148.57 627.818C2145.28 631.026 2142.28 633.123 2139.56 634.11C2136.89 635.056 2134.05 635.529 2131.05 635.529ZM2220.52 634.172V588.094C2220.52 585.462 2219.95 583.303 2218.8 581.617C2217.64 579.931 2215.86 579.088 2213.43 579.088C2212.48 579.088 2211.64 579.191 2210.9 579.396C2210.16 579.602 2209.23 579.808 2208.12 580.013C2205.86 580.424 2203.79 580.219 2201.89 579.396C2200.04 578.533 2198.34 577.196 2196.77 575.387C2201.09 572.878 2204.73 571.192 2207.69 570.329C2210.69 569.465 2213.39 569.033 2215.77 569.033C2218.94 569.033 2221.9 569.671 2224.66 570.946C2227.41 572.22 2229.61 574.297 2231.26 577.176C2232.94 580.054 2233.78 583.961 2233.78 588.896V634.172H2220.52ZM2180.24 634.172V585.935C2180.24 583.632 2180.1 581.185 2179.81 578.595C2179.52 576.004 2179.03 573.269 2178.33 570.391H2188.69C2190.67 572.611 2191.96 574.811 2192.58 576.991C2193.24 579.17 2193.57 581.494 2193.57 583.961V634.172H2180.24ZM2258.81 664.582C2257.16 664.5 2255.39 664.294 2253.5 663.965C2251.65 663.677 2249.84 663.225 2248.07 662.608L2251.28 653.664C2252.64 654.034 2253.93 654.301 2255.17 654.466C2256.44 654.63 2257.65 654.713 2258.81 654.713C2261.89 654.713 2264.38 653.623 2266.27 651.443C2268.2 649.305 2269.87 646.344 2271.27 642.561C2272.71 638.819 2274.27 634.501 2275.95 629.607L2294.89 570.391H2308.4L2285.82 632.815C2284.06 637.421 2282.39 641.656 2280.83 645.522C2279.26 649.387 2277.54 652.739 2275.65 655.576C2273.75 658.414 2271.47 660.614 2268.8 662.176C2266.13 663.739 2262.79 664.541 2258.81 664.582ZM2268.68 632.815L2245.61 570.391H2259.48L2271.7 608.635C2272.64 611.554 2273.1 614.577 2273.06 617.702C2273.01 620.786 2272.58 623.686 2271.76 626.4C2270.98 629.073 2269.95 631.211 2268.68 632.815Z" fill="#FE0000"/>
<path d="M1640.32 242.124H1595.74C1594.99 242.124 1594.39 242.727 1594.39 243.471V443.357C1594.39 444.101 1594.99 444.704 1595.74 444.704H1640.32C1641.06 444.704 1641.67 444.101 1641.67 443.357V243.471C1641.67 242.727 1641.06 242.124 1640.32 242.124Z" fill="#FE0000"/>
<path d="M1232.46 449.724C1239.19 459.197 1249.17 463.958 1257.23 460.5C1265.3 457.043 1267.03 458.195 1295.26 436.299C1295.26 436.299 1294.69 444.942 1287.2 458.195C1282.1 467.209 1275.67 482.397 1264.15 488.159C1252.62 493.921 1209.41 491.651 1193.85 466.839C1193.01 465.477 1189.05 461.442 1187.48 461.673C1137.68 468.278 1091.1 450.375 1079.37 398.927C1067.03 345.001 1075.72 270.782 1142.99 258.702C1200.91 248.317 1255.53 266.263 1264.79 331.356C1270.48 371.247 1266.83 420.697 1233.02 446.16C1231.69 447.174 1231.5 448.362 1232.46 449.724ZM1147.33 373.376C1172.07 363.932 1192.28 368.944 1207.95 388.411C1209.43 390.294 1210.34 390.048 1210.69 387.672C1215.16 356.864 1218.07 297.202 1172.27 296.159C1126.17 295.116 1127.21 346.609 1130.17 381.762C1130.4 384.457 1131.46 384.819 1133.34 382.849C1137.42 378.532 1142.09 375.375 1147.33 373.376ZM1180.44 424.39C1172.45 405.531 1158.89 399.361 1140.29 409.92C1138.76 410.789 1138.54 411.919 1139.64 413.31C1148.85 425.1 1161.99 429.634 1179.05 426.911C1180.59 426.679 1181.05 425.839 1180.44 424.39Z" fill="#FE0000"/>
<path d="M1830.36 334.995V399.567C1830.36 401.663 1831.08 403.697 1832.39 405.333C1833.7 406.968 1835.53 408.107 1837.58 408.562C1844.94 410.213 1852.53 408.692 1860.35 403.999C1860.45 403.938 1860.57 403.906 1860.7 403.906C1860.82 403.906 1860.94 403.939 1861.05 404.001C1861.15 404.063 1861.24 404.151 1861.3 404.258C1861.36 404.364 1861.39 404.485 1861.39 404.608L1861.26 443.194C1861.26 443.542 1861.1 443.774 1860.78 443.89C1826.76 457.317 1780.44 449.452 1780 403.391C1779.77 381.548 1779.73 358.634 1779.87 334.648C1779.87 332.88 1778.99 331.997 1777.22 331.997L1762.71 331.953C1760.36 331.953 1759.19 330.78 1759.19 328.434L1759.23 299.668C1759.23 297.321 1760.4 296.148 1762.75 296.148H1776.83C1778.8 296.119 1779.8 295.119 1779.83 293.15V257.865C1779.83 257.358 1780.03 256.872 1780.39 256.513C1780.75 256.155 1781.23 255.953 1781.74 255.953H1828.19C1828.77 255.953 1829.32 256.182 1829.73 256.59C1830.14 256.997 1830.36 257.55 1830.36 258.126V293.888C1830.36 295.395 1831.12 296.162 1832.62 296.191C1840.53 296.336 1848.54 296.177 1856.65 295.713C1859.75 295.539 1861.3 297.002 1861.3 300.102V326.652C1861.3 331.316 1859 333.272 1854.39 332.518C1848.08 331.475 1840.97 331.331 1833.06 332.084C1831.26 332.229 1830.36 333.199 1830.36 334.995Z" fill="#FE0000"/>
<path d="M1531.79 361.152C1533.52 346.783 1527.98 337.991 1515.14 334.776C1496.6 330.112 1477.8 333.805 1458.74 345.856C1455.41 347.971 1453.74 347.059 1453.74 343.119V310.92C1453.74 307.646 1455.24 305.387 1458.22 304.141C1490.77 290.279 1558.51 285.5 1575.15 323.608C1578.25 330.677 1579.69 338.991 1579.45 348.551C1578.99 370.364 1578.98 391.526 1579.41 412.036C1580.37 454.099 1512.75 452.1 1485.46 448.103C1457.16 443.989 1442.4 428.534 1441.19 401.738C1438.84 350.984 1494.94 346.465 1529.27 362.543C1530.74 363.238 1531.58 362.774 1531.79 361.152ZM1531.92 409.299L1532.09 392.612C1532.1 391.631 1531.92 390.657 1531.55 389.746C1531.19 388.834 1530.65 388.004 1529.96 387.302C1529.28 386.6 1528.46 386.04 1527.56 385.654C1526.65 385.267 1525.68 385.063 1524.7 385.052L1507.89 384.834C1505.36 384.804 1502.85 385.164 1500.5 385.892C1498.16 386.621 1496.02 387.704 1494.22 389.08C1492.41 390.456 1490.98 392.098 1489.99 393.912C1489 395.726 1488.48 397.677 1488.46 399.652V401.216C1488.42 405.202 1490.4 409.048 1493.98 411.908C1497.56 414.768 1502.44 416.408 1507.54 416.468L1524.36 416.686C1525.34 416.697 1526.31 416.515 1527.22 416.15C1528.13 415.785 1528.96 415.244 1529.67 414.558C1530.37 413.872 1530.93 413.055 1531.31 412.152C1531.7 411.25 1531.9 410.28 1531.92 409.299Z" fill="#FE0000"/>
<path d="M1347.74 407.248C1365.6 412.81 1381.28 406.118 1381.24 385.391C1381.24 357.407 1381.23 328.873 1381.2 299.788C1381.2 298.223 1381.98 297.441 1383.54 297.441H1423.52C1425.14 297.441 1425.96 298.252 1425.96 299.875C1425.58 326.555 1425.61 354.756 1426.04 384.479C1426.48 412.549 1417.74 434.754 1390.5 443.575C1366.68 451.31 1343.64 450.948 1321.36 442.489C1298.42 433.769 1286.92 415.562 1286.86 387.868C1286.74 357.682 1286.69 328.525 1286.69 300.396C1286.69 298.426 1287.69 297.441 1289.68 297.441H1331.62C1333.56 297.441 1334.53 298.412 1334.53 300.353C1334.59 326.193 1334.56 353.38 1334.44 381.915C1334.4 392.126 1336.35 403.728 1347.74 407.248Z" fill="#FE0000"/>
<path d="M1959.03 386.587C1959.78 388.962 1960.52 388.962 1961.24 386.587L1986.97 301.548C1987.58 299.579 1988.91 298.594 1990.97 298.594H2036.51C2038.39 298.594 2039 299.477 2038.33 301.244C2019.3 351.1 2000.11 400.883 1980.75 450.594C1966.41 487.399 1947.66 493.902 1898.98 498.393C1809.89 506.609 1809.87 506.998 1809.89 504.304V506.609C1809.89 503.394 1865.21 480.679 1906.12 466.85C1938.39 454.173 1930.65 461.935 1935.26 445.597C1935.69 444.09 1935.61 442.599 1935 441.121L1878.03 301.071C1877.92 300.799 1877.87 300.503 1877.9 300.209C1877.92 299.915 1878.02 299.633 1878.19 299.387C1878.35 299.141 1878.57 298.94 1878.84 298.802C1879.1 298.663 1879.39 298.592 1879.68 298.594H1929.74C1931.19 298.594 1932.12 299.289 1932.52 300.679L1959.03 386.587Z" fill="#FE0000"/>
<path d="M1743.08 300.899H1696.93C1696.31 300.899 1695.8 301.404 1695.8 302.028V444.295C1695.8 444.919 1696.31 445.425 1696.93 445.425H1743.08C1743.7 445.425 1744.21 444.919 1744.21 444.295V302.028C1744.21 301.404 1743.7 300.899 1743.08 300.899Z" fill="#FE0000"/>
<path d="M1731.53 443.801C1717.35 439.937 1640.66 438.649 1641.64 378.112L1594.96 444.377C1620.39 444.377 1599 444.377 1654.28 445.699C1709.56 447.021 1731.53 443.801 1731.53 443.801Z" fill="#FE0000"/>
<path d="M1696.43 297.441C1696.43 297.441 1689.83 274.791 1696.43 266.661C1703.03 258.53 1737.84 258.53 1743.84 266.661C1749.84 274.791 1743.84 297.441 1743.84 297.441H1696.43Z" fill="#FE0000"/>
<path d="M1154.66 86.4067C1154.44 86.4067 1154.23 86.4494 1154.03 86.5323C1153.83 86.6153 1153.65 86.737 1153.49 86.8903C1153.34 87.0436 1153.22 87.2257 1153.14 87.426C1153.05 87.6263 1153.01 87.841 1153.01 88.0579V237.972C1153.01 238.41 1152.84 238.83 1152.53 239.14C1152.22 239.45 1151.8 239.624 1151.36 239.624L1102.65 239.58C1102.19 239.58 1101.74 239.397 1101.42 239.071C1101.09 238.745 1100.91 238.303 1100.91 237.842V88.8835C1100.91 87.2033 1100.07 86.3632 1098.39 86.3632L1050.16 86.4936C1049.58 86.4936 1049.29 86.2184 1049.29 85.668V47.0812C1049.29 46.5598 1049.55 46.2991 1050.07 46.2991C1102.01 46.1542 1155.82 46.1832 1211.5 46.386C1230.04 46.4439 1249.12 47.7765 1268.73 50.3837C1272.15 50.8472 1272.17 51.4845 1268.81 52.2957C1246.39 57.7998 1226.04 68.6052 1207.76 84.712C1206.56 85.7748 1205 86.362 1203.37 86.3632L1154.66 86.4067Z" fill="#FE0000"/>
<path d="M1267.6 130.609V237.722C1267.6 237.973 1267.55 238.222 1267.46 238.454C1267.36 238.686 1267.22 238.897 1267.04 239.074C1266.87 239.252 1266.66 239.392 1266.42 239.489C1266.19 239.585 1265.94 239.634 1265.69 239.634H1220.8C1220.68 239.634 1220.55 239.609 1220.44 239.561C1220.32 239.513 1220.22 239.443 1220.13 239.354C1220.04 239.265 1219.97 239.16 1219.92 239.044C1219.87 238.928 1219.85 238.804 1219.85 238.678L1219.94 112.011C1219.93 110.823 1220.25 109.653 1220.84 108.616C1221.43 107.58 1222.29 106.713 1223.32 106.102C1250.61 89.9368 1290.98 80.7681 1321.09 94.1084C1322.75 94.8616 1323.57 96.1362 1323.57 97.9323V128.176C1323.57 129.798 1322.78 130.464 1321.18 130.175C1303.97 126.93 1286.88 126.22 1269.91 128.046C1268.37 128.219 1267.6 129.074 1267.6 130.609Z" fill="#FE0000"/>
<path d="M1407.65 150.699C1414.08 153.654 1416.37 151.728 1414.52 144.92C1413.88 142.516 1413.23 140.111 1412.56 137.707C1411.72 134.551 1410.05 131.672 1407.73 129.361C1405.41 127.05 1402.52 125.387 1399.35 124.54C1379.16 119.181 1358.32 123.382 1336.82 137.142C1336.73 137.195 1336.63 137.223 1336.52 137.223C1336.41 137.224 1336.31 137.196 1336.22 137.143C1336.13 137.091 1336.05 137.014 1335.99 136.923C1335.94 136.831 1335.91 136.727 1335.91 136.62L1336 96.904C1336 96.5457 1336.1 96.1941 1336.3 95.8928C1336.51 95.5914 1336.79 95.3538 1337.13 95.2093C1368.7 81.3621 1399.73 79.3777 1430.21 89.2561C1455.28 97.4254 1462.71 118.37 1461.62 143.79C1461.13 156.044 1461.14 168.298 1461.67 180.552C1462.16 192.111 1466.58 201.888 1474.92 209.883C1477.93 212.751 1481.38 216.053 1485.26 219.79C1494.01 228.162 1498.38 226.294 1498.38 214.185L1498.34 102.857C1498.34 100.771 1499.33 99.3663 1501.3 98.6421C1536.09 86.1565 1567.74 81.5794 1596.24 84.9108C1629.79 88.8651 1640.95 109.071 1640.43 139.923C1639.94 170.485 1639.91 201.656 1640.35 233.435C1640.35 233.65 1640.3 233.862 1640.22 234.06C1640.14 234.258 1640.01 234.437 1639.86 234.587C1639.71 234.737 1639.52 234.855 1639.32 234.933C1639.12 235.011 1638.91 235.048 1638.7 235.043L1594.5 234.999C1593 234.999 1592.24 234.246 1592.24 232.74C1592.36 200.961 1592.37 171.615 1592.29 144.703C1592.2 119.413 1565.52 120.152 1548.31 126.279C1546.89 126.8 1546.18 127.799 1546.18 129.277L1546.14 233.435C1546.14 234.449 1545.63 234.956 1544.62 234.956C1513.59 235.158 1482.07 235.101 1450.06 234.782C1439.32 234.695 1428.89 235.492 1418.78 237.172C1396.93 240.851 1376.41 240.127 1357.2 234.999C1334.98 229.06 1323.77 213.837 1323.57 189.33C1323.14 141.835 1374.37 135.317 1407.65 150.699ZM1414.04 198.715L1414.21 181.942C1414.23 180.95 1414.04 179.964 1413.67 179.042C1413.3 178.121 1412.76 177.281 1412.06 176.57C1411.37 175.86 1410.54 175.294 1409.63 174.903C1408.71 174.513 1407.73 174.306 1406.74 174.295L1390.36 174.121C1387.79 174.092 1385.25 174.452 1382.87 175.179C1380.49 175.907 1378.32 176.988 1376.49 178.36C1374.66 179.733 1373.21 181.37 1372.21 183.178C1371.21 184.985 1370.69 186.928 1370.67 188.895V190.894C1370.64 194.851 1372.66 198.665 1376.29 201.499C1379.91 204.334 1384.85 205.958 1390.01 206.016L1406.39 206.189C1407.39 206.201 1408.37 206.017 1409.29 205.647C1410.21 205.278 1411.05 204.731 1411.77 204.037C1412.48 203.342 1413.04 202.515 1413.43 201.602C1413.82 200.689 1414.03 199.708 1414.04 198.715Z" fill="#FE0000"/>
<path d="M1650.77 191.597C1668.67 203.474 1685.95 209.166 1702.61 208.674C1707.51 208.529 1711.3 206.791 1713.99 203.459C1714.7 202.585 1715.2 201.565 1715.46 200.475C1715.73 199.385 1715.75 198.251 1715.53 197.154C1715.3 196.058 1714.84 195.026 1714.17 194.132C1713.5 193.239 1712.64 192.507 1711.65 191.988C1703.65 187.729 1694.67 184.789 1684.71 183.167C1659.98 179.169 1647.12 159.963 1648.68 134.282C1650.2 108.644 1670.15 92.8704 1694.92 89.003C1717.75 85.4688 1738.97 89.1044 1758.58 99.9098C1758.95 100.113 1759.14 100.431 1759.14 100.866L1759.45 135.759C1759.46 135.929 1759.42 136.098 1759.33 136.245C1759.25 136.393 1759.12 136.515 1758.97 136.596C1758.82 136.677 1758.64 136.715 1758.47 136.705C1758.29 136.696 1758.12 136.639 1757.97 136.541C1743.6 126.981 1730.16 122.071 1717.64 121.81C1709.61 121.637 1699.39 122.81 1698.52 132.891C1698.06 138.048 1700.39 141.596 1705.52 143.537C1713.37 146.55 1721.35 148.969 1729.46 150.794C1754.93 156.486 1768.44 173.129 1764.53 201.287C1761.69 221.565 1748.09 234.282 1723.73 239.439C1698.24 244.798 1673.94 242.263 1650.86 231.835C1650.05 231.487 1649.64 230.864 1649.64 229.966L1649.6 192.248C1649.6 191.293 1649.99 191.075 1650.77 191.597Z" fill="#FE0000"/>
<path fill-rule="evenodd" clip-rule="evenodd" d="M300.512 463.808V308.5C308.167 310.855 445.024 293.288 512.496 284.21C610.244 268.311 665.105 267.772 680.317 269.489C709.17 266.545 760.547 300.158 782.628 317.333C828.558 360.318 866.539 374.009 879.788 375.481H930.576C943.53 371.948 950.204 380.879 951.921 385.786V427.741C944.855 464.838 908.248 480.982 890.829 484.417H680.317C723.891 450.264 704.361 415.719 689.149 402.715C682.034 395.355 661.032 384.608 633.945 400.507C606.858 416.406 611.864 449.332 617.752 463.808H381.478C399.732 430.832 381.233 412.284 369.701 407.131C361.114 402.96 340.406 398.888 326.274 415.964C312.142 433.041 320.386 454.975 326.274 463.808H300.512ZM468.333 420.38C481.95 424.681 536.97 423.863 562.732 420.647C551.716 421.072 511.692 412.263 468.333 397.563C440.023 387.965 410.292 372.529 386.283 360.063C377.709 355.612 369.865 351.539 363.077 348.247C369.416 352.791 377.465 358.746 386.316 365.293C416.178 387.383 455.16 416.221 468.333 420.38ZM728.11 357.17C721.222 350.189 714.776 343.656 709.023 337.942C776.74 398.004 822.375 418.172 851.082 429.213C875.977 438.788 903.308 436.738 912.814 436.025C914.27 435.915 915.307 435.838 915.854 435.838C891.565 463.808 865.803 459.346 837.096 450.559C812.969 443.173 764.404 393.953 728.11 357.17Z" fill="#FE0000"/>
<path d="M707.551 195.148C765.454 193.43 895.098 223.559 950.449 357.816C954.375 337.452 954.865 282.591 925.423 226.062C895.981 169.533 822.866 139.698 789.989 131.847C771.097 128.412 764.976 131.847 694.302 131.847C571.999 125.617 261.916 90.5263 0 0C27.2857 29.6668 106.299 95.1034 204.066 119.515L707.551 195.148Z" fill="#FE0000"/>
<path d="M318.948 265.654L680.317 237.759C563.198 230.737 222.501 186.189 34.9645 99.0959C40.3047 116.122 80.2187 161.312 105.529 186.189C130.84 211.067 240.214 278.681 318.948 265.654Z" fill="#FE0000"/>
</svg>
