<svg width="2585" height="533" viewBox="0 0 2585 533" fill="none" xmlns="http://www.w3.org/2000/svg">
<path d="M851.61 484.141V383.857H819.655V371.37H900.549V383.857H868.44V484.141H851.61ZM914.745 484.141V366.562H931.11V484.141H914.745ZM964.848 484.141V426.204C964.848 422.895 964.176 420.18 962.831 418.061C961.539 415.941 959.47 414.881 956.627 414.881C955.489 414.881 954.533 415.01 953.757 415.268C953.033 415.475 951.973 415.708 950.577 415.966C947.733 416.535 945.174 416.303 942.899 415.268C940.675 414.183 938.555 412.45 936.539 410.072C941.968 406.918 946.492 404.824 950.112 403.79C953.783 402.756 957.04 402.239 959.884 402.239C963.71 402.239 967.278 403.04 970.587 404.643C973.896 406.246 976.533 408.857 978.498 412.476C980.515 416.096 981.523 421.008 981.523 427.212V484.141H964.848ZM1040.29 485.847C1034.24 485.847 1028.81 484.735 1024 482.512C1019.25 480.289 1015.21 477.212 1011.91 473.282C1008.6 469.353 1006.09 464.828 1004.38 459.71C1002.68 454.539 1001.82 449.032 1001.82 443.19C1001.82 434.762 1003.43 427.497 1006.63 421.396C1009.89 415.243 1014.41 410.511 1020.2 407.202C1026.05 403.893 1032.82 402.239 1040.52 402.239C1045.95 402.239 1050.79 403.402 1055.03 405.729C1059.32 408.055 1062.78 411.261 1065.42 415.346C1068.06 419.431 1069.66 424.11 1070.23 429.384C1070.85 434.606 1070.23 440.139 1068.37 445.982H1023.85C1024.94 442.879 1026.49 440.268 1028.5 438.148C1030.57 436.028 1033.31 434.968 1036.72 434.968H1054.8C1055.26 431.194 1054.85 427.781 1053.55 424.731C1052.31 421.628 1050.43 419.146 1047.89 417.285C1045.36 415.424 1042.44 414.493 1039.13 414.493C1035.2 414.493 1031.63 415.579 1028.43 417.75C1025.27 419.87 1022.76 423.076 1020.9 427.368C1019.09 431.607 1018.19 436.856 1018.19 443.112C1018.19 449.162 1019.2 454.461 1021.21 459.012C1023.28 463.562 1026.12 467.104 1029.74 469.637C1033.36 472.119 1037.47 473.36 1042.08 473.36C1045.64 473.36 1049.06 472.972 1052.31 472.197C1055.62 471.369 1059.5 469.87 1063.95 467.698L1068.21 479.099C1063.09 481.633 1058.16 483.391 1053.4 484.373C1048.69 485.356 1044.33 485.847 1040.29 485.847ZM1231.03 484.141V426.204C1231.03 422.895 1230.28 420.18 1228.78 418.061C1227.33 415.941 1225.03 414.881 1221.88 414.881C1220.74 414.881 1219.63 415.01 1218.54 415.268C1217.51 415.527 1216.29 415.785 1214.9 416.044C1212.05 416.561 1209.42 416.303 1206.99 415.268C1204.56 414.183 1202.36 412.45 1200.4 410.072C1205.98 407.073 1210.71 405.031 1214.59 403.945C1218.52 402.807 1222.01 402.239 1225.06 402.239C1228.99 402.239 1232.69 403.04 1236.15 404.643C1239.61 406.246 1242.41 408.857 1244.53 412.476C1246.65 416.096 1247.71 421.008 1247.71 427.212V484.141H1231.03ZM1131.52 484.141V423.49C1131.52 420.594 1131.34 417.518 1130.98 414.26C1130.67 411.003 1130.08 407.564 1129.2 403.945H1142.23C1144.71 406.737 1146.34 409.503 1147.11 412.244C1147.89 414.984 1148.28 417.905 1148.28 421.008V484.141H1131.52ZM1181.32 484.141V426.204C1181.32 422.895 1180.64 420.18 1179.3 418.061C1177.95 415.941 1175.83 414.881 1172.94 414.881C1171.75 414.881 1170.69 414.984 1169.76 415.191C1168.83 415.398 1167.72 415.63 1166.42 415.889C1163.53 416.406 1160.92 416.147 1158.59 415.113C1156.32 414.027 1154.2 412.295 1152.23 409.917C1157.76 406.918 1162.39 404.901 1166.11 403.867C1169.84 402.781 1173.2 402.239 1176.2 402.239C1180.13 402.239 1183.75 403.04 1187.06 404.643C1190.36 406.246 1193.03 408.857 1195.04 412.476C1197.06 416.096 1198.07 421.008 1198.07 427.212V484.141H1181.32ZM1304.2 485.847C1297.22 485.847 1290.8 484.244 1284.96 481.038C1279.12 477.781 1274.44 473.05 1270.92 466.845C1267.46 460.589 1265.73 452.962 1265.73 443.965C1265.73 436.83 1266.87 430.651 1269.14 425.429C1271.42 420.155 1274.41 415.811 1278.14 412.399C1281.91 408.986 1286.07 406.453 1290.62 404.798C1295.17 403.092 1299.7 402.239 1304.2 402.239C1312.21 402.239 1319.09 404.074 1324.83 407.745C1330.62 411.416 1335.04 416.406 1338.09 422.714C1341.19 429.022 1342.74 436.106 1342.74 443.965C1342.74 450.635 1341.68 456.581 1339.56 461.804C1337.5 466.974 1334.65 471.369 1331.03 474.989C1327.46 478.556 1323.35 481.271 1318.7 483.132C1314.1 484.942 1309.26 485.847 1304.2 485.847ZM1304.2 473.36C1308.95 473.36 1312.88 472.041 1315.99 469.404C1319.14 466.716 1321.47 463.148 1322.97 458.701C1324.52 454.203 1325.29 449.291 1325.29 443.965C1325.29 437.605 1324.36 432.254 1322.5 427.911C1320.64 423.567 1318.11 420.284 1314.9 418.061C1311.75 415.837 1308.18 414.726 1304.2 414.726C1300.27 414.726 1296.7 415.837 1293.49 418.061C1290.34 420.284 1287.81 423.567 1285.89 427.911C1284.03 432.254 1283.1 437.605 1283.1 443.965C1283.1 452.6 1284.96 459.658 1288.68 465.139C1292.41 470.62 1297.58 473.36 1304.2 473.36ZM1393.1 485.924C1387.46 485.924 1382.09 485.278 1376.97 483.986C1371.85 482.641 1366.83 480.599 1361.92 477.858V366.562H1378.28V471.188C1380.71 472.016 1383.22 472.61 1385.81 472.972C1388.39 473.282 1390.82 473.438 1393.1 473.438C1400.13 473.438 1405.66 470.62 1409.7 464.984C1413.73 459.296 1415.75 451.954 1415.75 442.957C1415.75 437.114 1414.94 432.099 1413.34 427.911C1411.79 423.671 1409.52 420.465 1406.52 418.293C1403.52 416.07 1399.92 415.062 1395.74 415.268C1393.15 415.424 1390.88 414.726 1388.91 413.174C1387 411.623 1385.24 409.555 1383.64 406.97C1386.43 405.625 1389.35 404.617 1392.4 403.945C1395.45 403.221 1398.19 402.859 1400.62 402.859C1405.07 402.859 1409.23 403.79 1413.11 405.651C1417.04 407.513 1420.5 410.201 1423.5 413.717C1426.5 417.182 1428.85 421.37 1430.56 426.282C1432.27 431.194 1433.12 436.752 1433.12 442.957C1433.12 451.23 1431.44 458.598 1428.08 465.061C1424.77 471.524 1420.11 476.617 1414.12 480.34C1408.12 484.063 1401.11 485.924 1393.1 485.924ZM1452.95 484.141V403.945H1469.7V484.141H1452.95ZM1461.33 390.915C1458.43 390.915 1456 389.933 1454.04 387.968C1452.07 386.003 1451.09 383.573 1451.09 380.677C1451.09 377.678 1452.07 375.196 1454.04 373.232C1456 371.215 1458.43 370.207 1461.33 370.207C1464.27 370.207 1466.7 371.215 1468.62 373.232C1470.58 375.196 1471.56 377.678 1471.56 380.677C1471.56 383.573 1470.58 386.003 1468.62 387.968C1466.7 389.933 1464.27 390.915 1461.33 390.915ZM1494.47 484.141V366.562H1510.61V484.141H1494.47ZM1534.3 484.141V403.945H1551.05V484.141H1534.3ZM1542.67 390.915C1539.78 390.915 1537.35 389.933 1535.38 387.968C1533.42 386.003 1532.43 383.573 1532.43 380.677C1532.43 377.678 1533.42 375.196 1535.38 373.232C1537.35 371.215 1539.78 370.207 1542.67 370.207C1545.62 370.207 1548.05 371.215 1549.96 373.232C1551.93 375.196 1552.91 377.678 1552.91 380.677C1552.91 383.573 1551.93 386.003 1549.96 387.968C1548.05 389.933 1545.62 390.915 1542.67 390.915ZM1606.3 485.924C1597.46 485.924 1590.69 483.158 1585.98 477.626C1581.27 472.041 1578.92 464.234 1578.92 454.203V415.889H1565.04V407.513L1578.92 403.945V383.857L1594.43 378.893V455.444C1594.43 460.77 1595.57 465.139 1597.85 468.551C1600.12 471.964 1603.12 473.67 1606.84 473.67C1608.76 473.67 1610.64 473.515 1612.5 473.205C1614.42 472.843 1616.72 472.222 1619.41 471.343L1623.13 482.279C1619.2 483.572 1616.02 484.503 1613.59 485.071C1611.21 485.64 1608.78 485.924 1606.3 485.924ZM1613.67 415.889C1611.08 415.889 1608.89 415.346 1607.08 414.26C1605.32 413.123 1603.84 411.649 1602.65 409.839C1601.52 407.978 1600.61 406.013 1599.94 403.945H1621.97V415.889H1613.67ZM1649.28 522.377C1647.21 522.274 1644.99 522.015 1642.61 521.602C1640.29 521.24 1638.01 520.671 1635.79 519.895L1639.82 508.649C1641.53 509.115 1643.16 509.451 1644.71 509.657C1646.31 509.864 1647.83 509.968 1649.28 509.968C1653.16 509.968 1656.29 508.597 1658.67 505.857C1661.1 503.168 1663.19 499.446 1664.95 494.689C1666.76 489.983 1668.72 484.554 1670.84 478.401L1694.65 403.945H1711.64L1683.25 482.434C1681.03 488.225 1678.94 493.551 1676.97 498.411C1675.01 503.272 1672.83 507.486 1670.46 511.054C1668.08 514.621 1665.21 517.387 1661.85 519.352C1658.49 521.317 1654.3 522.325 1649.28 522.377ZM1661.69 482.434L1632.68 403.945H1650.14L1665.49 452.031C1666.68 455.702 1667.25 459.503 1667.2 463.432C1667.15 467.31 1666.6 470.956 1665.57 474.368C1664.59 477.729 1663.29 480.418 1661.69 482.434ZM1799.69 485.847C1792.71 485.847 1786.3 484.296 1780.46 481.193C1774.62 478.039 1769.94 473.36 1766.42 467.155C1762.91 460.951 1761.15 453.221 1761.15 443.965C1761.15 434.917 1762.93 427.29 1766.5 421.085C1770.12 414.881 1774.85 410.201 1780.69 407.047C1786.54 403.841 1792.87 402.239 1799.69 402.239C1802.49 402.239 1805.56 402.497 1808.92 403.014C1812.28 403.531 1815.52 404.384 1818.62 405.574L1814.59 416.82C1811.74 416.096 1809.08 415.579 1806.6 415.268C1804.17 414.906 1801.87 414.726 1799.69 414.726C1795.82 414.726 1792.27 415.811 1789.07 417.983C1785.91 420.103 1783.38 423.335 1781.47 427.678C1779.55 432.021 1778.6 437.45 1778.6 443.965C1778.6 450.532 1779.53 455.987 1781.39 460.33C1783.3 464.673 1785.84 467.931 1788.99 470.102C1792.2 472.274 1795.76 473.36 1799.69 473.36C1801.97 473.36 1804.45 473.024 1807.14 472.352C1809.83 471.68 1812.91 470.568 1816.37 469.017L1820.64 480.418C1816.5 482.434 1812.59 483.83 1808.92 484.606C1805.3 485.433 1802.23 485.847 1799.69 485.847ZM1866.04 485.847C1859.06 485.847 1852.65 484.244 1846.81 481.038C1840.97 477.781 1836.29 473.05 1832.77 466.845C1829.31 460.589 1827.57 452.962 1827.57 443.965C1827.57 436.83 1828.71 430.651 1830.99 425.429C1833.26 420.155 1836.26 415.811 1839.98 412.399C1843.76 408.986 1847.92 406.453 1852.47 404.798C1857.02 403.092 1861.54 402.239 1866.04 402.239C1874.06 402.239 1880.93 404.074 1886.67 407.745C1892.47 411.416 1896.89 416.406 1899.94 422.714C1903.04 429.022 1904.59 436.106 1904.59 443.965C1904.59 450.635 1903.53 456.581 1901.41 461.804C1899.34 466.974 1896.5 471.369 1892.88 474.989C1889.31 478.556 1885.2 481.271 1880.55 483.132C1875.95 484.942 1871.11 485.847 1866.04 485.847ZM1866.04 473.36C1870.8 473.36 1874.73 472.041 1877.83 469.404C1880.99 466.716 1883.31 463.148 1884.81 458.701C1886.36 454.203 1887.14 449.291 1887.14 443.965C1887.14 437.605 1886.21 432.254 1884.35 427.911C1882.49 423.567 1879.95 420.284 1876.75 418.061C1873.59 415.837 1870.02 414.726 1866.04 414.726C1862.11 414.726 1858.55 415.837 1855.34 418.061C1852.19 420.284 1849.65 423.567 1847.74 427.911C1845.88 432.254 1844.95 437.605 1844.95 443.965C1844.95 452.6 1846.81 459.658 1850.53 465.139C1854.25 470.62 1859.43 473.36 1866.04 473.36ZM2023.58 484.141V426.204C2023.58 422.895 2022.83 420.18 2021.34 418.061C2019.89 415.941 2017.59 414.881 2014.43 414.881C2013.3 414.881 2012.18 415.01 2011.1 415.268C2010.06 415.527 2008.85 415.785 2007.45 416.044C2004.61 416.561 2001.97 416.303 1999.54 415.268C1997.11 414.183 1994.91 412.45 1992.95 410.072C1998.53 407.073 2003.26 405.031 2007.14 403.945C2011.07 402.807 2014.56 402.239 2017.61 402.239C2021.54 402.239 2025.24 403.04 2028.7 404.643C2032.17 406.246 2034.96 408.857 2037.08 412.476C2039.2 416.096 2040.26 421.008 2040.26 427.212V484.141H2023.58ZM1924.08 484.141V423.49C1924.08 420.594 1923.9 417.518 1923.53 414.26C1923.22 411.003 1922.63 407.564 1921.75 403.945H1934.78C1937.26 406.737 1938.89 409.503 1939.67 412.244C1940.44 414.984 1940.83 417.905 1940.83 421.008V484.141H1924.08ZM1973.87 484.141V426.204C1973.87 422.895 1973.2 420.18 1971.85 418.061C1970.51 415.941 1968.39 414.881 1965.49 414.881C1964.3 414.881 1963.24 414.984 1962.31 415.191C1961.38 415.398 1960.27 415.63 1958.98 415.889C1956.08 416.406 1953.47 416.147 1951.14 415.113C1948.87 414.027 1946.75 412.295 1944.78 409.917C1950.32 406.918 1954.95 404.901 1958.67 403.867C1962.39 402.781 1965.75 402.239 1968.75 402.239C1972.68 402.239 1976.3 403.04 1979.61 404.643C1982.92 406.246 1985.58 408.857 1987.6 412.476C1989.61 416.096 1990.62 421.008 1990.62 427.212V484.141H1973.87ZM2065.42 521.524V428.531C2065.42 423.257 2065.18 418.578 2064.72 414.493C2064.25 410.408 2063.68 406.892 2063.01 403.945H2075.11C2076.46 404.927 2077.54 406.065 2078.37 407.357C2079.2 408.598 2079.95 410.201 2080.62 412.166L2080.93 414.881L2082.48 411.933C2086 408.314 2089.69 405.806 2093.57 404.41C2097.45 402.962 2101.02 402.239 2104.27 402.239C2111.56 402.239 2117.77 404.1 2122.89 407.823C2128.01 411.494 2131.91 416.535 2134.6 422.947C2137.29 429.307 2138.63 436.494 2138.63 444.508C2138.63 450.506 2137.65 455.987 2135.69 460.951C2133.77 465.914 2131.13 470.206 2127.77 473.825C2124.41 477.445 2120.61 480.263 2116.37 482.279C2112.18 484.244 2107.79 485.226 2103.19 485.226C2100.76 485.226 2098.25 485.02 2095.66 484.606C2093.08 484.244 2090.21 483.546 2087.06 482.512C2088.5 479.668 2090.34 477.367 2092.56 475.609C2094.79 473.799 2097.53 472.895 2100.78 472.895C2104.56 472.946 2108 471.938 2111.1 469.87C2114.2 467.75 2116.66 464.596 2118.47 460.408C2120.28 456.168 2121.18 450.868 2121.18 444.508C2121.18 438.82 2120.41 433.727 2118.85 429.229C2117.36 424.731 2115.13 421.189 2112.18 418.603C2109.24 416.018 2105.64 414.726 2101.4 414.726C2098.04 414.726 2094.71 415.63 2091.4 417.44C2088.14 419.25 2084.91 422.094 2081.7 425.972V521.524H2065.42ZM2178.5 485.847C2173.22 485.847 2168.67 484.839 2164.85 482.822C2161.02 480.806 2158.07 478.117 2156 474.756C2153.99 471.343 2152.98 467.569 2152.98 463.432C2152.98 458.469 2154.32 454.229 2157.01 450.713C2159.7 447.145 2164.15 444.224 2170.35 441.949C2176.61 439.674 2185.09 437.967 2195.79 436.83C2195.53 438.381 2195.04 440.061 2194.32 441.871C2193.59 443.681 2192.46 445.31 2190.91 446.757C2189.41 448.153 2187.36 449.058 2184.78 449.472C2180.8 450.092 2177.72 451.049 2175.55 452.342C2173.38 453.634 2171.88 455.134 2171.05 456.84C2170.22 458.546 2169.81 460.33 2169.81 462.191C2169.81 465.19 2170.9 467.802 2173.07 470.025C2175.24 472.248 2178.11 473.36 2181.68 473.36C2185.04 473.36 2188.42 472.455 2191.84 470.645C2195.3 468.784 2198.48 465.992 2201.38 462.269V434.736C2201.38 428.841 2199.88 424.058 2196.88 420.387C2193.93 416.664 2189.15 414.803 2182.53 414.803C2179.79 414.803 2177.02 415.087 2174.23 415.656C2171.44 416.225 2168.18 417.182 2164.46 418.526L2160.43 407.823C2165.39 405.651 2169.94 404.203 2174.08 403.479C2178.21 402.704 2182.04 402.316 2185.55 402.316C2195.74 402.316 2203.63 405.212 2209.21 411.003C2214.85 416.794 2217.66 424.989 2217.66 435.589V459.554C2217.66 464.828 2217.9 469.508 2218.36 473.593C2218.83 477.626 2219.42 481.142 2220.15 484.141H2208.12C2206.73 483.313 2205.59 482.202 2204.71 480.806C2203.88 479.358 2203.16 477.858 2202.54 476.307L2202.31 473.36L2200.52 476.152C2196.39 480.185 2192.61 482.822 2189.2 484.063C2185.84 485.252 2182.27 485.847 2178.5 485.847ZM2291 484.141V426.204C2291 422.895 2290.27 420.18 2288.82 418.061C2287.38 415.941 2285.13 414.881 2282.08 414.881C2280.89 414.881 2279.83 415.01 2278.9 415.268C2277.97 415.527 2276.8 415.785 2275.41 416.044C2272.56 416.561 2269.95 416.303 2267.57 415.268C2265.25 414.183 2263.1 412.502 2261.14 410.227C2266.56 407.073 2271.14 404.953 2274.86 403.867C2278.64 402.781 2282.02 402.239 2285.02 402.239C2289 402.239 2292.73 403.04 2296.19 404.643C2299.66 406.246 2302.42 408.857 2304.49 412.476C2306.61 416.096 2307.67 421.008 2307.67 427.212V484.141H2291ZM2240.35 484.141V423.49C2240.35 420.594 2240.17 417.518 2239.81 414.26C2239.44 411.003 2238.82 407.564 2237.94 403.945H2250.97C2253.46 406.737 2255.09 409.503 2255.86 412.244C2256.69 414.984 2257.1 417.905 2257.1 421.008V484.141H2240.35ZM2339.13 522.377C2337.06 522.274 2334.84 522.015 2332.46 521.602C2330.13 521.24 2327.86 520.671 2325.64 519.895L2329.67 508.649C2331.38 509.115 2333 509.451 2334.56 509.657C2336.16 509.864 2337.68 509.968 2339.13 509.968C2343.01 509.968 2346.14 508.597 2348.52 505.857C2350.95 503.168 2353.04 499.446 2354.8 494.689C2356.61 489.983 2358.57 484.554 2360.69 478.401L2384.5 403.945H2401.49L2373.1 482.434C2370.88 488.225 2368.78 493.551 2366.82 498.411C2364.85 503.272 2362.68 507.486 2360.3 511.054C2357.93 514.621 2355.06 517.387 2351.7 519.352C2348.33 521.317 2344.15 522.325 2339.13 522.377ZM2351.54 482.434L2322.53 403.945H2339.98L2355.34 452.031C2356.53 455.702 2357.1 459.503 2357.05 463.432C2357 467.31 2356.45 470.956 2355.42 474.368C2354.44 477.729 2353.14 480.418 2351.54 482.434Z" fill="#FF0000"/>
<path d="M2162.07 94.7676H2114.73C2113.94 94.7676 2113.3 95.408 2113.3 96.198V308.454C2113.3 309.244 2113.94 309.884 2114.73 309.884H2162.07C2162.86 309.884 2163.5 309.244 2163.5 308.454V96.198C2163.5 95.408 2162.86 94.7676 2162.07 94.7676Z" fill="#FE0000"/>
<path d="M1728.97 315.214C1736.12 325.273 1746.72 330.329 1755.28 326.658C1763.85 322.986 1765.68 324.21 1795.67 300.959C1795.67 300.959 1795.05 310.137 1787.1 324.21C1781.69 333.782 1774.86 349.909 1762.62 356.028C1750.39 362.147 1704.49 359.736 1687.98 333.388C1687.08 331.943 1682.88 327.657 1681.21 327.903C1628.34 334.917 1578.87 315.906 1566.41 261.274C1553.31 204.011 1562.54 125.199 1633.96 112.372C1695.47 101.343 1753.47 120.4 1763.3 189.522C1769.35 231.881 1765.47 284.391 1729.57 311.431C1728.16 312.507 1727.96 313.768 1728.97 315.214ZM1638.58 234.142C1664.85 224.113 1686.31 229.435 1702.95 250.107C1704.52 252.107 1705.49 251.845 1705.85 249.323C1710.61 216.608 1713.7 153.254 1665.06 152.146C1616.11 151.039 1617.21 205.718 1620.35 243.047C1620.6 245.908 1621.72 246.293 1623.72 244.201C1628.06 239.617 1633.01 236.264 1638.58 234.142ZM1673.74 288.313C1665.25 268.287 1650.85 261.735 1631.1 272.948C1629.47 273.87 1629.24 275.07 1630.41 276.547C1640.19 289.067 1654.14 293.881 1672.26 290.989C1673.89 290.743 1674.39 289.851 1673.74 288.313Z" fill="#FE0000"/>
<path d="M2363.88 193.386V261.954C2363.88 264.18 2364.64 266.339 2366.03 268.076C2367.42 269.813 2369.37 271.022 2371.54 271.505C2379.35 273.259 2387.41 271.644 2395.72 266.66C2395.83 266.595 2395.96 266.561 2396.09 266.561C2396.22 266.562 2396.35 266.596 2396.46 266.662C2396.57 266.728 2396.67 266.822 2396.73 266.935C2396.79 267.048 2396.83 267.176 2396.83 267.306L2396.69 308.281C2396.69 308.65 2396.52 308.896 2396.18 309.019C2360.05 323.277 2310.86 314.925 2310.4 266.014C2310.16 242.82 2310.11 218.488 2310.26 193.017C2310.26 191.14 2309.32 190.202 2307.45 190.202L2292.04 190.156C2289.54 190.156 2288.3 188.91 2288.3 186.418L2288.35 155.872C2288.35 153.38 2289.59 152.135 2292.08 152.135H2307.03C2309.12 152.104 2310.19 151.042 2310.22 148.951V111.483C2310.22 110.944 2310.43 110.428 2310.81 110.047C2311.19 109.667 2311.71 109.453 2312.25 109.453H2361.57C2362.19 109.453 2362.77 109.696 2363.2 110.128C2363.64 110.561 2363.88 111.148 2363.88 111.76V149.735C2363.88 151.335 2364.68 152.15 2366.28 152.181C2374.68 152.334 2383.18 152.165 2391.8 151.673C2395.09 151.489 2396.73 153.042 2396.73 156.333V184.527C2396.73 189.479 2394.29 191.556 2389.4 190.756C2382.69 189.648 2375.14 189.495 2366.74 190.294C2364.83 190.448 2363.88 191.479 2363.88 193.386Z" fill="#FE0000"/>
<path d="M2046.82 221.162C2048.67 205.904 2042.78 196.568 2029.15 193.153C2009.46 188.2 1989.5 192.123 1969.26 204.919C1965.72 207.165 1963.95 206.196 1963.95 202.012V167.821C1963.95 164.345 1965.54 161.945 1968.71 160.623C2003.27 145.903 2075.2 140.827 2092.88 181.294C2096.17 188.8 2097.69 197.629 2097.44 207.78C2096.95 230.944 2096.94 253.415 2097.4 275.194C2098.41 319.86 2026.61 317.738 1997.64 313.493C1967.58 309.125 1951.91 292.713 1950.62 264.259C1948.13 210.364 2007.7 205.565 2044.15 222.638C2045.72 223.376 2046.61 222.884 2046.82 221.162ZM2046.96 272.287L2047.15 254.569C2047.16 253.526 2046.97 252.492 2046.58 251.524C2046.19 250.557 2045.62 249.675 2044.89 248.93C2044.16 248.184 2043.29 247.589 2042.33 247.179C2041.38 246.769 2040.35 246.552 2039.3 246.54L2021.45 246.309C2018.76 246.277 2016.1 246.659 2013.61 247.433C2011.12 248.206 2008.85 249.357 2006.93 250.818C2005.02 252.279 2003.49 254.023 2002.44 255.949C2001.39 257.875 2000.84 259.946 2000.82 262.044V263.705C2000.77 267.937 2002.88 272.021 2006.68 275.058C2010.48 278.095 2015.66 279.837 2021.08 279.901L2038.93 280.132C2039.98 280.144 2041.01 279.951 2041.98 279.563C2042.95 279.175 2043.83 278.601 2044.57 277.873C2045.32 277.144 2045.91 276.276 2046.32 275.318C2046.73 274.359 2046.95 273.33 2046.96 272.287Z" fill="#FE0000"/>
<path d="M1851.39 270.11C1870.35 276.016 1887.01 268.91 1886.96 246.9C1886.96 217.185 1886.95 186.884 1886.92 156C1886.92 154.339 1887.75 153.508 1889.41 153.508H1931.86C1933.58 153.508 1934.45 154.369 1934.45 156.092C1934.05 184.423 1934.08 214.37 1934.54 245.931C1935 275.74 1925.72 299.318 1896.79 308.685C1871.51 316.899 1847.04 316.514 1823.38 307.532C1799.02 298.273 1786.8 278.939 1786.74 249.531C1786.62 217.477 1786.56 186.515 1786.56 156.646C1786.56 154.554 1787.62 153.508 1789.74 153.508H1834.27C1836.33 153.508 1837.36 154.538 1837.36 156.599C1837.42 184.039 1837.39 212.909 1837.27 243.209C1837.22 254.053 1839.3 266.373 1851.39 270.11Z" fill="#FE0000"/>
<path d="M2500.51 248.17C2501.31 250.693 2502.09 250.693 2502.86 248.17L2530.18 157.869C2530.82 155.778 2532.24 154.732 2534.42 154.732H2582.78C2584.78 154.732 2585.42 155.67 2584.72 157.546C2564.51 210.487 2544.13 263.351 2523.58 316.138C2508.35 355.221 2488.44 362.127 2436.74 366.895C2342.14 375.62 2342.11 376.033 2342.14 373.172V375.62C2342.14 372.205 2400.88 348.085 2444.33 333.4C2478.59 319.939 2470.38 328.182 2475.27 310.832C2475.73 309.232 2475.64 307.648 2474.99 306.079L2414.5 157.362C2414.37 157.073 2414.33 156.759 2414.35 156.447C2414.38 156.135 2414.49 155.835 2414.66 155.574C2414.84 155.313 2415.07 155.1 2415.35 154.953C2415.63 154.806 2415.94 154.73 2416.25 154.732H2469.41C2470.94 154.732 2471.93 155.47 2472.36 156.947L2500.51 248.17Z" fill="#FE0000"/>
<path d="M2271.2 157.179H2222.19C2221.53 157.179 2220.99 157.716 2220.99 158.379V309.45C2220.99 310.112 2221.53 310.649 2222.19 310.649H2271.2C2271.86 310.649 2272.4 310.112 2272.4 309.45V158.379C2272.4 157.716 2271.86 157.179 2271.2 157.179Z" fill="#FE0000"/>
<path d="M2258.93 308.925C2243.87 304.822 2162.44 303.454 2163.48 239.171L2113.91 309.537C2140.91 309.537 2118.2 309.537 2176.9 310.941C2235.6 312.344 2258.93 308.925 2258.93 308.925Z" fill="#FE0000"/>
<path d="M2221.66 153.508C2221.66 153.508 2214.65 129.456 2221.66 120.822C2228.67 112.189 2265.63 112.189 2272 120.822C2278.38 129.456 2272 153.508 2272 153.508H2221.66Z" fill="#FE0000"/>
<path d="M868.048 158.257C867.818 158.257 867.59 158.302 867.377 158.39C867.164 158.479 866.971 158.608 866.808 158.771C866.645 158.933 866.516 159.127 866.428 159.339C866.34 159.552 866.295 159.78 866.295 160.01V319.202C866.295 319.667 866.11 320.113 865.781 320.442C865.452 320.771 865.006 320.956 864.541 320.956L812.815 320.91C812.326 320.91 811.856 320.715 811.51 320.369C811.164 320.023 810.97 319.553 810.97 319.064V160.887C810.97 159.103 810.078 158.211 808.293 158.211L757.075 158.349C756.46 158.349 756.152 158.057 756.152 157.473V116.498C756.152 115.944 756.429 115.667 756.983 115.667C812.139 115.514 869.279 115.544 928.403 115.76C948.09 115.821 968.347 117.236 989.172 120.005C992.802 120.497 992.833 121.174 989.265 122.035C965.455 127.88 943.845 139.354 924.434 156.457C923.158 157.586 921.5 158.21 919.774 158.211L868.048 158.257Z" fill="#FE0000"/>
<path d="M987.979 205.195V318.936C987.979 319.203 987.927 319.467 987.825 319.713C987.723 319.96 987.573 320.184 987.385 320.372C987.196 320.561 986.972 320.71 986.726 320.812C986.48 320.914 986.216 320.967 985.949 320.967H938.284C938.15 320.967 938.018 320.941 937.895 320.889C937.772 320.838 937.66 320.764 937.566 320.669C937.472 320.575 937.397 320.463 937.346 320.34C937.295 320.217 937.269 320.085 937.269 319.952L937.361 185.446C937.359 184.184 937.69 182.942 938.321 181.841C938.952 180.74 939.862 179.82 940.96 179.171C969.937 162.006 1012.8 152.27 1044.78 166.435C1046.53 167.235 1047.41 168.589 1047.41 170.496V202.611C1047.41 204.334 1046.56 205.041 1044.87 204.734C1026.6 201.288 1008.45 200.535 990.425 202.473C988.794 202.657 987.979 203.565 987.979 205.195Z" fill="#FE0000"/>
<path d="M1136.7 226.528C1143.52 229.666 1145.95 227.62 1143.99 220.391C1143.31 217.838 1142.62 215.285 1141.91 212.732C1141.01 209.38 1139.24 206.324 1136.78 203.87C1134.32 201.415 1131.25 199.65 1127.88 198.751C1106.44 193.06 1084.31 197.52 1061.48 212.132C1061.39 212.188 1061.27 212.218 1061.16 212.218C1061.05 212.219 1060.94 212.189 1060.84 212.133C1060.74 212.077 1060.66 211.997 1060.6 211.899C1060.55 211.802 1060.52 211.691 1060.51 211.578L1060.61 169.404C1060.61 169.024 1060.72 168.65 1060.93 168.33C1061.14 168.01 1061.45 167.758 1061.81 167.604C1095.34 152.9 1128.28 150.793 1160.64 161.283C1187.27 169.958 1195.16 192.198 1194 219.192C1193.48 232.204 1193.5 245.216 1194.05 258.228C1194.57 270.502 1199.26 280.884 1208.12 289.375C1211.32 292.42 1214.98 295.927 1219.11 299.895C1228.4 308.785 1233.04 306.801 1233.04 293.943L1233 175.725C1233 173.511 1234.04 172.019 1236.13 171.25C1273.08 157.991 1306.68 153.131 1336.95 156.669C1372.58 160.868 1384.43 182.324 1383.88 215.085C1383.36 247.539 1383.33 280.638 1383.79 314.384C1383.79 314.612 1383.74 314.838 1383.65 315.048C1383.57 315.258 1383.44 315.449 1383.27 315.608C1383.11 315.767 1382.92 315.892 1382.7 315.975C1382.49 316.058 1382.26 316.097 1382.04 316.091L1335.11 316.045C1333.51 316.045 1332.71 315.245 1332.71 313.646C1332.83 279.9 1332.85 248.738 1332.76 220.161C1332.66 193.306 1304.33 194.09 1286.06 200.596C1284.55 201.15 1283.8 202.211 1283.8 203.78L1283.75 314.384C1283.75 315.461 1283.21 315.999 1282.14 315.999C1249.19 316.214 1215.72 316.153 1181.73 315.814C1170.32 315.722 1159.24 316.568 1148.51 318.352C1125.31 322.259 1103.52 321.49 1083.12 316.045C1059.53 309.739 1047.62 293.574 1047.41 267.549C1046.95 217.115 1101.35 210.194 1136.7 226.528ZM1143.48 277.516L1143.66 259.705C1143.68 258.651 1143.48 257.604 1143.09 256.625C1142.7 255.647 1142.11 254.755 1141.38 254.001C1140.64 253.246 1139.76 252.645 1138.79 252.23C1137.82 251.816 1136.78 251.596 1135.73 251.584L1118.33 251.399C1115.6 251.369 1112.9 251.751 1110.37 252.523C1107.85 253.296 1105.55 254.444 1103.61 255.901C1101.66 257.358 1100.12 259.097 1099.06 261.016C1098 262.936 1097.44 264.999 1097.43 267.088V269.21C1097.4 273.412 1099.54 277.462 1103.39 280.472C1107.24 283.482 1112.48 285.207 1117.96 285.268L1135.36 285.452C1136.41 285.465 1137.46 285.269 1138.44 284.877C1139.42 284.484 1140.31 283.903 1141.06 283.166C1141.82 282.429 1142.42 281.551 1142.83 280.581C1143.25 279.612 1143.47 278.57 1143.48 277.516Z" fill="#FE0000"/>
<path d="M1394.86 269.957C1413.87 282.569 1432.22 288.614 1449.9 288.091C1455.1 287.937 1459.13 286.091 1461.99 282.554C1462.74 281.624 1463.27 280.542 1463.56 279.385C1463.84 278.227 1463.86 277.023 1463.62 275.858C1463.38 274.693 1462.89 273.598 1462.18 272.649C1461.47 271.701 1460.55 270.923 1459.5 270.372C1451.01 265.85 1441.48 262.728 1430.89 261.005C1404.64 256.76 1390.98 236.365 1392.64 209.095C1394.26 181.87 1415.44 165.121 1441.74 161.014C1465.98 157.261 1488.51 161.122 1509.34 172.596C1509.74 172.811 1509.94 173.15 1509.94 173.611L1510.26 210.663C1510.27 210.844 1510.23 211.023 1510.14 211.18C1510.05 211.337 1509.92 211.466 1509.75 211.552C1509.59 211.638 1509.41 211.679 1509.22 211.668C1509.03 211.658 1508.85 211.598 1508.69 211.494C1493.43 201.343 1479.16 196.129 1465.87 195.852C1457.33 195.667 1446.49 196.913 1445.57 207.618C1445.08 213.094 1447.55 216.862 1453 218.923C1461.33 222.122 1469.81 224.691 1478.42 226.629C1505.46 232.673 1519.81 250.346 1515.66 280.246C1512.64 301.78 1498.2 315.284 1472.33 320.76C1445.26 326.45 1419.47 323.759 1394.95 312.685C1394.09 312.315 1393.66 311.654 1393.66 310.7L1393.61 270.649C1393.61 269.634 1394.03 269.403 1394.86 269.957Z" fill="#FE0000"/>
<path fill-rule="evenodd" clip-rule="evenodd" d="M58.5565 358.371V206.504C66.0418 208.807 199.867 191.629 265.844 182.752C361.426 167.206 415.071 166.678 429.946 168.357C458.16 165.478 508.399 198.347 529.991 215.141C574.903 257.174 612.042 270.561 624.998 272.001H674.66C687.328 268.546 693.854 277.279 695.533 282.077V323.103C688.624 359.378 652.828 375.165 635.794 378.524H429.946C472.555 345.127 453.458 311.347 438.583 298.632C431.626 291.434 411.089 280.926 384.602 296.472C358.115 312.019 363.01 344.216 368.768 358.371H137.729C155.578 326.126 137.489 307.988 126.213 302.95C117.816 298.871 97.5668 294.889 83.7476 311.587C69.9285 328.285 77.9897 349.734 83.7476 358.371H58.5565ZM222.659 315.906C235.974 320.11 289.775 319.311 314.967 316.166C304.195 316.582 265.058 307.968 222.659 293.593C194.977 284.208 165.904 269.114 142.427 256.925C134.043 252.572 126.373 248.59 119.735 245.37C125.933 249.813 133.805 255.636 142.46 262.039C171.659 283.639 209.778 311.838 222.659 315.906ZM476.681 254.096C469.945 247.269 463.642 240.881 458.016 235.294C524.233 294.025 568.858 313.746 596.928 324.542C621.271 333.905 647.997 331.9 657.293 331.203C658.716 331.096 659.73 331.02 660.265 331.02C636.514 358.371 611.323 354.008 583.253 345.415C559.66 338.193 512.171 290.064 476.681 254.096Z" fill="#FE0000"/>
<path d="M456.577 95.6629L60.7156 161.16C56.685 128.339 82.0681 103.82 95.2635 95.6629C198.667 78.3889 413.104 41.8258 443.621 33.7646C474.139 25.7034 518.715 30.4058 537.189 33.7646C569.337 41.4419 640.832 70.6157 669.622 125.892C698.412 181.169 697.932 234.814 694.094 254.727C639.969 123.445 513.197 93.9835 456.577 95.6629Z" fill="#FE0000"/>
<path d="M0.804765 101.421C0.564892 76.4738 16.4896 23.7066 82.1014 12.178C78.0082 12.8467 -9.24126 11.7238 0.804765 101.421Z" fill="#FE0000"/>
<path d="M82.1363 60.395C44.7093 70.7594 33.9132 114.616 33.1934 135.249C17.6469 83.4269 52.6266 51.2782 72.0598 41.6816C136.117 28.4862 267.399 1.80754 280.067 0.655946C292.734 -0.49565 298.78 10.2526 300.22 15.7706C243.12 26.3269 119.563 50.0306 82.1363 60.395Z" fill="#FE0000"/>
</svg>
