<svg width="1932" height="569" viewBox="0 0 1932 569" fill="none" xmlns="http://www.w3.org/2000/svg">
<path d="M809.896 534.53V462.115H786.821V453.098H845.235V462.115H822.049V534.53H809.896ZM855.486 534.53V449.625H867.303V534.53H855.486ZM891.666 534.53V492.694C891.666 490.304 891.181 488.344 890.21 486.813C889.276 485.282 887.783 484.517 885.729 484.517C884.908 484.517 884.217 484.61 883.657 484.797C883.134 484.946 882.369 485.114 881.361 485.301C879.307 485.712 877.459 485.544 875.816 484.797C874.211 484.013 872.68 482.762 871.224 481.045C875.144 478.767 878.411 477.255 881.025 476.508C883.676 475.761 886.028 475.388 888.082 475.388C890.845 475.388 893.421 475.967 895.81 477.124C898.2 478.282 900.104 480.167 901.523 482.781C902.979 485.394 903.707 488.941 903.707 493.422V534.53H891.666ZM946.145 535.762C941.776 535.762 937.856 534.96 934.384 533.354C930.949 531.749 928.036 529.527 925.647 526.689C923.257 523.852 921.446 520.585 920.214 516.888C918.982 513.155 918.366 509.178 918.366 504.959C918.366 498.873 919.523 493.627 921.838 489.221C924.19 484.778 927.458 481.362 931.639 478.972C935.858 476.583 940.75 475.388 946.313 475.388C950.233 475.388 953.724 476.228 956.786 477.908C959.885 479.588 962.386 481.903 964.291 484.853C966.195 487.803 967.352 491.182 967.763 494.99C968.211 498.761 967.763 502.756 966.419 506.975H934.272C935.056 504.735 936.176 502.849 937.632 501.319C939.125 499.788 941.104 499.022 943.569 499.022H956.618C956.954 496.297 956.655 493.833 955.722 491.63C954.826 489.389 953.463 487.597 951.633 486.253C949.804 484.909 947.694 484.237 945.305 484.237C942.467 484.237 939.891 485.021 937.576 486.589C935.298 488.12 933.487 490.435 932.143 493.534C930.837 496.596 930.183 500.385 930.183 504.903C930.183 509.272 930.911 513.099 932.367 516.384C933.861 519.67 935.914 522.228 938.528 524.057C941.142 525.849 944.11 526.745 947.433 526.745C950.009 526.745 952.473 526.465 954.826 525.905C957.215 525.308 960.016 524.225 963.227 522.657L966.307 530.89C962.611 532.719 959.045 533.989 955.61 534.698C952.212 535.408 949.057 535.762 946.145 535.762ZM1083.88 534.53V492.694C1083.88 490.304 1083.34 488.344 1082.25 486.813C1081.21 485.282 1079.55 484.517 1077.27 484.517C1076.45 484.517 1075.65 484.61 1074.86 484.797C1074.12 484.984 1073.24 485.17 1072.23 485.357C1070.18 485.73 1068.27 485.544 1066.52 484.797C1064.76 484.013 1063.18 482.762 1061.76 481.045C1065.79 478.879 1069.21 477.404 1072.01 476.62C1074.84 475.799 1077.36 475.388 1079.57 475.388C1082.4 475.388 1085.07 475.967 1087.58 477.124C1090.08 478.282 1092.09 480.167 1093.62 482.781C1095.15 485.394 1095.92 488.941 1095.92 493.422V534.53H1083.88ZM1012.02 534.53V490.734C1012.02 488.643 1011.89 486.421 1011.63 484.069C1011.41 481.717 1010.98 479.234 1010.34 476.62H1019.75C1021.54 478.636 1022.72 480.634 1023.28 482.613C1023.84 484.592 1024.12 486.701 1024.12 488.941V534.53H1012.02ZM1047.98 534.53V492.694C1047.98 490.304 1047.49 488.344 1046.52 486.813C1045.55 485.282 1044.02 484.517 1041.93 484.517C1041.07 484.517 1040.31 484.592 1039.63 484.741C1038.96 484.89 1038.16 485.058 1037.23 485.245C1035.14 485.618 1033.25 485.432 1031.57 484.685C1029.93 483.901 1028.4 482.65 1026.98 480.933C1030.97 478.767 1034.31 477.311 1037 476.564C1039.69 475.78 1042.12 475.388 1044.28 475.388C1047.12 475.388 1049.73 475.967 1052.12 477.124C1054.51 478.282 1056.44 480.167 1057.89 482.781C1059.35 485.394 1060.08 488.941 1060.08 493.422V534.53H1047.98ZM1136.71 535.762C1131.67 535.762 1127.04 534.605 1122.82 532.29C1118.6 529.938 1115.23 526.521 1112.69 522.041C1110.18 517.523 1108.93 512.016 1108.93 505.519C1108.93 500.367 1109.76 495.905 1111.4 492.134C1113.04 488.325 1115.21 485.189 1117.89 482.725C1120.62 480.26 1123.63 478.431 1126.91 477.236C1130.2 476.004 1133.46 475.388 1136.71 475.388C1142.5 475.388 1147.47 476.713 1151.61 479.364C1155.79 482.015 1158.98 485.618 1161.19 490.174C1163.43 494.729 1164.55 499.844 1164.55 505.519C1164.55 510.336 1163.78 514.629 1162.25 518.4C1160.76 522.134 1158.7 525.308 1156.09 527.921C1153.51 530.498 1150.55 532.458 1147.19 533.802C1143.86 535.109 1140.37 535.762 1136.71 535.762ZM1136.71 526.745C1140.15 526.745 1142.99 525.793 1145.23 523.889C1147.5 521.948 1149.18 519.371 1150.27 516.16C1151.39 512.912 1151.95 509.365 1151.95 505.519C1151.95 500.927 1151.27 497.062 1149.93 493.926C1148.59 490.79 1146.76 488.419 1144.44 486.813C1142.16 485.208 1139.59 484.405 1136.71 484.405C1133.87 484.405 1131.3 485.208 1128.98 486.813C1126.71 488.419 1124.88 490.79 1123.5 493.926C1122.15 497.062 1121.48 500.927 1121.48 505.519C1121.48 511.754 1122.82 516.851 1125.51 520.809C1128.2 524.766 1131.93 526.745 1136.71 526.745ZM1200.91 535.818C1196.84 535.818 1192.96 535.352 1189.26 534.418C1185.56 533.447 1181.94 531.973 1178.39 529.994V449.625H1190.21V525.177C1191.97 525.775 1193.78 526.204 1195.64 526.465C1197.51 526.689 1199.27 526.801 1200.91 526.801C1205.99 526.801 1209.98 524.766 1212.89 520.697C1215.81 516.59 1217.26 511.288 1217.26 504.791C1217.26 500.572 1216.68 496.95 1215.53 493.926C1214.41 490.864 1212.76 488.549 1210.6 486.981C1208.43 485.376 1205.84 484.648 1202.81 484.797C1200.95 484.909 1199.3 484.405 1197.89 483.285C1196.5 482.165 1195.23 480.671 1194.08 478.804C1196.09 477.834 1198.2 477.105 1200.41 476.62C1202.61 476.097 1204.59 475.836 1206.34 475.836C1209.55 475.836 1212.56 476.508 1215.36 477.852C1218.2 479.196 1220.7 481.138 1222.86 483.677C1225.03 486.178 1226.73 489.203 1227.96 492.75C1229.19 496.297 1229.81 500.311 1229.81 504.791C1229.81 510.765 1228.59 516.086 1226.17 520.753C1223.78 525.42 1220.42 529.098 1216.09 531.786C1211.76 534.474 1206.7 535.818 1200.91 535.818ZM1244.13 534.53V476.62H1256.23V534.53H1244.13ZM1250.18 467.211C1248.09 467.211 1246.33 466.502 1244.91 465.083C1243.49 463.664 1242.78 461.909 1242.78 459.818C1242.78 457.653 1243.49 455.861 1244.91 454.442C1246.33 452.986 1248.09 452.258 1250.18 452.258C1252.31 452.258 1254.06 452.986 1255.44 454.442C1256.86 455.861 1257.57 457.653 1257.57 459.818C1257.57 461.909 1256.86 463.664 1255.44 465.083C1254.06 466.502 1252.31 467.211 1250.18 467.211ZM1274.11 534.53V449.625H1285.76V534.53H1274.11ZM1302.87 534.53V476.62H1314.97V534.53H1302.87ZM1308.92 467.211C1306.83 467.211 1305.07 466.502 1303.65 465.083C1302.23 463.664 1301.52 461.909 1301.52 459.818C1301.52 457.653 1302.23 455.861 1303.65 454.442C1305.07 452.986 1306.83 452.258 1308.92 452.258C1311.05 452.258 1312.8 452.986 1314.18 454.442C1315.6 455.861 1316.31 457.653 1316.31 459.818C1316.31 461.909 1315.6 463.664 1314.18 465.083C1312.8 466.502 1311.05 467.211 1308.92 467.211ZM1354.86 535.818C1348.48 535.818 1343.59 533.821 1340.19 529.826C1336.79 525.793 1335.09 520.155 1335.09 512.912V485.245H1325.07V479.196L1335.09 476.62V462.115L1346.3 458.53V513.808C1346.3 517.654 1347.12 520.809 1348.76 523.273C1350.4 525.737 1352.57 526.969 1355.26 526.969C1356.64 526.969 1358 526.857 1359.34 526.633C1360.73 526.372 1362.39 525.924 1364.33 525.289L1367.02 533.186C1364.18 534.119 1361.88 534.792 1360.13 535.202C1358.41 535.613 1356.66 535.818 1354.86 535.818ZM1360.18 485.245C1358.32 485.245 1356.73 484.853 1355.42 484.069C1354.15 483.247 1353.09 482.183 1352.23 480.877C1351.41 479.532 1350.76 478.114 1350.27 476.62H1366.18V485.245H1360.18ZM1385.9 562.141C1384.41 562.066 1382.8 561.88 1381.09 561.581C1379.41 561.32 1377.76 560.909 1376.16 560.349L1379.07 552.228C1380.3 552.564 1381.48 552.807 1382.6 552.956C1383.76 553.105 1384.86 553.18 1385.9 553.18C1388.7 553.18 1390.96 552.191 1392.68 550.212C1394.43 548.27 1395.95 545.582 1397.22 542.147C1398.52 538.749 1399.94 534.829 1401.47 530.386L1418.67 476.62H1430.93L1410.43 533.298C1408.83 537.48 1407.31 541.326 1405.9 544.835C1404.48 548.345 1402.91 551.388 1401.19 553.964C1399.47 556.54 1397.4 558.538 1394.97 559.957C1392.55 561.376 1389.52 562.104 1385.9 562.141ZM1394.86 533.298L1373.92 476.62H1386.52L1397.61 511.344C1398.47 513.995 1398.88 516.739 1398.84 519.577C1398.8 522.377 1398.41 525.009 1397.66 527.473C1396.95 529.9 1396.02 531.842 1394.86 533.298ZM1494.52 535.762C1489.48 535.762 1484.85 534.642 1480.63 532.402C1476.41 530.124 1473.03 526.745 1470.49 522.265C1467.95 517.784 1466.68 512.202 1466.68 505.519C1466.68 498.985 1467.97 493.478 1470.55 488.997C1473.16 484.517 1476.58 481.138 1480.79 478.86C1485.01 476.545 1489.59 475.388 1494.52 475.388C1496.53 475.388 1498.75 475.575 1501.18 475.948C1503.61 476.321 1505.94 476.937 1508.18 477.796L1505.27 485.917C1503.22 485.394 1501.29 485.021 1499.5 484.797C1497.75 484.536 1496.08 484.405 1494.52 484.405C1491.72 484.405 1489.16 485.189 1486.84 486.757C1484.57 488.288 1482.74 490.622 1481.35 493.758C1479.97 496.894 1479.28 500.815 1479.28 505.519C1479.28 510.261 1479.95 514.2 1481.3 517.336C1482.68 520.473 1484.51 522.825 1486.79 524.393C1489.1 525.961 1491.68 526.745 1494.52 526.745C1496.16 526.745 1497.95 526.503 1499.89 526.017C1501.83 525.532 1504.06 524.729 1506.56 523.609L1509.64 531.842C1506.65 533.298 1503.83 534.306 1501.18 534.866C1498.57 535.464 1496.35 535.762 1494.52 535.762ZM1542.43 535.762C1537.39 535.762 1532.76 534.605 1528.54 532.29C1524.32 529.938 1520.94 526.521 1518.4 522.041C1515.9 517.523 1514.65 512.016 1514.65 505.519C1514.65 500.367 1515.47 495.905 1517.11 492.134C1518.76 488.325 1520.92 485.189 1523.61 482.725C1526.33 480.26 1529.34 478.431 1532.63 477.236C1535.91 476.004 1539.18 475.388 1542.43 475.388C1548.21 475.388 1553.18 476.713 1557.32 479.364C1561.51 482.015 1564.7 485.618 1566.9 490.174C1569.14 494.729 1570.26 499.844 1570.26 505.519C1570.26 510.336 1569.5 514.629 1567.97 518.4C1566.47 522.134 1564.42 525.308 1561.81 527.921C1559.23 530.498 1556.26 532.458 1552.9 533.802C1549.58 535.109 1546.09 535.762 1542.43 535.762ZM1542.43 526.745C1545.86 526.745 1548.7 525.793 1550.94 523.889C1553.22 521.948 1554.9 519.371 1555.98 516.16C1557.1 512.912 1557.66 509.365 1557.66 505.519C1557.66 500.927 1556.99 497.062 1555.64 493.926C1554.3 490.79 1552.47 488.419 1550.16 486.813C1547.88 485.208 1545.3 484.405 1542.43 484.405C1539.59 484.405 1537.01 485.208 1534.7 486.813C1532.42 488.419 1530.59 490.79 1529.21 493.926C1527.87 497.062 1527.19 500.927 1527.19 505.519C1527.19 511.754 1528.54 516.851 1531.23 520.809C1533.91 524.766 1537.65 526.745 1542.43 526.745ZM1656.19 534.53V492.694C1656.19 490.304 1655.65 488.344 1654.56 486.813C1653.52 485.282 1651.86 484.517 1649.58 484.517C1648.76 484.517 1647.96 484.61 1647.17 484.797C1646.43 484.984 1645.55 485.17 1644.54 485.357C1642.49 485.73 1640.58 485.544 1638.83 484.797C1637.07 484.013 1635.49 482.762 1634.07 481.045C1638.1 478.879 1641.52 477.404 1644.32 476.62C1647.15 475.799 1649.67 475.388 1651.88 475.388C1654.71 475.388 1657.38 475.967 1659.89 477.124C1662.39 478.282 1664.4 480.167 1665.93 482.781C1667.46 485.394 1668.23 488.941 1668.23 493.422V534.53H1656.19ZM1584.33 534.53V490.734C1584.33 488.643 1584.2 486.421 1583.94 484.069C1583.72 481.717 1583.29 479.234 1582.65 476.62H1592.06C1593.85 478.636 1595.03 480.634 1595.59 482.613C1596.15 484.592 1596.43 486.701 1596.43 488.941V534.53H1584.33ZM1620.29 534.53V492.694C1620.29 490.304 1619.8 488.344 1618.83 486.813C1617.86 485.282 1616.33 484.517 1614.24 484.517C1613.38 484.517 1612.62 484.592 1611.94 484.741C1611.27 484.89 1610.47 485.058 1609.54 485.245C1607.45 485.618 1605.56 485.432 1603.88 484.685C1602.24 483.901 1600.71 482.65 1599.29 480.933C1603.28 478.767 1606.62 477.311 1609.31 476.564C1612 475.78 1614.43 475.388 1616.59 475.388C1619.43 475.388 1622.04 475.967 1624.43 477.124C1626.82 478.282 1628.75 480.167 1630.2 482.781C1631.66 485.394 1632.39 488.941 1632.39 493.422V534.53H1620.29ZM1686.4 561.525V494.374C1686.4 490.566 1686.23 487.187 1685.89 484.237C1685.56 481.287 1685.15 478.748 1684.66 476.62H1693.4C1694.37 477.329 1695.15 478.151 1695.75 479.084C1696.35 479.98 1696.89 481.138 1697.37 482.557L1697.6 484.517L1698.72 482.389C1701.26 479.775 1703.93 477.964 1706.73 476.956C1709.53 475.911 1712.1 475.388 1714.46 475.388C1719.72 475.388 1724.2 476.732 1727.9 479.42C1731.59 482.071 1734.41 485.712 1736.35 490.342C1738.29 494.934 1739.27 500.124 1739.27 505.911C1739.27 510.242 1738.56 514.2 1737.14 517.784C1735.76 521.369 1733.85 524.468 1731.42 527.081C1729 529.695 1726.25 531.73 1723.19 533.186C1720.17 534.605 1716.99 535.314 1713.67 535.314C1711.92 535.314 1710.11 535.165 1708.24 534.866C1706.37 534.605 1704.3 534.101 1702.02 533.354C1703.07 531.3 1704.39 529.639 1706 528.37C1707.6 527.063 1709.58 526.409 1711.93 526.409C1714.66 526.447 1717.14 525.719 1719.38 524.225C1721.62 522.694 1723.4 520.417 1724.7 517.392C1726.01 514.331 1726.66 510.504 1726.66 505.911C1726.66 501.804 1726.1 498.126 1724.98 494.878C1723.9 491.63 1722.3 489.072 1720.17 487.205C1718.04 485.338 1715.44 484.405 1712.38 484.405C1709.96 484.405 1707.55 485.058 1705.16 486.365C1702.81 487.672 1700.47 489.725 1698.16 492.526V561.525H1686.4ZM1768.05 535.762C1764.24 535.762 1760.96 535.034 1758.19 533.578C1755.43 532.122 1753.3 530.18 1751.81 527.753C1750.35 525.289 1749.63 522.564 1749.63 519.577C1749.63 515.992 1750.6 512.931 1752.54 510.392C1754.48 507.815 1757.69 505.706 1762.17 504.063C1766.69 502.42 1772.81 501.188 1780.54 500.367C1780.35 501.487 1780 502.7 1779.48 504.007C1778.95 505.314 1778.13 506.49 1777.01 507.535C1775.93 508.543 1774.46 509.197 1772.59 509.496C1769.71 509.944 1767.49 510.634 1765.92 511.568C1764.36 512.501 1763.27 513.584 1762.68 514.816C1762.08 516.048 1761.78 517.336 1761.78 518.68C1761.78 520.846 1762.56 522.732 1764.13 524.337C1765.7 525.943 1767.77 526.745 1770.35 526.745C1772.78 526.745 1775.22 526.092 1777.68 524.785C1780.19 523.441 1782.48 521.425 1784.57 518.736V498.854C1784.57 494.598 1783.49 491.144 1781.33 488.493C1779.2 485.805 1775.74 484.461 1770.96 484.461C1768.99 484.461 1766.99 484.666 1764.97 485.077C1762.96 485.488 1760.6 486.178 1757.91 487.149L1755 479.42C1758.59 477.852 1761.87 476.807 1764.86 476.284C1767.85 475.724 1770.61 475.444 1773.15 475.444C1780.5 475.444 1786.2 477.535 1790.23 481.717C1794.3 485.898 1796.33 491.816 1796.33 499.47V516.776C1796.33 520.585 1796.5 523.964 1796.84 526.913C1797.17 529.826 1797.6 532.365 1798.13 534.53H1789.45C1788.44 533.933 1787.62 533.13 1786.98 532.122C1786.38 531.076 1785.86 529.994 1785.41 528.874L1785.25 526.745L1783.96 528.762C1780.97 531.674 1778.24 533.578 1775.78 534.474C1773.35 535.333 1770.78 535.762 1768.05 535.762ZM1849.29 534.53V492.694C1849.29 490.304 1848.77 488.344 1847.72 486.813C1846.67 485.282 1845.05 484.517 1842.85 484.517C1841.99 484.517 1841.22 484.61 1840.55 484.797C1839.88 484.984 1839.04 485.17 1838.03 485.357C1835.98 485.73 1834.09 485.544 1832.37 484.797C1830.69 484.013 1829.14 482.799 1827.73 481.157C1831.65 478.879 1834.95 477.348 1837.64 476.564C1840.36 475.78 1842.81 475.388 1844.98 475.388C1847.85 475.388 1850.54 475.967 1853.04 477.124C1855.54 478.282 1857.54 480.167 1859.03 482.781C1860.56 485.394 1861.33 488.941 1861.33 493.422V534.53H1849.29ZM1812.72 534.53V490.734C1812.72 488.643 1812.59 486.421 1812.32 484.069C1812.06 481.717 1811.62 479.234 1810.98 476.62H1820.39C1822.18 478.636 1823.36 480.634 1823.92 482.613C1824.52 484.592 1824.81 486.701 1824.81 488.941V534.53H1812.72ZM1884.05 562.141C1882.55 562.066 1880.95 561.88 1879.23 561.581C1877.55 561.32 1875.91 560.909 1874.3 560.349L1877.22 552.228C1878.45 552.564 1879.62 552.807 1880.74 552.956C1881.9 553.105 1883 553.18 1884.05 553.18C1886.85 553.18 1889.11 552.191 1890.82 550.212C1892.58 548.27 1894.09 545.582 1895.36 542.147C1896.67 538.749 1898.09 534.829 1899.62 530.386L1916.81 476.62H1929.08L1908.58 533.298C1906.97 537.48 1905.46 541.326 1904.04 544.835C1902.62 548.345 1901.05 551.388 1899.34 553.964C1897.62 556.54 1895.55 558.538 1893.12 559.957C1890.69 561.376 1887.67 562.104 1884.05 562.141ZM1893.01 533.298L1872.06 476.62H1884.66L1895.75 511.344C1896.61 513.995 1897.02 516.739 1896.99 519.577C1896.95 522.377 1896.56 525.009 1895.81 527.473C1895.1 529.9 1894.17 531.842 1893.01 533.298Z" fill="#FE0000"/>
<path d="M1322.49 177.88H1282.01C1281.34 177.88 1280.79 178.428 1280.79 179.103V360.589C1280.79 361.265 1281.34 361.812 1282.01 361.812H1322.49C1323.17 361.812 1323.72 361.265 1323.72 360.589V179.103C1323.72 178.428 1323.17 177.88 1322.49 177.88Z" fill="#FE0000"/>
<path d="M952.177 366.37C958.292 374.97 967.349 379.293 974.673 376.154C981.998 373.015 983.567 374.061 1009.2 354.181C1009.2 354.181 1008.68 362.028 1001.88 374.061C997.253 382.245 991.415 396.035 980.951 401.267C970.488 406.498 931.248 404.437 917.124 381.909C916.361 380.673 912.763 377.009 911.343 377.219C866.129 383.216 823.835 366.961 813.182 320.248C801.978 271.287 809.868 203.9 870.942 192.932C923.534 183.503 973.127 199.797 981.53 258.898C986.699 295.117 983.385 340.015 952.69 363.134C951.48 364.055 951.309 365.133 952.177 366.37ZM874.888 297.05C897.35 288.475 915.696 293.026 929.925 310.701C931.267 312.41 932.095 312.187 932.411 310.03C936.474 282.058 939.118 227.888 897.534 226.941C855.674 225.994 856.621 272.746 859.304 304.664C859.514 307.11 860.474 307.439 862.184 305.651C865.892 301.732 870.127 298.865 874.888 297.05ZM904.951 343.368C897.692 326.245 885.382 320.643 868.496 330.23C867.102 331.019 866.905 332.045 867.904 333.308C876.269 344.013 888.197 348.129 903.689 345.656C905.083 345.446 905.504 344.683 904.951 343.368Z" fill="#FE0000"/>
<path d="M1495.05 262.202V320.83C1495.04 322.733 1495.69 324.58 1496.88 326.065C1498.07 327.55 1499.74 328.584 1501.59 328.997C1508.28 330.496 1515.17 329.115 1522.27 324.854C1522.36 324.799 1522.47 324.769 1522.59 324.77C1522.7 324.77 1522.81 324.8 1522.9 324.856C1523 324.912 1523.08 324.992 1523.13 325.089C1523.19 325.186 1523.22 325.295 1523.22 325.407L1523.1 360.441C1523.1 360.757 1522.95 360.967 1522.66 361.073C1491.77 373.264 1449.71 366.123 1449.32 324.302C1449.11 304.47 1449.07 283.665 1449.2 261.887C1449.2 260.282 1448.4 259.48 1446.79 259.48L1433.62 259.44C1431.49 259.44 1430.42 258.375 1430.42 256.245L1430.46 230.127C1430.46 227.996 1431.53 226.931 1433.66 226.931H1446.44C1448.23 226.905 1449.13 225.997 1449.16 224.209V192.172C1449.16 191.712 1449.34 191.27 1449.67 190.945C1449.99 190.619 1450.44 190.436 1450.9 190.436H1493.07C1493.6 190.436 1494.1 190.644 1494.47 191.014C1494.84 191.384 1495.05 191.886 1495.05 192.409V224.879C1495.05 226.247 1495.73 226.944 1497.1 226.97C1504.28 227.102 1511.55 226.957 1518.91 226.536C1521.73 226.378 1523.14 227.707 1523.14 230.521V254.627C1523.14 258.862 1521.05 260.637 1516.86 259.953C1511.13 259.006 1504.67 258.875 1497.49 259.559C1495.86 259.69 1495.05 260.571 1495.05 262.202Z" fill="#FE0000"/>
<path d="M1223.95 285.951C1225.53 272.905 1220.49 264.923 1208.84 262.003C1192.01 257.768 1174.94 261.122 1157.63 272.064C1154.61 273.984 1153.09 273.155 1153.09 269.578V240.343C1153.09 237.371 1154.45 235.319 1157.16 234.188C1186.71 221.603 1248.22 217.263 1263.33 251.864C1266.14 258.281 1267.44 265.83 1267.23 274.51C1266.81 294.315 1266.8 313.529 1267.19 332.151C1268.06 370.342 1206.67 368.527 1181.89 364.898C1156.2 361.163 1142.8 347.13 1141.69 322.801C1139.56 276.719 1190.5 272.616 1221.66 287.214C1223 287.845 1223.77 287.424 1223.95 285.951ZM1224.07 329.666L1224.23 314.516C1224.24 313.624 1224.07 312.74 1223.74 311.913C1223.41 311.085 1222.92 310.331 1222.3 309.694C1221.67 309.056 1220.93 308.548 1220.11 308.197C1219.29 307.847 1218.41 307.661 1217.52 307.651L1202.25 307.453C1199.96 307.426 1197.68 307.753 1195.55 308.414C1193.42 309.076 1191.48 310.059 1189.84 311.309C1188.21 312.558 1186.9 314.049 1186 315.696C1185.11 317.343 1184.64 319.114 1184.62 320.907V322.327C1184.58 325.946 1186.38 329.438 1189.63 332.035C1192.88 334.632 1197.3 336.121 1201.94 336.176L1217.21 336.373C1218.1 336.383 1218.98 336.218 1219.81 335.887C1220.64 335.555 1221.39 335.064 1222.03 334.441C1222.66 333.818 1223.17 333.076 1223.52 332.257C1223.87 331.437 1224.06 330.557 1224.07 329.666Z" fill="#FE0000"/>
<path d="M1056.85 327.804C1073.06 332.854 1087.31 326.778 1087.27 307.959C1087.27 282.551 1087.25 256.643 1087.23 230.236C1087.23 228.815 1087.94 228.105 1089.36 228.105H1125.65C1127.13 228.105 1127.86 228.842 1127.86 230.315C1127.52 254.539 1127.55 280.144 1127.94 307.13C1128.34 332.617 1120.41 352.778 1095.67 360.787C1074.05 367.81 1053.13 367.481 1032.9 359.801C1012.07 351.884 1001.63 335.353 1001.57 310.208C1001.47 282.801 1001.41 256.328 1001.41 230.788C1001.41 228.999 1002.32 228.105 1004.14 228.105H1042.21C1043.97 228.105 1044.85 228.986 1044.85 230.749C1044.91 254.21 1044.88 278.895 1044.77 304.803C1044.73 314.074 1046.51 324.608 1056.85 327.804Z" fill="#FE0000"/>
<path d="M1611.86 309.045C1612.55 311.202 1613.22 311.202 1613.88 309.045L1637.23 231.834C1637.79 230.046 1639 229.152 1640.86 229.152H1682.21C1683.92 229.152 1684.47 229.954 1683.87 231.558C1666.59 276.824 1649.16 322.025 1631.59 367.16C1618.57 400.577 1601.54 406.481 1557.34 410.559C1476.46 418.019 1476.43 418.372 1476.46 415.926V418.019C1476.46 415.099 1526.69 394.476 1563.83 381.919C1593.13 370.409 1586.1 377.457 1590.28 362.623C1590.68 361.255 1590.6 359.9 1590.05 358.559L1538.32 231.4C1538.22 231.154 1538.18 230.885 1538.2 230.618C1538.23 230.351 1538.32 230.095 1538.47 229.872C1538.62 229.649 1538.82 229.466 1539.05 229.341C1539.29 229.215 1539.55 229.15 1539.82 229.152H1585.27C1586.59 229.152 1587.43 229.783 1587.8 231.045L1611.86 309.045Z" fill="#FE0000"/>
<path d="M1415.8 231.244H1373.9C1373.33 231.244 1372.87 231.703 1372.87 232.27V361.441C1372.87 362.007 1373.33 362.466 1373.9 362.466H1415.8C1416.36 362.466 1416.82 362.007 1416.82 361.441V232.27C1416.82 231.703 1416.36 231.244 1415.8 231.244Z" fill="#FE0000"/>
<path d="M1405.31 360.992C1392.43 357.484 1322.8 356.314 1323.69 301.35L1281.31 361.515C1304.4 361.515 1284.98 361.515 1335.17 362.716C1385.36 363.916 1405.31 360.992 1405.31 360.992Z" fill="#FE0000"/>
<path d="M1373.44 228.105C1373.44 228.105 1367.45 207.54 1373.44 200.158C1379.43 192.776 1411.04 192.776 1416.49 200.158C1421.94 207.54 1416.49 228.105 1416.49 228.105H1373.44Z" fill="#FE0000"/>
<path d="M881.544 36.4977C881.347 36.4977 881.152 36.5365 880.97 36.6119C880.788 36.6872 880.623 36.7976 880.484 36.9369C880.344 37.0761 880.234 37.2413 880.159 37.4232C880.083 37.6051 880.045 37.8001 880.045 37.997V174.111C880.045 174.509 879.887 174.89 879.605 175.172C879.324 175.453 878.943 175.611 878.545 175.611L834.318 175.571C833.899 175.571 833.498 175.405 833.202 175.109C832.906 174.813 832.74 174.412 832.74 173.993V38.7466C832.74 37.2211 831.977 36.4583 830.452 36.4583L786.658 36.5766C786.132 36.5766 785.869 36.3268 785.869 35.827V0.792355C785.869 0.318914 786.106 0.0821954 786.579 0.0821954C833.739 -0.0493161 882.596 -0.0230157 933.149 0.1611C949.982 0.213705 967.302 1.42361 985.109 3.79082C988.213 4.21166 988.239 4.79031 985.188 5.52677C964.83 10.5242 946.353 20.335 929.756 34.9591C928.664 35.9241 927.247 36.4572 925.771 36.4583L881.544 36.4977Z" fill="#FE0000"/>
<path d="M984.089 76.6314V173.884C984.089 174.112 984.044 174.338 983.957 174.548C983.87 174.759 983.742 174.95 983.581 175.112C983.419 175.273 983.228 175.401 983.017 175.488C982.807 175.575 982.581 175.62 982.353 175.62H941.598C941.484 175.62 941.371 175.598 941.265 175.554C941.16 175.51 941.064 175.446 940.984 175.366C940.903 175.285 940.839 175.19 940.796 175.084C940.752 174.979 940.73 174.866 940.73 174.752L940.809 59.7453C940.807 58.6664 941.09 57.6039 941.63 56.6629C942.169 55.7218 942.947 54.9348 943.886 54.3796C968.663 39.7029 1005.31 31.3783 1032.66 43.4905C1034.16 44.1743 1034.9 45.3316 1034.9 46.9624V74.422C1034.9 75.8949 1034.18 76.4999 1032.74 76.2368C1017.11 73.291 1001.59 72.6466 986.18 74.3036C984.786 74.4614 984.089 75.2374 984.089 76.6314Z" fill="#FE0000"/>
<path d="M1111.25 94.8721C1117.09 97.5549 1119.16 95.8058 1117.48 89.6248C1116.9 87.4417 1116.31 85.2586 1115.7 83.0755C1114.94 80.2101 1113.42 77.5966 1111.32 75.498C1109.21 73.3995 1106.59 71.8899 1103.71 71.1211C1085.38 66.2552 1066.45 70.069 1046.94 82.5626C1046.85 82.6109 1046.76 82.6364 1046.66 82.6366C1046.57 82.6369 1046.47 82.6118 1046.39 82.5639C1046.3 82.516 1046.23 82.4469 1046.18 82.3636C1046.14 82.2804 1046.11 82.1857 1046.11 82.0892L1046.19 46.0287C1046.19 45.7035 1046.28 45.3842 1046.47 45.1106C1046.65 44.837 1046.91 44.6212 1047.21 44.49C1075.88 31.9175 1104.05 30.1158 1131.72 39.0849C1154.49 46.5022 1161.23 65.5187 1160.25 88.599C1159.8 99.7249 1159.81 110.851 1160.29 121.977C1160.73 132.471 1164.75 141.348 1172.32 148.608C1175.06 151.212 1178.19 154.21 1181.71 157.603C1189.65 165.204 1193.63 163.508 1193.63 152.514L1193.59 51.4338C1193.59 49.5401 1194.48 48.2644 1196.27 47.6069C1227.86 36.2706 1256.59 32.1148 1282.47 35.1396C1312.93 38.7298 1323.07 57.0757 1322.6 85.0877C1322.15 112.837 1322.13 141.138 1322.52 169.991C1322.52 170.187 1322.48 170.38 1322.4 170.559C1322.33 170.739 1322.22 170.902 1322.08 171.038C1321.94 171.174 1321.77 171.281 1321.59 171.352C1321.41 171.423 1321.22 171.457 1321.02 171.451L1280.9 171.412C1279.53 171.412 1278.84 170.728 1278.84 169.36C1278.95 140.507 1278.96 113.862 1278.88 89.4275C1278.81 66.4656 1254.58 67.1363 1238.96 72.6993C1237.67 73.1727 1237.02 74.0801 1237.02 75.4216L1236.98 169.991C1236.98 170.912 1236.52 171.372 1235.6 171.372C1207.43 171.556 1178.82 171.504 1149.75 171.215C1139.99 171.136 1130.53 171.859 1121.35 173.384C1101.51 176.725 1082.88 176.067 1065.44 171.412C1045.27 166.02 1035.09 152.198 1034.9 129.946C1034.51 86.8236 1081.03 80.9056 1111.25 94.8721ZM1117.05 138.468L1117.2 123.239C1117.21 122.338 1117.05 121.443 1116.71 120.606C1116.38 119.769 1115.88 119.006 1115.25 118.362C1114.62 117.717 1113.87 117.203 1113.04 116.848C1112.21 116.493 1111.32 116.306 1110.42 116.295L1095.54 116.138C1093.21 116.111 1090.9 116.438 1088.74 117.099C1086.58 117.759 1084.61 118.741 1082.95 119.987C1081.29 121.233 1079.97 122.719 1079.07 124.361C1078.16 126.002 1077.69 127.766 1077.67 129.552V131.367C1077.64 134.959 1079.48 138.422 1082.77 140.996C1086.06 143.57 1090.54 145.044 1095.23 145.096L1110.1 145.254C1111 145.265 1111.9 145.097 1112.74 144.762C1113.57 144.427 1114.33 143.93 1114.98 143.299C1115.62 142.669 1116.14 141.918 1116.49 141.089C1116.85 140.26 1117.04 139.37 1117.05 138.468Z" fill="#FE0000"/>
<path d="M1331.98 132.005C1348.24 142.789 1363.93 147.957 1379.05 147.51C1383.5 147.378 1386.94 145.8 1389.39 142.775C1390.03 141.981 1390.48 141.056 1390.72 140.066C1390.96 139.076 1390.98 138.046 1390.78 137.051C1390.57 136.055 1390.15 135.118 1389.54 134.307C1388.94 133.496 1388.15 132.831 1387.26 132.36C1380 128.493 1371.84 125.824 1362.8 124.351C1340.35 120.721 1328.67 103.283 1330.09 79.9656C1331.47 56.688 1349.58 42.3664 1372.07 38.8551C1392.79 35.6462 1412.06 38.9471 1429.87 48.7579C1430.21 48.942 1430.38 49.2313 1430.38 49.6259L1430.66 81.307C1430.67 81.4615 1430.63 81.6145 1430.55 81.7487C1430.48 81.8829 1430.36 81.9931 1430.22 82.0668C1430.09 82.1406 1429.93 82.175 1429.77 82.1662C1429.6 82.1575 1429.45 82.1058 1429.31 82.0172C1416.27 73.3374 1404.06 68.8792 1392.7 68.6424C1385.4 68.4846 1376.13 69.5499 1375.34 78.7031C1374.92 83.3849 1377.04 86.6069 1381.69 88.3692C1388.82 91.1046 1396.07 93.3009 1403.43 94.9579C1426.55 100.126 1438.82 115.237 1435.27 140.803C1432.69 159.214 1420.35 170.761 1398.23 175.443C1375.08 180.309 1353.02 178.007 1332.06 168.539C1331.33 168.223 1330.96 167.657 1330.96 166.842L1330.92 132.596C1330.92 131.729 1331.27 131.531 1331.98 132.005Z" fill="#FE0000"/>
<path fill-rule="evenodd" clip-rule="evenodd" d="M59.1766 378.639V226.772C66.662 229.076 200.487 211.898 266.464 203.021C362.046 187.474 415.692 186.946 430.566 188.626C458.78 185.747 509.019 218.615 530.611 235.409C575.524 277.443 612.663 290.83 625.618 292.269H675.281C687.948 288.815 694.474 297.548 696.153 302.346V343.372C689.244 379.647 653.448 395.433 636.414 398.792H430.566C473.175 365.396 454.078 331.616 439.203 318.9C432.246 311.703 411.709 301.194 385.222 316.741C358.736 332.287 363.63 364.484 369.388 378.639H138.349C156.199 346.394 138.109 328.257 126.833 323.219C118.436 319.14 98.1869 315.157 84.3678 331.856C70.5486 348.554 78.6098 370.002 84.3678 378.639H59.1766ZM223.279 336.174C236.594 340.379 290.395 339.58 315.587 336.434C304.815 336.85 265.678 328.236 223.279 313.862C195.597 304.477 166.524 289.382 143.047 277.193C134.663 272.841 126.993 268.858 120.355 265.639C126.554 270.082 134.425 275.905 143.08 282.307C172.28 303.908 210.398 332.106 223.279 336.174ZM477.301 274.364C470.565 267.538 464.262 261.15 458.637 255.562C524.853 314.294 569.478 334.015 597.548 344.811C621.891 354.174 648.617 352.169 657.913 351.472C659.336 351.365 660.351 351.289 660.886 351.289C637.134 378.639 611.943 374.277 583.873 365.684C560.28 358.462 512.791 310.332 477.301 274.364Z" fill="#FE0000"/>
<path d="M457.197 115.931L61.3357 181.428C57.3051 148.608 82.6882 124.089 95.8836 115.931C199.287 98.6575 413.724 62.0943 444.241 54.0331C474.759 45.972 519.335 50.6743 537.809 54.0331C569.957 61.7104 641.452 90.8842 670.242 146.161C699.032 201.437 698.552 255.083 694.714 274.996C640.589 143.714 513.817 114.252 457.197 115.931Z" fill="#FE0000"/>
<path d="M1.42488 121.689C1.18501 96.7423 17.1097 43.9751 82.7215 32.4466C78.6283 33.1152 -8.62114 31.9923 1.42488 121.689Z" fill="#FE0000"/>
<path d="M82.7564 80.6636C45.3295 91.0279 34.5333 134.885 33.8136 155.517C18.267 103.695 53.2467 71.5468 72.6799 61.9501C136.737 48.7548 268.019 22.0761 280.687 20.9245C293.355 19.7729 299.4 30.5211 300.84 36.0392C243.74 46.5955 120.183 70.2992 82.7564 80.6636Z" fill="#FE0000"/>
</svg>
