<svg width="2753" height="595" viewBox="0 0 2753 595" fill="none" xmlns="http://www.w3.org/2000/svg">
<path d="M1019.06 546.363V446.079H987.105V433.592H1068V446.079H1035.89V546.363H1019.06ZM1082.19 546.363V428.784H1098.56V546.363H1082.19ZM1132.3 546.363V488.426C1132.3 485.117 1131.62 482.403 1130.28 480.283C1128.99 478.163 1126.92 477.103 1124.08 477.103C1122.94 477.103 1121.98 477.232 1121.21 477.491C1120.48 477.697 1119.42 477.93 1118.03 478.189C1115.18 478.757 1112.62 478.525 1110.35 477.491C1108.12 476.405 1106 474.673 1103.99 472.294C1109.42 469.14 1113.94 467.046 1117.56 466.012C1121.23 464.978 1124.49 464.461 1127.33 464.461C1131.16 464.461 1134.73 465.262 1138.04 466.865C1141.35 468.468 1143.98 471.079 1145.95 474.698C1147.96 478.318 1148.97 483.23 1148.97 489.435V546.363H1132.3ZM1207.74 548.069C1201.69 548.069 1196.26 546.957 1191.45 544.734C1186.7 542.511 1182.66 539.434 1179.35 535.505C1176.05 531.575 1173.54 527.051 1171.83 521.932C1170.13 516.761 1169.27 511.255 1169.27 505.412C1169.27 496.984 1170.87 489.719 1174.08 483.618C1177.34 477.465 1181.86 472.734 1187.65 469.424C1193.5 466.115 1200.27 464.461 1207.97 464.461C1213.4 464.461 1218.24 465.624 1222.48 467.951C1226.77 470.278 1230.23 473.483 1232.87 477.568C1235.51 481.653 1237.11 486.332 1237.68 491.606C1238.3 496.829 1237.68 502.361 1235.82 508.204H1191.3C1192.38 505.102 1193.94 502.49 1195.95 500.37C1198.02 498.25 1200.76 497.191 1204.17 497.191H1222.24C1222.71 493.416 1222.3 490.003 1221 486.953C1219.76 483.85 1217.88 481.369 1215.34 479.507C1212.81 477.646 1209.89 476.715 1206.58 476.715C1202.65 476.715 1199.08 477.801 1195.87 479.972C1192.72 482.092 1190.21 485.298 1188.35 489.59C1186.54 493.83 1185.64 499.078 1185.64 505.334C1185.64 511.384 1186.65 516.684 1188.66 521.234C1190.73 525.784 1193.57 529.326 1197.19 531.859C1200.81 534.341 1204.92 535.582 1209.53 535.582C1213.09 535.582 1216.51 535.194 1219.76 534.419C1223.07 533.591 1226.95 532.092 1231.4 529.92L1235.66 541.321C1230.54 543.855 1225.61 545.613 1220.85 546.595C1216.14 547.578 1211.77 548.069 1207.74 548.069ZM1398.48 546.363V488.426C1398.48 485.117 1397.73 482.403 1396.23 480.283C1394.78 478.163 1392.48 477.103 1389.33 477.103C1388.19 477.103 1387.08 477.232 1385.99 477.491C1384.96 477.749 1383.74 478.008 1382.35 478.266C1379.5 478.783 1376.87 478.525 1374.44 477.491C1372.01 476.405 1369.81 474.673 1367.84 472.294C1373.43 469.295 1378.16 467.253 1382.04 466.167C1385.97 465.029 1389.46 464.461 1392.51 464.461C1396.44 464.461 1400.13 465.262 1403.6 466.865C1407.06 468.468 1409.86 471.079 1411.98 474.698C1414.1 478.318 1415.16 483.23 1415.16 489.435V546.363H1398.48ZM1298.97 546.363V485.712C1298.97 482.816 1298.79 479.74 1298.43 476.482C1298.12 473.225 1297.52 469.786 1296.65 466.167H1309.68C1312.16 468.959 1313.79 471.725 1314.56 474.466C1315.34 477.206 1315.72 480.128 1315.72 483.23V546.363H1298.97ZM1348.76 546.363V488.426C1348.76 485.117 1348.09 482.403 1346.75 480.283C1345.4 478.163 1343.28 477.103 1340.39 477.103C1339.2 477.103 1338.14 477.206 1337.21 477.413C1336.28 477.62 1335.17 477.853 1333.87 478.111C1330.98 478.628 1328.37 478.37 1326.04 477.335C1323.77 476.25 1321.65 474.518 1319.68 472.139C1325.21 469.14 1329.84 467.124 1333.56 466.089C1337.29 465.004 1340.65 464.461 1343.65 464.461C1347.58 464.461 1351.2 465.262 1354.5 466.865C1357.81 468.468 1360.48 471.079 1362.49 474.698C1364.51 478.318 1365.52 483.23 1365.52 489.435V546.363H1348.76ZM1471.65 548.069C1464.67 548.069 1458.25 546.466 1452.41 543.26C1446.57 540.003 1441.89 535.272 1438.37 529.067C1434.91 522.811 1433.18 515.184 1433.18 506.187C1433.18 499.052 1434.31 492.873 1436.59 487.651C1438.86 482.377 1441.86 478.034 1445.59 474.621C1449.36 471.208 1453.52 468.675 1458.07 467.02C1462.62 465.314 1467.15 464.461 1471.65 464.461C1479.66 464.461 1486.54 466.296 1492.28 469.967C1498.07 473.639 1502.49 478.628 1505.54 484.936C1508.64 491.244 1510.19 498.328 1510.19 506.187C1510.19 512.857 1509.13 518.804 1507.01 524.026C1504.94 529.196 1502.1 533.591 1498.48 537.211C1494.91 540.779 1490.8 543.493 1486.15 545.355C1481.55 547.164 1476.71 548.069 1471.65 548.069ZM1471.65 535.582C1476.4 535.582 1480.33 534.264 1483.43 531.627C1486.59 528.938 1488.92 525.37 1490.42 520.924C1491.97 516.425 1492.74 511.513 1492.74 506.187C1492.74 499.828 1491.81 494.476 1489.95 490.133C1488.09 485.789 1485.55 482.506 1482.35 480.283C1479.19 478.059 1475.63 476.948 1471.65 476.948C1467.72 476.948 1464.15 478.059 1460.94 480.283C1457.79 482.506 1455.26 485.789 1453.34 490.133C1451.48 494.476 1450.55 499.828 1450.55 506.187C1450.55 514.822 1452.41 521.88 1456.13 527.361C1459.86 532.842 1465.03 535.582 1471.65 535.582ZM1560.55 548.147C1554.91 548.147 1549.53 547.5 1544.42 546.208C1539.3 544.863 1534.28 542.821 1529.37 540.081V428.784H1545.73V533.41C1548.16 534.238 1550.67 534.832 1553.26 535.194C1555.84 535.505 1558.27 535.66 1560.55 535.66C1567.58 535.66 1573.11 532.842 1577.15 527.206C1581.18 521.518 1583.19 514.176 1583.19 505.179C1583.19 499.336 1582.39 494.321 1580.79 490.133C1579.24 485.893 1576.96 482.687 1573.97 480.515C1570.97 478.292 1567.37 477.284 1563.18 477.491C1560.6 477.646 1558.32 476.948 1556.36 475.397C1554.45 473.845 1552.69 471.777 1551.09 469.192C1553.88 467.847 1556.8 466.839 1559.85 466.167C1562.9 465.443 1565.64 465.081 1568.07 465.081C1572.52 465.081 1576.68 466.012 1580.56 467.873C1584.49 469.735 1587.95 472.423 1590.95 475.939C1593.95 479.404 1596.3 483.592 1598.01 488.504C1599.71 493.416 1600.57 498.974 1600.57 505.179C1600.57 513.452 1598.89 520.82 1595.53 527.283C1592.22 533.747 1587.56 538.84 1581.57 542.562C1575.57 546.285 1568.56 548.147 1560.55 548.147ZM1620.4 546.363V466.167H1637.15V546.363H1620.4ZM1628.78 453.137C1625.88 453.137 1623.45 452.155 1621.48 450.19C1619.52 448.225 1618.54 445.795 1618.54 442.899C1618.54 439.9 1619.52 437.419 1621.48 435.454C1623.45 433.437 1625.88 432.429 1628.78 432.429C1631.72 432.429 1634.15 433.437 1636.07 435.454C1638.03 437.419 1639.01 439.9 1639.01 442.899C1639.01 445.795 1638.03 448.225 1636.07 450.19C1634.15 452.155 1631.72 453.137 1628.78 453.137ZM1661.92 546.363V428.784H1678.06V546.363H1661.92ZM1701.74 546.363V466.167H1718.5V546.363H1701.74ZM1710.12 453.137C1707.23 453.137 1704.8 452.155 1702.83 450.19C1700.87 448.225 1699.88 445.795 1699.88 442.899C1699.88 439.9 1700.87 437.419 1702.83 435.454C1704.8 433.437 1707.23 432.429 1710.12 432.429C1713.07 432.429 1715.5 433.437 1717.41 435.454C1719.38 437.419 1720.36 439.9 1720.36 442.899C1720.36 445.795 1719.38 448.225 1717.41 450.19C1715.5 452.155 1713.07 453.137 1710.12 453.137ZM1773.75 548.147C1764.91 548.147 1758.13 545.38 1753.43 539.848C1748.72 534.264 1746.37 526.456 1746.37 516.425V478.111H1732.49V469.735L1746.37 466.167V446.079L1761.88 441.116V517.666C1761.88 522.992 1763.02 527.361 1765.3 530.773C1767.57 534.186 1770.57 535.892 1774.29 535.892C1776.21 535.892 1778.09 535.737 1779.95 535.427C1781.87 535.065 1784.17 534.445 1786.86 533.566L1790.58 544.501C1786.65 545.794 1783.47 546.725 1781.04 547.293C1778.66 547.862 1776.23 548.147 1773.75 548.147ZM1781.12 478.111C1778.53 478.111 1776.33 477.568 1774.53 476.482C1772.77 475.345 1771.29 473.871 1770.1 472.061C1768.97 470.2 1768.06 468.235 1767.39 466.167H1789.42V478.111H1781.12ZM1816.73 584.599C1814.66 584.496 1812.44 584.237 1810.06 583.824C1807.73 583.462 1805.46 582.893 1803.24 582.117L1807.27 570.871C1808.98 571.337 1810.6 571.673 1812.16 571.88C1813.76 572.086 1815.28 572.19 1816.73 572.19C1820.61 572.19 1823.74 570.82 1826.12 568.079C1828.55 565.391 1830.64 561.668 1832.4 556.911C1834.21 552.206 1836.17 546.776 1838.29 540.623L1862.1 466.167H1879.09L1850.7 544.656C1848.48 550.448 1846.38 555.773 1844.42 560.634C1842.46 565.494 1840.28 569.708 1837.91 573.276C1835.53 576.843 1832.66 579.61 1829.3 581.574C1825.94 583.539 1821.75 584.548 1816.73 584.599ZM1829.14 544.656L1800.13 466.167H1817.58L1832.94 514.253C1834.13 517.925 1834.7 521.725 1834.65 525.655C1834.6 529.533 1834.05 533.178 1833.02 536.59C1832.04 539.951 1830.74 542.64 1829.14 544.656ZM1967.14 548.069C1960.16 548.069 1953.75 546.518 1947.91 543.416C1942.07 540.262 1937.39 535.582 1933.87 529.377C1930.35 523.173 1928.6 515.443 1928.6 506.187C1928.6 497.139 1930.38 489.512 1933.95 483.307C1937.57 477.103 1942.3 472.423 1948.14 469.269C1953.98 466.064 1960.32 464.461 1967.14 464.461C1969.94 464.461 1973.01 464.719 1976.37 465.236C1979.73 465.753 1982.97 466.607 1986.07 467.796L1982.03 479.042C1979.19 478.318 1976.53 477.801 1974.05 477.491C1971.62 477.129 1969.32 476.948 1967.14 476.948C1963.27 476.948 1959.72 478.034 1956.52 480.205C1953.36 482.325 1950.83 485.557 1948.92 489.9C1947 494.243 1946.05 499.672 1946.05 506.187C1946.05 512.754 1946.98 518.209 1948.84 522.552C1950.75 526.896 1953.29 530.153 1956.44 532.325C1959.65 534.496 1963.21 535.582 1967.14 535.582C1969.42 535.582 1971.9 535.246 1974.59 534.574C1977.28 533.902 1980.35 532.79 1983.82 531.239L1988.08 542.64C1983.95 544.656 1980.04 546.053 1976.37 546.828C1972.75 547.655 1969.68 548.069 1967.14 548.069ZM2033.49 548.069C2026.51 548.069 2020.1 546.466 2014.26 543.26C2008.42 540.003 2003.74 535.272 2000.22 529.067C1996.76 522.811 1995.02 515.184 1995.02 506.187C1995.02 499.052 1996.16 492.873 1998.44 487.651C2000.71 482.377 2003.71 478.034 2007.43 474.621C2011.21 471.208 2015.37 468.675 2019.92 467.02C2024.47 465.314 2028.99 464.461 2033.49 464.461C2041.51 464.461 2048.38 466.296 2054.12 469.967C2059.91 473.639 2064.34 478.628 2067.39 484.936C2070.49 491.244 2072.04 498.328 2072.04 506.187C2072.04 512.857 2070.98 518.804 2068.86 524.026C2066.79 529.196 2063.95 533.591 2060.33 537.211C2056.76 540.779 2052.65 543.493 2048 545.355C2043.39 547.164 2038.56 548.069 2033.49 548.069ZM2033.49 535.582C2038.25 535.582 2042.18 534.264 2045.28 531.627C2048.44 528.938 2050.76 525.37 2052.26 520.924C2053.81 516.425 2054.59 511.513 2054.59 506.187C2054.59 499.828 2053.66 494.476 2051.8 490.133C2049.94 485.789 2047.4 482.506 2044.2 480.283C2041.04 478.059 2037.47 476.948 2033.49 476.948C2029.56 476.948 2026 478.059 2022.79 480.283C2019.64 482.506 2017.1 485.789 2015.19 490.133C2013.33 494.476 2012.4 499.828 2012.4 506.187C2012.4 514.822 2014.26 521.88 2017.98 527.361C2021.7 532.842 2026.87 535.582 2033.49 535.582ZM2191.03 546.363V488.426C2191.03 485.117 2190.28 482.403 2188.78 480.283C2187.34 478.163 2185.04 477.103 2181.88 477.103C2180.74 477.103 2179.63 477.232 2178.55 477.491C2177.51 477.749 2176.3 478.008 2174.9 478.266C2172.06 478.783 2169.42 478.525 2166.99 477.491C2164.56 476.405 2162.36 474.673 2160.4 472.294C2165.98 469.295 2170.71 467.253 2174.59 466.167C2178.52 465.029 2182.01 464.461 2185.06 464.461C2188.99 464.461 2192.69 465.262 2196.15 466.865C2199.62 468.468 2202.41 471.079 2204.53 474.698C2206.65 478.318 2207.71 483.23 2207.71 489.435V546.363H2191.03ZM2091.53 546.363V485.712C2091.53 482.816 2091.34 479.74 2090.98 476.482C2090.67 473.225 2090.08 469.786 2089.2 466.167H2102.23C2104.71 468.959 2106.34 471.725 2107.12 474.466C2107.89 477.206 2108.28 480.128 2108.28 483.23V546.363H2091.53ZM2141.32 546.363V488.426C2141.32 485.117 2140.65 482.403 2139.3 480.283C2137.96 478.163 2135.84 477.103 2132.94 477.103C2131.75 477.103 2130.69 477.206 2129.76 477.413C2128.83 477.62 2127.72 477.853 2126.43 478.111C2123.53 478.628 2120.92 478.37 2118.59 477.335C2116.32 476.25 2114.2 474.518 2112.23 472.139C2117.77 469.14 2122.39 467.124 2126.12 466.089C2129.84 465.004 2133.2 464.461 2136.2 464.461C2140.13 464.461 2143.75 465.262 2147.06 466.865C2150.37 468.468 2153.03 471.079 2155.05 474.698C2157.06 478.318 2158.07 483.23 2158.07 489.435V546.363H2141.32ZM2232.87 583.746V490.753C2232.87 485.479 2232.63 480.8 2232.17 476.715C2231.7 472.63 2231.13 469.114 2230.46 466.167H2242.56C2243.91 467.149 2244.99 468.287 2245.82 469.58C2246.65 470.821 2247.4 472.423 2248.07 474.388L2248.38 477.103L2249.93 474.156C2253.44 470.536 2257.14 468.028 2261.02 466.632C2264.9 465.185 2268.47 464.461 2271.72 464.461C2279.01 464.461 2285.22 466.322 2290.34 470.045C2295.46 473.716 2299.36 478.757 2302.05 485.169C2304.74 491.529 2306.08 498.716 2306.08 506.73C2306.08 512.728 2305.1 518.209 2303.13 523.173C2301.22 528.136 2298.58 532.428 2295.22 536.047C2291.86 539.667 2288.06 542.485 2283.82 544.501C2279.63 546.466 2275.24 547.449 2270.64 547.449C2268.21 547.449 2265.7 547.242 2263.11 546.828C2260.53 546.466 2257.66 545.768 2254.5 544.734C2255.95 541.89 2257.79 539.589 2260.01 537.831C2262.23 536.022 2264.98 535.117 2268.23 535.117C2272.01 535.168 2275.45 534.16 2278.55 532.092C2281.65 529.972 2284.11 526.818 2285.92 522.63C2287.73 518.39 2288.63 513.09 2288.63 506.73C2288.63 501.043 2287.86 495.95 2286.3 491.451C2284.8 486.953 2282.58 483.411 2279.63 480.826C2276.69 478.24 2273.09 476.948 2268.85 476.948C2265.49 476.948 2262.16 477.853 2258.85 479.662C2255.59 481.472 2252.36 484.316 2249.15 488.194V583.746H2232.87ZM2345.95 548.069C2340.67 548.069 2336.12 547.061 2332.3 545.044C2328.47 543.028 2325.52 540.339 2323.45 536.978C2321.44 533.566 2320.43 529.791 2320.43 525.655C2320.43 520.691 2321.77 516.451 2324.46 512.935C2327.15 509.367 2331.6 506.446 2337.8 504.171C2344.06 501.896 2352.54 500.189 2363.24 499.052C2362.98 500.603 2362.49 502.284 2361.77 504.093C2361.04 505.903 2359.91 507.532 2358.35 508.979C2356.86 510.376 2354.81 511.28 2352.23 511.694C2348.25 512.314 2345.17 513.271 2343 514.564C2340.83 515.856 2339.33 517.356 2338.5 519.062C2337.67 520.768 2337.26 522.552 2337.26 524.414C2337.26 527.413 2338.34 530.024 2340.52 532.247C2342.69 534.47 2345.56 535.582 2349.13 535.582C2352.49 535.582 2355.87 534.677 2359.29 532.868C2362.75 531.006 2365.93 528.214 2368.83 524.491V496.958C2368.83 491.063 2367.33 486.281 2364.33 482.609C2361.38 478.887 2356.6 477.025 2349.98 477.025C2347.24 477.025 2344.47 477.31 2341.68 477.878C2338.89 478.447 2335.63 479.404 2331.91 480.748L2327.87 470.045C2332.84 467.873 2337.39 466.426 2341.52 465.702C2345.66 464.926 2349.49 464.538 2353 464.538C2363.19 464.538 2371.07 467.434 2376.66 473.225C2382.29 479.016 2385.11 487.211 2385.11 497.811V521.777C2385.11 527.051 2385.35 531.73 2385.81 535.815C2386.28 539.848 2386.87 543.364 2387.59 546.363H2375.57C2374.18 545.535 2373.04 544.424 2372.16 543.028C2371.33 541.58 2370.61 540.081 2369.99 538.529L2369.76 535.582L2367.97 538.374C2363.84 542.407 2360.06 545.044 2356.65 546.285C2353.29 547.474 2349.72 548.069 2345.95 548.069ZM2458.44 546.363V488.426C2458.44 485.117 2457.72 482.403 2456.27 480.283C2454.82 478.163 2452.58 477.103 2449.53 477.103C2448.34 477.103 2447.28 477.232 2446.35 477.491C2445.41 477.749 2444.25 478.008 2442.86 478.266C2440.01 478.783 2437.4 478.525 2435.02 477.491C2432.69 476.405 2430.55 474.724 2428.58 472.449C2434.01 469.295 2438.59 467.175 2442.31 466.089C2446.09 465.004 2449.47 464.461 2452.47 464.461C2456.45 464.461 2460.18 465.262 2463.64 466.865C2467.11 468.468 2469.87 471.079 2471.94 474.698C2474.06 478.318 2475.12 483.23 2475.12 489.435V546.363H2458.44ZM2407.8 546.363V485.712C2407.8 482.816 2407.62 479.74 2407.26 476.482C2406.89 473.225 2406.27 469.786 2405.39 466.167H2418.42C2420.91 468.959 2422.53 471.725 2423.31 474.466C2424.14 477.206 2424.55 480.128 2424.55 483.23V546.363H2407.8ZM2506.58 584.599C2504.51 584.496 2502.29 584.237 2499.91 583.824C2497.58 583.462 2495.31 582.893 2493.09 582.117L2497.12 570.871C2498.82 571.337 2500.45 571.673 2502 571.88C2503.61 572.086 2505.13 572.19 2506.58 572.19C2510.46 572.19 2513.59 570.82 2515.97 568.079C2518.4 565.391 2520.49 561.668 2522.25 556.911C2524.06 552.206 2526.02 546.776 2528.14 540.623L2551.95 466.167H2568.94L2540.55 544.656C2538.33 550.448 2536.23 555.773 2534.27 560.634C2532.3 565.494 2530.13 569.708 2527.75 573.276C2525.38 576.843 2522.51 579.61 2519.15 581.574C2515.78 583.539 2511.6 584.548 2506.58 584.599ZM2518.99 544.656L2489.98 466.167H2507.43L2522.79 514.253C2523.98 517.925 2524.55 521.725 2524.5 525.655C2524.44 529.533 2523.9 533.178 2522.87 536.59C2521.89 539.951 2520.59 542.64 2518.99 544.656Z" fill="#FF0000"/>
<path d="M2329.52 156.991H2282.18C2281.39 156.991 2280.75 157.632 2280.75 158.422V370.677C2280.75 371.467 2281.39 372.108 2282.18 372.108H2329.52C2330.31 372.108 2330.95 371.467 2330.95 370.677V158.422C2330.95 157.632 2330.31 156.991 2329.52 156.991Z" fill="#FE0000"/>
<path d="M1896.42 377.438C1903.57 387.497 1914.17 392.553 1922.73 388.881C1931.3 385.21 1933.13 386.434 1963.12 363.182C1963.12 363.182 1962.5 372.361 1954.55 386.434C1949.14 396.005 1942.31 412.133 1930.07 418.252C1917.84 424.37 1871.94 421.959 1855.42 395.612C1854.53 394.166 1850.32 389.881 1848.66 390.127C1795.78 397.141 1746.32 378.13 1733.86 323.497C1720.76 266.234 1729.99 187.423 1801.41 174.595C1862.92 163.567 1920.92 182.624 1930.75 251.746C1936.8 294.104 1932.92 346.615 1897.02 373.654C1895.61 374.731 1895.41 375.992 1896.42 377.438ZM1806.03 296.365C1832.3 286.337 1853.75 291.659 1870.4 312.331C1871.97 314.33 1872.93 314.069 1873.3 311.546C1878.06 278.831 1881.15 215.477 1832.51 214.37C1783.56 213.263 1784.66 267.942 1787.8 305.271C1788.05 308.132 1789.17 308.516 1791.17 306.424C1795.51 301.841 1800.46 298.488 1806.03 296.365ZM1841.19 350.537C1832.7 330.511 1818.3 323.959 1798.55 335.171C1796.92 336.094 1796.69 337.294 1797.86 338.77C1807.64 351.29 1821.59 356.105 1839.71 353.213C1841.34 352.967 1841.83 352.075 1841.19 350.537Z" fill="#FE0000"/>
<path d="M2531.33 255.61V324.177C2531.33 326.403 2532.09 328.563 2533.48 330.3C2534.87 332.036 2536.82 333.246 2538.99 333.729C2546.8 335.482 2554.86 333.867 2563.17 328.884C2563.28 328.819 2563.41 328.785 2563.54 328.785C2563.67 328.785 2563.8 328.82 2563.91 328.886C2564.02 328.951 2564.11 329.045 2564.18 329.158C2564.24 329.272 2564.28 329.4 2564.28 329.53L2564.14 370.505C2564.14 370.874 2563.97 371.12 2563.63 371.243C2527.5 385.501 2478.31 377.149 2477.85 328.238C2477.6 305.044 2477.56 280.711 2477.71 255.24C2477.71 253.364 2476.77 252.426 2474.9 252.426L2459.49 252.38C2456.99 252.38 2455.75 251.134 2455.75 248.642L2455.79 218.096C2455.79 215.604 2457.04 214.358 2459.53 214.358H2474.48C2476.57 214.327 2477.64 213.266 2477.67 211.174V173.707C2477.67 173.168 2477.88 172.652 2478.26 172.271C2478.64 171.89 2479.16 171.676 2479.7 171.676H2529.02C2529.63 171.676 2530.22 171.919 2530.65 172.352C2531.09 172.785 2531.33 173.372 2531.33 173.983V211.959C2531.33 213.558 2532.13 214.374 2533.73 214.404C2542.13 214.558 2550.63 214.389 2559.25 213.897C2562.54 213.712 2564.18 215.266 2564.18 218.557V246.75C2564.18 251.703 2561.74 253.779 2556.85 252.979C2550.14 251.872 2542.59 251.718 2534.19 252.518C2532.28 252.672 2531.33 253.702 2531.33 255.61Z" fill="#FE0000"/>
<path d="M2214.27 283.385C2216.12 268.127 2210.23 258.791 2196.6 255.377C2176.91 250.424 2156.95 254.346 2136.71 267.143C2133.17 269.389 2131.4 268.42 2131.4 264.236V230.044C2131.4 226.568 2132.99 224.169 2136.15 222.846C2170.72 208.127 2242.65 203.051 2260.32 243.518C2263.62 251.024 2265.14 259.852 2264.89 270.004C2264.4 293.167 2264.38 315.639 2264.85 337.418C2265.86 382.084 2194.06 379.962 2165.09 375.716C2135.03 371.348 2119.36 354.937 2118.07 326.482C2115.57 272.588 2175.15 267.789 2211.6 284.862C2213.17 285.6 2214.06 285.108 2214.27 283.385ZM2214.41 334.511L2214.6 316.792C2214.61 315.75 2214.42 314.716 2214.03 313.748C2213.64 312.781 2213.07 311.899 2212.34 311.153C2211.61 310.408 2210.74 309.813 2209.78 309.403C2208.82 308.993 2207.79 308.776 2206.75 308.764L2188.9 308.533C2186.21 308.501 2183.55 308.883 2181.06 309.656C2178.57 310.43 2176.3 311.58 2174.38 313.042C2172.47 314.503 2170.94 316.246 2169.89 318.173C2168.84 320.099 2168.29 322.17 2168.27 324.267V325.929C2168.22 330.161 2170.33 334.245 2174.13 337.282C2177.93 340.319 2183.11 342.061 2188.53 342.125L2206.38 342.355C2207.43 342.368 2208.46 342.174 2209.43 341.787C2210.4 341.399 2211.28 340.825 2212.02 340.096C2212.77 339.368 2213.36 338.5 2213.77 337.541C2214.18 336.583 2214.4 335.553 2214.41 334.511Z" fill="#FE0000"/>
<path d="M2018.84 332.334C2037.8 338.24 2054.46 331.134 2054.41 309.124C2054.41 279.408 2054.4 249.108 2054.37 218.223C2054.37 216.562 2055.2 215.732 2056.86 215.732H2099.31C2101.03 215.732 2101.89 216.593 2101.89 218.316C2101.49 246.647 2101.53 276.594 2101.99 308.155C2102.45 337.963 2093.17 361.542 2064.24 370.909C2038.96 379.122 2014.48 378.738 1990.83 369.755C1966.47 360.496 1954.25 341.162 1954.19 311.754C1954.07 279.701 1954.01 248.739 1954.01 218.869C1954.01 216.777 1955.07 215.732 1957.19 215.732H2001.72C2003.78 215.732 2004.81 216.762 2004.81 218.823C2004.87 246.263 2004.84 275.132 2004.72 305.433C2004.67 316.276 2006.75 328.596 2018.84 332.334Z" fill="#FE0000"/>
<path d="M2667.96 310.394C2668.76 312.916 2669.54 312.916 2670.31 310.394L2697.62 220.093C2698.27 218.001 2699.69 216.955 2701.87 216.955H2750.23C2752.23 216.955 2752.87 217.894 2752.17 219.77C2731.95 272.711 2711.58 325.575 2691.03 378.362C2675.8 417.445 2655.89 424.35 2604.19 429.119C2509.59 437.844 2509.56 438.257 2509.59 435.396V437.844C2509.59 434.429 2568.33 410.309 2611.78 395.624C2646.04 382.163 2637.82 390.405 2642.72 373.056C2643.18 371.456 2643.08 369.872 2642.44 368.303L2581.95 219.585C2581.82 219.297 2581.77 218.983 2581.8 218.67C2581.83 218.358 2581.94 218.059 2582.11 217.798C2582.29 217.537 2582.52 217.323 2582.8 217.176C2583.08 217.029 2583.39 216.953 2583.7 216.955H2636.86C2638.39 216.955 2639.38 217.694 2639.81 219.17L2667.96 310.394Z" fill="#FE0000"/>
<path d="M2438.64 219.403H2389.64C2388.98 219.403 2388.44 219.94 2388.44 220.603V371.673C2388.44 372.336 2388.98 372.873 2389.64 372.873H2438.64C2439.31 372.873 2439.84 372.336 2439.84 371.673V220.603C2439.84 219.94 2439.31 219.403 2438.64 219.403Z" fill="#FE0000"/>
<path d="M2426.38 371.149C2411.32 367.046 2329.89 365.678 2330.92 301.395L2281.36 371.761C2308.36 371.761 2285.65 371.761 2344.35 373.164C2403.05 374.568 2426.38 371.149 2426.38 371.149Z" fill="#FE0000"/>
<path d="M2389.11 215.731C2389.11 215.731 2382.1 191.679 2389.11 183.046C2396.12 174.413 2433.08 174.412 2439.45 183.046C2445.83 191.68 2439.45 215.731 2439.45 215.731H2389.11Z" fill="#FE0000"/>
<path d="M1035.5 220.481C1035.27 220.481 1035.04 220.526 1034.83 220.614C1034.61 220.702 1034.42 220.831 1034.26 220.994C1034.09 221.157 1033.96 221.35 1033.88 221.563C1033.79 221.776 1033.74 222.004 1033.74 222.234V381.426C1033.74 381.891 1033.56 382.337 1033.23 382.666C1032.9 382.995 1032.45 383.179 1031.99 383.179L980.264 383.133C979.774 383.133 979.305 382.939 978.959 382.593C978.612 382.246 978.418 381.777 978.418 381.287V223.111C978.418 221.327 977.526 220.434 975.742 220.434L924.523 220.573C923.908 220.573 923.601 220.281 923.601 219.696V178.722C923.601 178.168 923.877 177.891 924.431 177.891C979.587 177.737 1036.73 177.768 1095.85 177.983C1115.54 178.045 1135.79 179.46 1156.62 182.228C1160.25 182.721 1160.28 183.397 1156.71 184.259C1132.9 190.103 1111.29 201.578 1091.88 218.681C1090.61 219.81 1088.95 220.433 1087.22 220.434L1035.5 220.481Z" fill="#FE0000"/>
<path d="M1155.43 267.419V381.16C1155.43 381.427 1155.37 381.691 1155.27 381.937C1155.17 382.183 1155.02 382.407 1154.83 382.596C1154.64 382.784 1154.42 382.934 1154.17 383.036C1153.93 383.138 1153.66 383.19 1153.4 383.19H1105.73C1105.6 383.19 1105.47 383.164 1105.34 383.113C1105.22 383.062 1105.11 382.987 1105.01 382.893C1104.92 382.799 1104.85 382.687 1104.79 382.564C1104.74 382.441 1104.72 382.309 1104.72 382.175L1104.81 247.67C1104.81 246.408 1105.14 245.165 1105.77 244.065C1106.4 242.964 1107.31 242.044 1108.41 241.394C1137.39 224.229 1180.25 214.493 1212.23 228.659C1213.98 229.459 1214.86 230.812 1214.86 232.72V264.835C1214.86 266.557 1214.01 267.265 1212.32 266.957C1194.05 263.512 1175.9 262.758 1157.87 264.696C1156.24 264.881 1155.43 265.788 1155.43 267.419Z" fill="#FE0000"/>
<path d="M1304.14 288.752C1310.97 291.89 1313.4 289.844 1311.43 282.615C1310.76 280.062 1310.07 277.509 1309.36 274.955C1308.46 271.604 1306.69 268.548 1304.23 266.093C1301.76 263.639 1298.7 261.873 1295.33 260.974C1273.89 255.283 1251.76 259.744 1228.93 274.356C1228.83 274.412 1228.72 274.442 1228.61 274.442C1228.5 274.442 1228.39 274.413 1228.29 274.357C1228.19 274.301 1228.11 274.22 1228.05 274.123C1227.99 274.025 1227.96 273.915 1227.96 273.802L1228.05 231.628C1228.05 231.247 1228.17 230.874 1228.38 230.554C1228.59 230.234 1228.9 229.981 1229.25 229.828C1262.78 215.124 1295.73 213.017 1328.09 223.506C1354.72 232.181 1362.61 254.422 1361.45 281.415C1360.93 294.428 1360.95 307.44 1361.5 320.452C1362.02 332.726 1366.71 343.108 1375.57 351.598C1378.77 354.644 1382.43 358.15 1386.55 362.119C1395.84 371.009 1400.49 369.025 1400.49 356.166L1400.44 237.949C1400.44 235.734 1401.49 234.242 1403.58 233.473C1440.53 220.215 1474.13 215.355 1504.4 218.892C1540.02 223.091 1551.88 244.547 1551.33 277.309C1550.81 309.762 1550.78 342.862 1551.24 376.607C1551.24 376.836 1551.19 377.061 1551.1 377.272C1551.01 377.482 1550.88 377.672 1550.72 377.831C1550.56 377.99 1550.36 378.115 1550.15 378.198C1549.94 378.281 1549.71 378.321 1549.48 378.315L1502.56 378.269C1500.96 378.269 1500.16 377.469 1500.16 375.869C1500.28 342.124 1500.3 310.962 1500.2 282.384C1500.11 255.529 1471.78 256.314 1453.51 262.82C1452 263.374 1451.25 264.435 1451.25 266.004L1451.2 376.607C1451.2 377.684 1450.66 378.222 1449.59 378.222C1416.64 378.438 1383.17 378.376 1349.18 378.038C1337.77 377.946 1326.69 378.792 1315.96 380.576C1292.76 384.482 1270.97 383.713 1250.57 378.269C1226.98 371.962 1215.07 355.797 1214.86 329.773C1214.4 279.339 1268.8 272.418 1304.14 288.752ZM1310.93 339.74L1311.11 321.929C1311.12 320.874 1310.93 319.828 1310.54 318.849C1310.14 317.87 1309.56 316.978 1308.83 316.224C1308.09 315.47 1307.21 314.868 1306.24 314.454C1305.27 314.039 1304.23 313.82 1303.17 313.807L1285.78 313.623C1283.05 313.592 1280.35 313.974 1277.82 314.747C1275.3 315.519 1273 316.667 1271.05 318.125C1269.11 319.582 1267.57 321.32 1266.51 323.24C1265.45 325.16 1264.89 327.223 1264.88 329.311V331.434C1264.84 335.636 1266.99 339.686 1270.84 342.696C1274.68 345.706 1279.93 347.431 1285.41 347.492L1302.81 347.676C1303.86 347.688 1304.91 347.493 1305.89 347.1C1306.86 346.708 1307.76 346.127 1308.51 345.39C1309.26 344.653 1309.87 343.775 1310.28 342.805C1310.7 341.836 1310.91 340.794 1310.93 339.74Z" fill="#FE0000"/>
<path d="M1562.31 332.18C1581.32 344.793 1599.67 350.837 1617.35 350.314C1622.55 350.16 1626.58 348.315 1629.44 344.777C1630.19 343.848 1630.72 342.766 1631 341.608C1631.28 340.451 1631.31 339.246 1631.07 338.082C1630.83 336.917 1630.34 335.821 1629.63 334.873C1628.91 333.924 1628 333.146 1626.95 332.596C1618.46 328.074 1608.92 324.951 1598.34 323.229C1572.09 318.983 1558.43 298.588 1560.09 271.318C1561.71 244.094 1582.88 227.344 1609.19 223.238C1633.43 219.485 1655.96 223.345 1676.78 234.819C1677.18 235.035 1677.38 235.373 1677.38 235.835L1677.71 272.887C1677.72 273.068 1677.68 273.247 1677.59 273.404C1677.5 273.561 1677.37 273.689 1677.2 273.776C1677.04 273.862 1676.85 273.902 1676.67 273.892C1676.48 273.882 1676.3 273.821 1676.14 273.718C1660.88 263.566 1646.61 258.352 1633.32 258.075C1624.78 257.891 1613.94 259.137 1613.02 269.842C1612.52 275.317 1615 279.086 1620.44 281.147C1628.78 284.346 1637.26 286.914 1645.87 288.852C1672.91 294.897 1687.26 312.57 1683.11 342.47C1680.09 364.003 1665.65 377.508 1639.78 382.983C1612.71 388.674 1586.91 385.982 1562.4 374.908C1561.54 374.539 1561.11 373.878 1561.11 372.924L1561.06 332.872C1561.06 331.857 1561.47 331.627 1562.31 332.18Z" fill="#FE0000"/>
<path fill-rule="evenodd" clip-rule="evenodd" d="M271.816 419.519V279.041C278.74 281.172 402.529 265.282 463.558 257.071C551.972 242.69 601.594 242.202 615.353 243.756C641.451 241.092 687.922 271.496 707.895 287.031C749.439 325.911 783.793 338.295 795.777 339.626H841.715C853.432 336.431 859.469 344.509 861.022 348.947V386.896C854.631 420.451 821.52 435.053 805.763 438.16H615.353C654.767 407.269 637.102 376.022 623.342 364.26C616.907 357.602 597.91 347.882 573.41 362.262C548.909 376.643 553.437 406.425 558.763 419.519H345.051C361.562 389.692 344.829 372.915 334.399 368.254C326.631 364.482 307.901 360.798 295.118 376.244C282.335 391.69 289.792 411.529 295.118 419.519H271.816ZM423.612 380.238C435.928 384.128 485.694 383.389 508.997 380.479C499.033 380.864 462.831 372.896 423.612 359.599C398.005 350.918 371.113 336.956 349.397 325.681C341.642 321.655 334.547 317.971 328.407 314.993C334.14 319.103 341.421 324.489 349.427 330.411C376.437 350.392 411.696 376.476 423.612 380.238ZM658.583 323.064C652.352 316.75 646.522 310.841 641.318 305.672C702.569 359.999 743.847 378.241 769.812 388.228C792.33 396.888 817.051 395.034 825.65 394.389C826.966 394.29 827.904 394.219 828.399 394.219C806.429 419.519 783.127 415.483 757.162 407.535C735.339 400.854 691.411 356.334 658.583 323.064Z" fill="#FE0000"/>
<path d="M639.987 176.513C692.361 174.959 809.625 202.212 859.691 323.648C863.241 305.228 863.685 255.606 837.054 204.475C810.424 153.344 744.291 126.358 714.553 119.257C697.465 116.15 691.928 119.257 628.003 119.257C517.379 113.622 236.906 81.8819 0 0C24.6802 26.834 96.1482 86.022 184.579 108.103L639.987 176.513Z" fill="#FE0000"/>
<path d="M288.492 240.287L615.353 215.055C509.419 208.704 201.255 168.41 31.6257 89.6333C36.456 105.033 72.5586 145.908 95.4522 168.41C118.346 190.912 217.276 252.07 288.492 240.287Z" fill="#FE0000"/>
</svg>
