<svg width="2700" height="430" viewBox="0 0 2700 430" fill="none" xmlns="http://www.w3.org/2000/svg">
<path d="M2285.13 154H2238.69C2237.91 154 2237.28 154.628 2237.28 155.403V363.614C2237.28 364.389 2237.91 365.017 2238.69 365.017H2285.13C2285.9 365.017 2286.53 364.389 2286.53 363.614V155.403C2286.53 154.628 2285.9 154 2285.13 154Z" fill="#FE0000"/>
<path d="M1860.28 370.245C1867.29 380.113 1877.68 385.072 1886.09 381.471C1894.49 377.87 1896.29 379.07 1925.7 356.262C1925.7 356.262 1925.1 365.265 1917.3 379.07C1911.99 388.459 1905.29 404.279 1893.29 410.281C1881.29 416.283 1836.27 413.919 1820.06 388.073C1819.19 386.655 1815.06 382.451 1813.43 382.693C1761.56 389.573 1713.04 370.924 1700.82 317.333C1687.96 261.161 1697.01 183.852 1767.08 171.268C1827.42 160.451 1884.31 179.144 1893.95 246.949C1899.88 288.5 1896.08 340.01 1860.87 366.534C1859.48 367.59 1859.28 368.827 1860.28 370.245ZM1771.61 290.718C1797.38 280.881 1818.42 286.101 1834.75 306.379C1836.29 308.341 1837.24 308.084 1837.6 305.61C1842.26 273.518 1845.3 211.372 1797.59 210.285C1749.56 209.199 1750.65 262.836 1753.73 299.454C1753.97 302.26 1755.07 302.637 1757.03 300.585C1761.29 296.089 1766.15 292.8 1771.61 290.718ZM1806.1 343.857C1797.77 324.213 1783.65 317.785 1764.28 328.784C1762.68 329.69 1762.45 330.866 1763.6 332.315C1773.19 344.596 1786.88 349.319 1804.65 346.482C1806.25 346.241 1806.73 345.366 1806.1 343.857Z" fill="#FE0000"/>
<path d="M2483.09 250.739V318C2483.09 320.184 2483.83 322.302 2485.2 324.006C2486.56 325.709 2488.47 326.896 2490.6 327.37C2498.26 329.09 2506.17 327.505 2514.32 322.617C2514.43 322.553 2514.55 322.52 2514.68 322.52C2514.81 322.52 2514.94 322.554 2515.05 322.618C2515.16 322.683 2515.25 322.775 2515.31 322.886C2515.37 322.997 2515.41 323.123 2515.4 323.251L2515.27 363.444C2515.27 363.806 2515.1 364.048 2514.77 364.168C2479.33 378.155 2431.08 369.962 2430.63 321.983C2430.39 299.231 2430.34 275.362 2430.49 250.377C2430.49 248.536 2429.57 247.616 2427.73 247.616L2412.61 247.571C2410.17 247.571 2408.95 246.348 2408.95 243.904L2408.99 213.94C2408.99 211.496 2410.21 210.274 2412.66 210.274H2427.32C2429.37 210.243 2430.42 209.202 2430.45 207.151V170.397C2430.45 169.869 2430.66 169.362 2431.03 168.989C2431.4 168.615 2431.91 168.405 2432.44 168.405H2480.82C2481.42 168.405 2482 168.644 2482.42 169.068C2482.85 169.493 2483.09 170.068 2483.09 170.668V207.92C2483.09 209.489 2483.87 210.289 2485.44 210.319C2493.68 210.47 2502.02 210.304 2510.47 209.821C2513.7 209.64 2515.31 211.164 2515.31 214.393V242.048C2515.31 246.907 2512.92 248.944 2508.12 248.159C2501.54 247.073 2494.13 246.922 2485.89 247.706C2484.02 247.857 2483.09 248.868 2483.09 250.739Z" fill="#FE0000"/>
<path d="M2172.07 277.985C2173.88 263.018 2168.11 253.86 2154.74 250.51C2135.43 245.652 2115.84 249.5 2095.99 262.053C2092.52 264.255 2090.78 263.305 2090.78 259.201V225.661C2090.78 222.251 2092.33 219.897 2095.44 218.6C2129.34 204.161 2199.91 199.182 2217.25 238.878C2220.47 246.241 2221.97 254.901 2221.73 264.859C2221.24 287.581 2221.23 309.624 2221.68 330.988C2222.68 374.803 2152.25 372.721 2123.82 368.557C2094.34 364.272 2078.97 348.173 2077.7 320.261C2075.26 267.394 2133.69 262.686 2169.45 279.434C2170.99 280.158 2171.86 279.675 2172.07 277.985ZM2172.21 328.137L2172.39 310.756C2172.4 309.733 2172.21 308.719 2171.83 307.769C2171.45 306.82 2170.89 305.955 2170.17 305.224C2169.46 304.493 2168.61 303.909 2167.67 303.507C2166.73 303.105 2165.72 302.892 2164.7 302.88L2147.18 302.654C2144.54 302.622 2141.93 302.997 2139.49 303.756C2137.05 304.515 2134.82 305.643 2132.94 307.077C2131.06 308.51 2129.57 310.22 2128.54 312.11C2127.51 313.999 2126.97 316.031 2126.95 318.088V319.718C2126.9 323.87 2128.97 327.876 2132.7 330.855C2136.42 333.834 2141.5 335.543 2146.82 335.605L2164.33 335.832C2165.36 335.844 2166.37 335.654 2167.32 335.274C2168.27 334.893 2169.13 334.33 2169.87 333.615C2170.6 332.901 2171.18 332.049 2171.58 331.109C2171.98 330.169 2172.2 329.159 2172.21 328.137Z" fill="#FE0000"/>
<path d="M1980.36 326.001C1998.96 331.795 2015.3 324.824 2015.26 303.234C2015.26 274.084 2015.24 244.361 2015.21 214.065C2015.21 212.436 2016.03 211.621 2017.66 211.621H2059.3C2060.99 211.621 2061.84 212.466 2061.84 214.156C2061.44 241.947 2061.47 271.323 2061.93 302.283C2062.38 331.523 2053.28 354.653 2024.9 363.841C2000.1 371.898 1976.09 371.521 1952.89 362.709C1928.99 353.627 1917.01 334.661 1916.95 305.814C1916.83 274.371 1916.77 243.999 1916.77 214.699C1916.77 212.647 1917.81 211.621 1919.89 211.621H1963.57C1965.59 211.621 1966.6 212.632 1966.6 214.654C1966.66 241.57 1966.63 269.89 1966.51 299.613C1966.47 310.249 1968.5 322.335 1980.36 326.001Z" fill="#FE0000"/>
<path d="M2617.11 304.479C2617.89 306.954 2618.66 306.954 2619.42 304.479L2646.21 215.899C2646.85 213.847 2648.23 212.821 2650.38 212.821H2697.81C2699.77 212.821 2700.41 213.742 2699.71 215.582C2679.89 267.514 2659.9 319.371 2639.74 371.152C2624.8 409.49 2605.27 416.264 2554.55 420.942C2461.76 429.5 2461.73 429.905 2461.76 427.099V429.5C2461.76 426.151 2519.39 402.49 2562 388.085C2595.61 374.88 2587.55 382.966 2592.35 365.947C2592.8 364.378 2592.71 362.824 2592.08 361.285L2532.74 215.401C2532.62 215.118 2532.57 214.81 2532.6 214.504C2532.63 214.198 2532.73 213.904 2532.9 213.648C2533.07 213.392 2533.3 213.183 2533.58 213.038C2533.85 212.894 2534.15 212.82 2534.46 212.821H2586.6C2588.11 212.821 2589.08 213.546 2589.5 214.994L2617.11 304.479Z" fill="#FE0000"/>
<path d="M2392.17 215.222H2344.1C2343.45 215.222 2342.92 215.749 2342.92 216.399V364.591C2342.92 365.241 2343.45 365.768 2344.1 365.768H2392.17C2392.82 365.768 2393.34 365.241 2393.34 364.591V216.399C2393.34 215.749 2392.82 215.222 2392.17 215.222Z" fill="#FE0000"/>
<path d="M2380.14 364.076C2365.37 360.051 2285.48 358.71 2286.5 295.651L2237.88 364.676C2264.37 364.676 2242.08 364.676 2299.67 366.053C2357.25 367.43 2380.14 364.076 2380.14 364.076Z" fill="#FE0000"/>
<path d="M2343.58 211.621C2343.58 211.621 2336.7 188.028 2343.58 179.559C2350.45 171.09 2386.71 171.09 2392.96 179.559C2399.21 188.028 2392.96 211.621 2392.96 211.621H2343.58Z" fill="#FE0000"/>
<path d="M1015.76 216.279C1015.54 216.279 1015.31 216.324 1015.11 216.41C1014.9 216.497 1014.71 216.624 1014.55 216.783C1014.39 216.943 1014.26 217.133 1014.17 217.341C1014.09 217.55 1014.04 217.774 1014.04 217.999V374.157C1014.04 374.614 1013.86 375.051 1013.54 375.374C1013.22 375.696 1012.78 375.877 1012.32 375.877L961.583 375.832C961.103 375.832 960.642 375.641 960.303 375.302C959.963 374.962 959.773 374.502 959.773 374.022V218.859C959.773 217.109 958.898 216.234 957.147 216.234L906.905 216.37C906.302 216.37 906 216.083 906 215.51V175.316C906 174.773 906.272 174.502 906.815 174.502C960.919 174.351 1016.97 174.381 1074.97 174.592C1094.28 174.652 1114.15 176.04 1134.58 178.756C1138.14 179.239 1138.17 179.903 1134.67 180.748C1111.31 186.481 1090.12 197.737 1071.07 214.514C1069.82 215.621 1068.2 216.233 1066.5 216.234L1015.76 216.279Z" fill="#FE0000"/>
<path d="M1133.41 262.323V373.897C1133.41 374.158 1133.36 374.417 1133.26 374.659C1133.16 374.9 1133.01 375.12 1132.83 375.305C1132.64 375.49 1132.42 375.637 1132.18 375.737C1131.94 375.837 1131.68 375.888 1131.42 375.888H1084.66C1084.53 375.888 1084.4 375.863 1084.28 375.813C1084.16 375.762 1084.05 375.689 1083.96 375.597C1083.86 375.504 1083.79 375.394 1083.74 375.274C1083.69 375.153 1083.66 375.023 1083.66 374.893L1083.76 242.95C1083.75 241.713 1084.08 240.494 1084.7 239.414C1085.32 238.334 1086.21 237.431 1087.29 236.795C1115.71 219.957 1157.76 210.406 1189.13 224.302C1190.85 225.086 1191.71 226.414 1191.71 228.285V259.788C1191.71 261.478 1190.88 262.172 1189.22 261.87C1171.29 258.491 1153.49 257.751 1135.81 259.652C1134.21 259.834 1133.41 260.724 1133.41 262.323Z" fill="#FE0000"/>
<path d="M1279.29 283.25C1285.99 286.328 1288.37 284.321 1286.44 277.23C1285.78 274.725 1285.1 272.221 1284.41 269.716C1283.52 266.429 1281.79 263.43 1279.37 261.023C1276.96 258.615 1273.95 256.883 1270.65 256.001C1249.61 250.419 1227.9 254.794 1205.51 269.128C1205.42 269.183 1205.31 269.212 1205.2 269.213C1205.09 269.213 1204.98 269.184 1204.88 269.129C1204.78 269.074 1204.7 268.995 1204.65 268.899C1204.59 268.804 1204.56 268.695 1204.56 268.584L1204.65 227.214C1204.65 226.841 1204.76 226.474 1204.97 226.161C1205.18 225.847 1205.48 225.599 1205.83 225.449C1238.72 211.025 1271.04 208.958 1302.78 219.248C1328.9 227.757 1336.64 249.574 1335.51 276.053C1334.99 288.817 1335.01 301.581 1335.55 314.346C1336.07 326.386 1340.67 336.57 1349.36 344.898C1352.5 347.886 1356.09 351.326 1360.13 355.218C1369.24 363.939 1373.8 361.993 1373.8 349.379L1373.76 233.415C1373.76 231.242 1374.78 229.779 1376.83 229.024C1413.07 216.019 1446.04 211.251 1475.73 214.721C1510.68 218.84 1522.31 239.888 1521.77 272.024C1521.25 303.86 1521.22 336.328 1521.68 369.431C1521.68 369.655 1521.63 369.876 1521.54 370.082C1521.46 370.289 1521.33 370.475 1521.17 370.631C1521.01 370.787 1520.82 370.91 1520.61 370.991C1520.4 371.073 1520.18 371.112 1519.96 371.106L1473.92 371.06C1472.35 371.06 1471.57 370.276 1471.57 368.707C1471.69 335.604 1471.7 305.036 1471.61 277.003C1471.52 250.66 1443.73 251.43 1425.81 257.812C1424.33 258.355 1423.59 259.396 1423.59 260.935L1423.54 369.431C1423.54 370.487 1423.02 371.015 1421.96 371.015C1389.64 371.226 1356.81 371.166 1323.47 370.834C1312.27 370.743 1301.41 371.573 1290.88 373.323C1268.13 377.156 1246.75 376.401 1226.74 371.06C1203.6 364.874 1191.92 349.017 1191.71 323.489C1191.25 274.016 1244.62 267.227 1279.29 283.25ZM1285.94 333.266L1286.13 315.794C1286.14 314.76 1285.95 313.733 1285.56 312.773C1285.18 311.813 1284.61 310.938 1283.88 310.198C1283.16 309.459 1282.3 308.868 1281.35 308.462C1280.4 308.055 1279.37 307.839 1278.34 307.828L1261.28 307.647C1258.6 307.617 1255.95 307.991 1253.47 308.749C1250.99 309.507 1248.74 310.633 1246.83 312.063C1244.93 313.492 1243.41 315.197 1242.37 317.081C1241.33 318.964 1240.79 320.987 1240.77 323.036V325.118C1240.74 329.24 1242.84 333.213 1246.62 336.166C1250.39 339.118 1255.53 340.81 1260.91 340.87L1277.98 341.051C1279.01 341.063 1280.04 340.871 1281 340.486C1281.96 340.101 1282.83 339.531 1283.57 338.808C1284.31 338.085 1284.9 337.224 1285.31 336.273C1285.72 335.322 1285.93 334.3 1285.94 333.266Z" fill="#FE0000"/>
<path d="M1532.53 325.85C1551.18 338.222 1569.18 344.152 1586.53 343.639C1591.63 343.488 1595.58 341.677 1598.39 338.207C1599.12 337.296 1599.65 336.234 1599.92 335.099C1600.2 333.963 1600.22 332.782 1599.99 331.639C1599.75 330.497 1599.27 329.422 1598.57 328.491C1597.87 327.561 1596.98 326.798 1595.95 326.258C1587.62 321.822 1578.26 318.759 1567.88 317.069C1542.13 312.905 1528.73 292.899 1530.36 266.148C1531.94 239.443 1552.72 223.012 1578.52 218.984C1602.3 215.303 1624.4 219.09 1644.83 230.345C1645.22 230.556 1645.42 230.888 1645.42 231.341L1645.74 267.687C1645.75 267.864 1645.71 268.04 1645.62 268.194C1645.53 268.348 1645.4 268.474 1645.24 268.559C1645.08 268.643 1644.9 268.683 1644.71 268.673C1644.53 268.663 1644.35 268.604 1644.2 268.502C1629.23 258.544 1615.23 253.429 1602.19 253.158C1593.82 252.977 1583.18 254.199 1582.28 264.7C1581.79 270.071 1584.22 273.767 1589.56 275.789C1597.74 278.927 1606.05 281.447 1614.5 283.348C1641.03 289.278 1655.1 306.613 1651.03 335.944C1648.07 357.067 1633.91 370.314 1608.53 375.685C1581.97 381.267 1556.67 378.627 1532.62 367.764C1531.78 367.402 1531.36 366.753 1531.36 365.818L1531.31 326.529C1531.31 325.533 1531.72 325.307 1532.53 325.85Z" fill="#FE0000"/>
<path fill-rule="evenodd" clip-rule="evenodd" d="M266.636 411.524V273.723C273.428 275.813 394.858 260.226 454.723 252.172C541.453 238.065 590.129 237.586 603.626 239.11C629.227 236.498 674.812 266.322 694.404 281.56C735.157 319.7 768.856 331.848 780.611 333.154H825.674C837.168 330.019 843.089 337.943 844.613 342.297V379.523C838.343 412.438 805.863 426.762 790.407 429.81H603.626C642.288 399.507 624.96 368.856 611.463 357.318C605.15 350.787 586.515 341.252 562.482 355.359C538.448 369.465 542.889 398.68 548.114 411.524H338.475C354.671 382.266 338.257 365.808 328.026 361.236C320.406 357.536 302.033 353.922 289.494 369.073C276.955 384.225 284.269 403.687 289.494 411.524H266.636ZM415.539 372.992C427.62 376.807 476.438 376.082 499.296 373.228C489.522 373.605 454.01 365.789 415.539 352.746C390.42 344.231 364.04 330.534 342.738 319.474C335.131 315.525 328.171 311.911 322.148 308.99C327.772 313.021 334.914 318.305 342.768 324.115C369.263 343.714 403.85 369.301 415.539 372.992ZM646.032 316.907C639.92 310.713 634.201 304.917 629.096 299.847C689.18 353.138 729.671 371.033 755.141 380.829C777.23 389.324 801.479 387.505 809.915 386.873C811.206 386.776 812.126 386.707 812.612 386.707C791.06 411.524 768.202 407.565 742.732 399.768C721.325 393.215 678.234 349.544 646.032 316.907Z" fill="#FE0000"/>
<path d="M627.79 173.149C679.166 171.625 794.195 198.358 843.307 317.48C846.79 299.411 847.225 250.735 821.102 200.578C794.979 150.422 730.106 123.95 700.935 116.984C684.173 113.936 678.741 116.984 616.034 116.984C507.519 111.457 232.391 80.3214 0 0C24.2098 26.3226 94.3159 84.3826 181.062 106.042L627.79 173.149Z" fill="#FE0000"/>
<path d="M282.994 235.707L603.626 210.957C499.71 204.726 197.419 165.201 31.023 87.9251C35.7613 103.031 71.1758 143.128 93.6331 165.201C116.09 187.274 213.135 247.266 282.994 235.707Z" fill="#FE0000"/>
</svg>
