<svg width="2631" height="408" viewBox="0 0 2631 408" fill="none" xmlns="http://www.w3.org/2000/svg">
<path d="M2219.19 134.104H2173.15C2172.39 134.104 2171.76 134.727 2171.76 135.495V341.897C2171.76 342.665 2172.39 343.288 2173.15 343.288H2219.19C2219.96 343.288 2220.58 342.665 2220.58 341.897V135.495C2220.58 134.727 2219.96 134.104 2219.19 134.104Z" fill="#FE0000"/>
<path d="M1798.03 348.471C1804.99 358.253 1815.29 363.169 1823.62 359.599C1831.95 356.029 1833.73 357.219 1862.89 334.609C1862.89 334.609 1862.29 343.534 1854.56 357.219C1849.3 366.527 1842.66 382.209 1830.76 388.159C1818.86 394.109 1774.23 391.765 1758.17 366.144C1757.3 364.738 1753.21 360.571 1751.59 360.81C1700.17 367.631 1652.07 349.144 1639.96 296.018C1627.21 240.335 1636.19 163.697 1705.65 151.223C1765.46 140.499 1821.86 159.03 1831.42 226.246C1837.29 267.436 1833.53 318.498 1798.62 344.792C1797.24 345.839 1797.05 347.065 1798.03 348.471ZM1710.13 269.635C1735.68 259.883 1756.54 265.058 1772.73 285.16C1774.25 287.104 1775.19 286.85 1775.55 284.397C1780.18 252.584 1783.18 190.978 1735.89 189.901C1688.28 188.824 1689.36 241.995 1692.41 278.295C1692.65 281.077 1693.74 281.451 1695.69 279.416C1699.9 274.959 1704.72 271.699 1710.13 269.635ZM1744.32 322.312C1736.07 302.839 1722.07 296.467 1702.86 307.37C1701.28 308.268 1701.05 309.434 1702.19 310.87C1711.7 323.045 1725.27 327.726 1742.89 324.915C1744.47 324.675 1744.95 323.808 1744.32 322.312Z" fill="#FE0000"/>
<path d="M2415.43 230.003V296.68C2415.43 298.844 2416.17 300.944 2417.52 302.633C2418.88 304.322 2420.77 305.498 2422.88 305.968C2430.48 307.673 2438.31 306.102 2446.39 301.256C2446.5 301.193 2446.63 301.16 2446.75 301.16C2446.88 301.161 2447 301.194 2447.11 301.258C2447.22 301.322 2447.31 301.413 2447.37 301.523C2447.44 301.633 2447.47 301.758 2447.47 301.885L2447.33 341.729C2447.33 342.088 2447.17 342.327 2446.84 342.447C2411.71 356.312 2363.88 348.19 2363.43 300.628C2363.19 278.074 2363.14 254.412 2363.29 229.644C2363.29 227.819 2362.38 226.907 2360.56 226.907L2345.57 226.862C2343.15 226.862 2341.93 225.651 2341.93 223.228L2341.98 193.524C2341.98 191.101 2343.19 189.889 2345.61 189.889H2360.15C2362.19 189.859 2363.22 188.827 2363.25 186.793V150.359C2363.25 149.835 2363.46 149.333 2363.83 148.963C2364.2 148.593 2364.7 148.385 2365.22 148.385H2413.19C2413.78 148.385 2414.35 148.621 2414.77 149.042C2415.19 149.462 2415.43 150.033 2415.43 150.628V187.556C2415.43 189.112 2416.21 189.904 2417.76 189.934C2425.93 190.084 2434.2 189.919 2442.58 189.441C2445.78 189.261 2447.38 190.772 2447.38 193.972V221.388C2447.38 226.204 2445 228.223 2440.24 227.445C2433.72 226.369 2426.38 226.219 2418.21 226.997C2416.36 227.146 2415.43 228.148 2415.43 230.003Z" fill="#FE0000"/>
<path d="M2107.12 257.013C2108.91 242.176 2103.19 233.097 2089.93 229.776C2070.79 224.96 2051.38 228.774 2031.69 241.218C2028.25 243.402 2026.53 242.46 2026.53 238.392V205.143C2026.53 201.763 2028.07 199.429 2031.16 198.143C2064.76 183.83 2134.72 178.894 2151.9 218.245C2155.1 225.544 2156.58 234.129 2156.34 244C2155.86 266.525 2155.85 288.377 2156.3 309.555C2157.28 352.989 2087.47 350.925 2059.29 346.797C2030.06 342.55 2014.82 326.591 2013.57 298.921C2011.14 246.513 2069.07 241.847 2104.52 258.448C2106.04 259.166 2106.91 258.688 2107.12 257.013ZM2107.25 306.728L2107.43 289.498C2107.45 288.485 2107.26 287.479 2106.88 286.538C2106.5 285.597 2105.95 284.74 2105.24 284.015C2104.53 283.29 2103.68 282.711 2102.75 282.313C2101.82 281.914 2100.82 281.703 2099.81 281.691L2082.44 281.467C2079.83 281.436 2077.24 281.807 2074.82 282.559C2072.4 283.312 2070.19 284.43 2068.33 285.851C2066.47 287.272 2064.98 288.968 2063.96 290.841C2062.94 292.714 2062.41 294.728 2062.38 296.767V298.383C2062.34 302.498 2064.39 306.469 2068.08 309.423C2071.78 312.376 2076.81 314.07 2082.08 314.132L2099.45 314.356C2100.46 314.368 2101.47 314.18 2102.41 313.803C2103.35 313.426 2104.21 312.868 2104.93 312.16C2105.66 311.451 2106.23 310.607 2106.63 309.675C2107.03 308.743 2107.24 307.742 2107.25 306.728Z" fill="#FE0000"/>
<path d="M1917.07 304.611C1935.52 310.355 1951.71 303.445 1951.67 282.042C1951.67 253.145 1951.65 223.681 1951.62 193.648C1951.62 192.032 1952.43 191.225 1954.05 191.225H1995.33C1997 191.225 1997.84 192.062 1997.84 193.738C1997.45 221.288 1997.48 250.408 1997.93 281.099C1998.38 310.085 1989.36 333.014 1961.23 342.122C1936.64 350.109 1912.84 349.735 1889.84 341.001C1866.15 331.997 1854.27 313.196 1854.21 284.599C1854.09 253.43 1854.03 223.322 1854.03 194.276C1854.03 192.242 1855.06 191.225 1857.13 191.225H1900.43C1902.43 191.225 1903.43 192.227 1903.43 194.231C1903.49 220.914 1903.46 248.987 1903.34 278.452C1903.3 288.996 1905.32 300.977 1917.07 304.611Z" fill="#FE0000"/>
<path d="M2548.29 283.277C2549.07 285.729 2549.83 285.729 2550.58 283.277L2577.14 195.466C2577.77 193.432 2579.14 192.415 2581.27 192.415H2628.29C2630.24 192.415 2630.86 193.327 2630.18 195.152C2610.52 246.633 2590.71 298.039 2570.72 349.37C2555.92 387.375 2536.55 394.09 2486.28 398.727C2394.29 407.211 2394.26 407.613 2394.29 404.831V407.211C2394.29 403.891 2451.41 380.436 2493.66 366.156C2526.98 353.066 2518.99 361.081 2523.75 344.21C2524.19 342.654 2524.1 341.114 2523.48 339.588L2464.65 194.972C2464.53 194.692 2464.48 194.386 2464.51 194.083C2464.54 193.779 2464.65 193.488 2464.81 193.234C2464.98 192.98 2465.21 192.773 2465.48 192.63C2465.75 192.487 2466.05 192.413 2466.36 192.415H2518.05C2519.54 192.415 2520.5 193.133 2520.92 194.569L2548.29 283.277Z" fill="#FE0000"/>
<path d="M2325.3 194.795H2277.65C2277.01 194.795 2276.48 195.317 2276.48 195.961V342.866C2276.48 343.51 2277.01 344.032 2277.65 344.032H2325.3C2325.95 344.032 2326.47 343.51 2326.47 342.866V195.961C2326.47 195.317 2325.95 194.795 2325.3 194.795Z" fill="#FE0000"/>
<path d="M2313.37 342.356C2298.73 338.366 2219.54 337.036 2220.55 274.525L2172.36 342.951C2198.61 342.951 2176.52 342.951 2233.61 344.316C2290.69 345.681 2313.37 342.356 2313.37 342.356Z" fill="#FE0000"/>
<path d="M2277.13 191.225C2277.13 191.225 2270.32 167.837 2277.13 159.441C2283.95 151.046 2319.89 151.046 2326.09 159.441C2332.29 167.837 2326.09 191.225 2326.09 191.225H2277.13Z" fill="#FE0000"/>
<path d="M960.855 195.843C960.631 195.843 960.409 195.887 960.202 195.973C959.995 196.059 959.807 196.184 959.649 196.343C959.491 196.501 959.365 196.689 959.279 196.896C959.194 197.103 959.149 197.324 959.149 197.548V352.35C959.149 352.802 958.97 353.235 958.65 353.555C958.33 353.875 957.897 354.055 957.444 354.055L907.145 354.01C906.669 354.01 906.213 353.821 905.876 353.484C905.54 353.147 905.35 352.691 905.35 352.215V198.401C905.35 196.666 904.483 195.798 902.748 195.798L852.942 195.933C852.344 195.933 852.045 195.649 852.045 195.08V155.236C852.045 154.697 852.314 154.428 852.853 154.428C906.487 154.279 962.051 154.309 1019.54 154.518C1038.69 154.578 1058.39 155.954 1078.64 158.646C1082.17 159.125 1082.2 159.783 1078.73 160.62C1055.57 166.304 1034.56 177.461 1015.69 194.093C1014.44 195.191 1012.83 195.797 1011.15 195.798L960.855 195.843Z" fill="#FE0000"/>
<path d="M1077.48 241.487V352.091C1077.48 352.35 1077.43 352.607 1077.33 352.847C1077.23 353.086 1077.08 353.304 1076.9 353.487C1076.72 353.67 1076.5 353.816 1076.26 353.915C1076.02 354.014 1075.76 354.065 1075.5 354.065H1029.15C1029.02 354.065 1028.9 354.04 1028.78 353.99C1028.66 353.941 1028.55 353.868 1028.46 353.776C1028.36 353.685 1028.29 353.576 1028.24 353.456C1028.19 353.336 1028.17 353.208 1028.17 353.078L1028.26 222.282C1028.25 221.055 1028.58 219.847 1029.19 218.777C1029.8 217.706 1030.69 216.811 1031.76 216.18C1059.93 199.488 1101.62 190.021 1132.71 203.796C1134.42 204.574 1135.27 205.89 1135.27 207.744V238.974C1135.27 240.649 1134.45 241.337 1132.8 241.038C1115.03 237.688 1097.39 236.955 1079.86 238.839C1078.27 239.019 1077.48 239.901 1077.48 241.487Z" fill="#FE0000"/>
<path d="M1222.09 262.232C1228.73 265.283 1231.1 263.294 1229.18 256.264C1228.52 253.781 1227.85 251.298 1227.16 248.816C1226.29 245.557 1224.57 242.584 1222.17 240.198C1219.78 237.811 1216.8 236.094 1213.52 235.22C1192.67 229.686 1171.15 234.023 1148.95 248.232C1148.86 248.287 1148.75 248.316 1148.64 248.316C1148.53 248.317 1148.42 248.288 1148.33 248.234C1148.23 248.179 1148.15 248.101 1148.1 248.006C1148.04 247.911 1148.01 247.804 1148.01 247.694L1148.1 206.683C1148.1 206.313 1148.21 205.95 1148.42 205.638C1148.63 205.327 1148.92 205.082 1149.27 204.933C1181.87 190.634 1213.91 188.585 1245.38 198.786C1271.27 207.221 1278.94 228.848 1277.82 255.097C1277.31 267.751 1277.33 280.404 1277.87 293.057C1278.37 304.993 1282.94 315.088 1291.55 323.345C1294.66 326.306 1298.22 329.716 1302.23 333.575C1311.26 342.22 1315.78 340.29 1315.78 327.787L1315.74 212.83C1315.74 210.676 1316.75 209.225 1318.79 208.477C1354.71 195.585 1387.39 190.859 1416.83 194.299C1451.47 198.382 1463 219.246 1462.46 251.104C1461.95 282.662 1461.92 314.849 1462.37 347.664C1462.37 347.886 1462.33 348.105 1462.24 348.31C1462.15 348.514 1462.03 348.699 1461.87 348.854C1461.71 349.009 1461.52 349.13 1461.32 349.211C1461.11 349.292 1460.89 349.33 1460.67 349.324L1415.03 349.279C1413.48 349.279 1412.7 348.502 1412.7 346.946C1412.82 314.131 1412.83 283.829 1412.75 256.04C1412.66 229.925 1385.11 230.688 1367.34 237.015C1365.87 237.553 1365.14 238.585 1365.14 240.111L1365.09 347.664C1365.09 348.711 1364.57 349.234 1363.52 349.234C1331.49 349.444 1298.94 349.384 1265.89 349.055C1254.79 348.965 1244.02 349.788 1233.58 351.523C1211.02 355.322 1189.83 354.574 1170 349.279C1147.06 343.147 1135.48 327.428 1135.27 302.121C1134.82 253.078 1187.72 246.348 1222.09 262.232ZM1228.69 311.813L1228.87 294.493C1228.88 293.468 1228.69 292.45 1228.31 291.498C1227.93 290.547 1227.36 289.679 1226.64 288.946C1225.93 288.213 1225.07 287.628 1224.13 287.225C1223.19 286.821 1222.18 286.608 1221.15 286.596L1204.23 286.417C1201.58 286.387 1198.95 286.758 1196.5 287.51C1194.04 288.261 1191.8 289.377 1189.91 290.794C1188.03 292.211 1186.52 293.902 1185.49 295.768C1184.46 297.635 1183.92 299.641 1183.91 301.672V303.736C1183.88 307.822 1185.96 311.761 1189.7 314.688C1193.45 317.615 1198.54 319.292 1203.88 319.351L1220.79 319.531C1221.82 319.542 1222.83 319.352 1223.79 318.971C1224.74 318.589 1225.61 318.024 1226.34 317.307C1227.07 316.591 1227.66 315.737 1228.06 314.794C1228.46 313.851 1228.68 312.838 1228.69 311.813Z" fill="#FE0000"/>
<path d="M1473.13 304.462C1491.62 316.727 1509.46 322.605 1526.66 322.096C1531.72 321.946 1535.64 320.152 1538.42 316.712C1539.15 315.808 1539.66 314.756 1539.94 313.63C1540.21 312.504 1540.23 311.333 1540 310.201C1539.77 309.068 1539.29 308.003 1538.6 307.08C1537.91 306.158 1537.02 305.402 1536 304.866C1527.74 300.469 1518.47 297.432 1508.18 295.757C1482.65 291.629 1469.36 271.797 1470.98 245.279C1472.55 218.805 1493.15 202.518 1518.72 198.524C1542.29 194.875 1564.2 198.629 1584.46 209.786C1584.85 209.996 1585.04 210.325 1585.04 210.774L1585.35 246.804C1585.36 246.98 1585.32 247.154 1585.24 247.307C1585.15 247.459 1585.02 247.584 1584.86 247.668C1584.7 247.752 1584.52 247.791 1584.34 247.781C1584.16 247.771 1583.98 247.713 1583.83 247.612C1568.99 237.74 1555.11 232.67 1542.19 232.401C1533.89 232.221 1523.34 233.433 1522.45 243.843C1521.97 249.167 1524.38 252.832 1529.67 254.836C1537.78 257.947 1546.02 260.445 1554.39 262.329C1580.69 268.207 1594.64 285.392 1590.6 314.468C1587.67 335.407 1573.63 348.539 1548.47 353.864C1522.15 359.398 1497.06 356.78 1473.22 346.012C1472.39 345.653 1471.97 345.01 1471.97 344.082L1471.92 305.135C1471.92 304.148 1472.33 303.924 1473.13 304.462Z" fill="#FE0000"/>
<path fill-rule="evenodd" clip-rule="evenodd" d="M64.0797 385.233V219.041C72.2711 221.562 218.719 202.764 290.919 193.05C395.517 176.037 454.222 175.459 470.5 177.297C501.375 174.146 556.352 210.115 579.981 228.493C629.13 274.491 669.772 289.141 683.949 290.716H738.296C752.158 286.936 759.3 296.492 761.138 301.743V346.638C753.576 386.335 714.404 403.611 695.764 407.286H470.5C517.128 370.74 496.229 333.774 479.951 319.859C472.338 311.983 449.864 300.483 420.879 317.496C391.894 334.509 397.25 369.742 403.551 385.233H150.72C170.253 349.947 150.457 330.098 138.117 324.585C128.928 320.121 106.77 315.763 91.6469 334.036C76.5243 352.309 85.3458 375.781 91.6469 385.233H64.0797ZM243.661 338.762C258.232 343.364 317.108 342.489 344.675 339.047C332.887 339.502 290.059 330.076 243.661 314.345C213.367 304.075 181.552 287.557 155.861 274.218C146.687 269.455 138.293 265.097 131.029 261.574C137.812 266.436 146.426 272.808 155.897 279.815C187.851 303.453 229.564 334.311 243.661 338.762ZM521.643 271.122C514.272 263.652 507.374 256.661 501.218 250.547C573.68 314.818 622.514 336.399 653.231 348.214C679.871 358.46 709.117 356.266 719.29 355.503C720.847 355.386 721.958 355.303 722.543 355.303C696.551 385.233 668.984 380.459 638.266 371.055C612.448 363.152 560.48 310.483 521.643 271.122Z" fill="#FE0000"/>
<path d="M499.642 97.7457L66.4425 169.421C62.0317 133.504 89.809 106.672 104.249 97.7457C217.406 78.8425 452.069 38.8306 485.465 30.009C518.861 21.1875 567.641 26.3334 587.857 30.009C623.039 38.4105 701.277 70.336 732.782 130.826C764.288 191.317 763.763 250.022 759.562 271.813C700.332 128.148 561.603 95.9079 499.642 97.7457Z" fill="#FE0000"/>
<path d="M0.880673 111.187C0.618174 83.8867 18.045 26.1424 89.8454 13.5264C85.3661 14.2581 -10.1129 13.0293 0.880673 111.187Z" fill="#FE0000"/>
<path d="M89.8835 66.2913C48.9264 77.6333 37.1119 125.627 36.3243 148.205C19.3114 91.4957 57.5905 56.3146 78.8567 45.8128C148.956 31.3728 292.621 2.17778 306.483 0.917563C320.346 -0.342654 326.962 11.4194 328.537 17.4579C266.051 29.0099 130.841 54.9494 89.8835 66.2913Z" fill="#FE0000"/>
</svg>
