<svg width="1874" height="476" viewBox="0 0 1874 476" fill="none" xmlns="http://www.w3.org/2000/svg">
<path d="M1462.35 202.301H1416.31C1415.54 202.301 1414.92 202.924 1414.92 203.692V410.094C1414.92 410.862 1415.54 411.485 1416.31 411.485H1462.35C1463.11 411.485 1463.74 410.862 1463.74 410.094V203.692C1463.74 202.924 1463.11 202.301 1462.35 202.301Z" fill="#FE0000"/>
<path d="M1041.19 416.668C1048.14 426.449 1058.44 431.366 1066.77 427.796C1075.1 424.226 1076.89 425.416 1106.04 402.806C1106.04 402.806 1105.45 411.731 1097.71 425.416C1092.45 434.723 1085.81 450.406 1073.91 456.356C1062.01 462.306 1017.39 459.961 1001.32 434.341C1000.45 432.935 996.363 428.768 994.748 429.007C943.327 435.827 895.226 417.341 883.111 364.215C870.368 308.531 879.342 231.893 948.801 219.419C1008.61 208.696 1065.01 227.227 1074.57 294.442C1080.45 335.633 1076.68 386.695 1041.77 412.988C1040.4 414.035 1040.2 415.262 1041.19 416.668ZM953.288 337.831C978.834 328.08 999.698 333.255 1015.88 353.356C1017.41 355.301 1018.35 355.046 1018.71 352.594C1023.33 320.781 1026.34 259.174 979.043 258.097C931.436 257.021 932.513 310.191 935.564 346.491C935.803 349.273 936.895 349.647 938.84 347.613C943.057 343.156 947.873 339.895 953.288 337.831ZM987.479 390.509C979.223 371.035 965.223 364.664 946.019 375.567C944.433 376.464 944.209 377.631 945.346 379.067C954.858 391.241 968.424 395.923 986.043 393.111C987.628 392.872 988.107 392.004 987.479 390.509Z" fill="#FE0000"/>
<path d="M1658.59 298.2V364.876C1658.59 367.041 1659.32 369.141 1660.68 370.83C1662.03 372.518 1663.92 373.695 1666.03 374.164C1673.63 375.869 1681.47 374.299 1689.55 369.453C1689.66 369.39 1689.78 369.357 1689.91 369.357C1690.03 369.357 1690.16 369.391 1690.27 369.455C1690.38 369.518 1690.47 369.61 1690.53 369.72C1690.59 369.83 1690.62 369.955 1690.62 370.081L1690.49 409.926C1690.49 410.285 1690.32 410.524 1689.99 410.644C1654.86 424.508 1607.03 416.387 1606.58 368.825C1606.34 346.27 1606.3 322.609 1606.45 297.841C1606.45 296.016 1605.53 295.104 1603.71 295.104L1588.72 295.059C1586.3 295.059 1585.09 293.847 1585.09 291.424L1585.13 261.72C1585.13 259.297 1586.34 258.086 1588.77 258.086H1603.31C1605.34 258.056 1606.37 257.024 1606.4 254.99V218.555C1606.4 218.032 1606.61 217.53 1606.98 217.159C1607.35 216.789 1607.85 216.581 1608.38 216.581H1656.34C1656.94 216.581 1657.51 216.817 1657.93 217.238C1658.35 217.659 1658.59 218.23 1658.59 218.825V255.753C1658.59 257.308 1659.36 258.101 1660.92 258.131C1669.09 258.28 1677.36 258.116 1685.73 257.637C1688.93 257.458 1690.53 258.968 1690.53 262.169V289.585C1690.53 294.401 1688.15 296.42 1683.4 295.642C1676.88 294.565 1669.53 294.416 1661.37 295.193C1659.51 295.343 1658.59 296.345 1658.59 298.2Z" fill="#FE0000"/>
<path d="M1350.27 325.209C1352.07 310.372 1346.34 301.293 1333.09 297.973C1313.94 293.157 1294.53 296.971 1274.85 309.415C1271.41 311.599 1269.69 310.656 1269.69 306.588V273.339C1269.69 269.959 1271.23 267.626 1274.31 266.34C1307.92 252.026 1377.87 247.09 1395.05 286.441C1398.26 293.74 1399.74 302.325 1399.5 312.197C1399.02 334.722 1399 356.573 1399.45 377.752C1400.44 421.186 1330.62 419.122 1302.44 414.994C1273.22 410.746 1257.98 394.787 1256.72 367.118C1254.3 314.71 1312.22 310.043 1347.67 326.645C1349.2 327.363 1350.06 326.884 1350.27 325.209ZM1350.41 374.925L1350.59 357.695C1350.6 356.681 1350.41 355.675 1350.04 354.735C1349.66 353.794 1349.1 352.936 1348.39 352.211C1347.68 351.486 1346.84 350.908 1345.91 350.509C1344.98 350.111 1343.97 349.899 1342.96 349.888L1325.6 349.663C1322.98 349.632 1320.39 350.003 1317.97 350.756C1315.55 351.508 1313.35 352.627 1311.48 354.048C1309.62 355.469 1308.14 357.164 1307.12 359.037C1306.1 360.91 1305.56 362.924 1305.54 364.964V366.579C1305.49 370.695 1307.54 374.666 1311.24 377.619C1314.93 380.573 1319.97 382.267 1325.24 382.329L1342.6 382.553C1343.61 382.565 1344.62 382.377 1345.56 382C1346.5 381.623 1347.36 381.064 1348.09 380.356C1348.81 379.648 1349.39 378.804 1349.79 377.872C1350.19 376.94 1350.4 375.938 1350.41 374.925Z" fill="#FE0000"/>
<path d="M1160.23 372.808C1178.67 378.551 1194.87 371.641 1194.82 350.238C1194.82 321.342 1194.81 291.877 1194.78 261.844C1194.78 260.229 1195.59 259.421 1197.2 259.421H1238.48C1240.16 259.421 1240.99 260.259 1240.99 261.934C1240.61 289.484 1240.64 318.605 1241.08 349.296C1241.53 378.282 1232.51 401.21 1204.38 410.319C1179.79 418.306 1156 417.932 1132.99 409.197C1109.3 400.193 1097.43 381.393 1097.37 352.796C1097.25 321.626 1097.19 291.518 1097.19 262.473C1097.19 260.438 1098.22 259.421 1100.28 259.421H1143.58C1145.59 259.421 1146.59 260.423 1146.59 262.428C1146.65 289.11 1146.62 317.184 1146.5 346.649C1146.45 357.193 1148.47 369.173 1160.23 372.808Z" fill="#FE0000"/>
<path d="M1791.44 351.473C1792.22 353.926 1792.98 353.926 1793.73 351.473L1820.29 263.663C1820.92 261.628 1822.3 260.611 1824.42 260.611H1871.45C1873.39 260.611 1874.02 261.524 1873.33 263.348C1853.68 314.829 1833.86 366.235 1813.88 417.566C1799.07 455.571 1779.71 462.287 1729.43 466.923C1637.45 475.408 1637.42 475.809 1637.45 473.028V475.408C1637.45 472.087 1694.57 448.632 1736.81 434.352C1770.13 421.262 1762.14 429.278 1766.9 412.406C1767.35 410.851 1767.26 409.31 1766.63 407.785L1707.81 263.169C1707.69 262.888 1707.64 262.583 1707.67 262.279C1707.7 261.976 1707.8 261.684 1707.97 261.431C1708.14 261.177 1708.37 260.969 1708.64 260.826C1708.91 260.683 1709.21 260.61 1709.51 260.611H1761.2C1762.7 260.611 1763.65 261.329 1764.07 262.765L1791.44 351.473Z" fill="#FE0000"/>
<path d="M1568.46 262.991H1520.8C1520.16 262.991 1519.64 263.514 1519.64 264.158V411.062C1519.64 411.707 1520.16 412.229 1520.8 412.229H1568.46C1569.1 412.229 1569.62 411.707 1569.62 411.062V264.158C1569.62 263.514 1569.1 262.991 1568.46 262.991Z" fill="#FE0000"/>
<path d="M1556.53 410.552C1541.89 406.562 1462.7 405.232 1463.71 342.722L1415.51 411.147C1441.76 411.147 1419.68 411.147 1476.76 412.512C1533.85 413.877 1556.53 410.552 1556.53 410.552Z" fill="#FE0000"/>
<path d="M1520.29 259.421C1520.29 259.421 1513.47 236.033 1520.29 227.638C1527.1 219.242 1563.05 219.242 1569.24 227.638C1575.44 236.033 1569.24 259.421 1569.24 259.421H1520.29Z" fill="#FE0000"/>
<path d="M960.855 41.5084C960.631 41.5084 960.409 41.5525 960.202 41.6382C959.995 41.7239 959.807 41.8495 959.649 42.0078C959.491 42.1662 959.365 42.3541 959.279 42.561C959.194 42.7679 959.149 42.9896 959.149 43.2135V198.015C959.149 198.467 958.97 198.901 958.65 199.22C958.33 199.54 957.897 199.72 957.444 199.72L907.145 199.675C906.669 199.675 906.213 199.486 905.876 199.149C905.54 198.813 905.35 198.356 905.35 197.88V44.066C905.35 42.3311 904.483 41.4636 902.748 41.4636L852.942 41.5982C852.344 41.5982 852.045 41.314 852.045 40.7457V0.901136C852.045 0.362697 852.314 0.0934799 852.853 0.0934799C906.487 -0.0560866 962.051 -0.0261755 1019.54 0.183218C1038.69 0.243044 1058.39 1.61906 1078.64 4.31125C1082.17 4.78987 1082.2 5.44796 1078.73 6.28553C1055.57 11.9691 1034.56 23.1267 1015.69 39.7585C1014.44 40.856 1012.83 41.4624 1011.15 41.4636L960.855 41.5084Z" fill="#FE0000"/>
<path d="M1077.48 87.152V197.756C1077.48 198.016 1077.43 198.272 1077.33 198.512C1077.23 198.751 1077.08 198.969 1076.9 199.152C1076.72 199.336 1076.5 199.481 1076.26 199.58C1076.02 199.68 1075.76 199.731 1075.5 199.731H1029.15C1029.02 199.731 1028.9 199.705 1028.78 199.656C1028.66 199.606 1028.55 199.533 1028.46 199.442C1028.36 199.35 1028.29 199.241 1028.24 199.121C1028.19 199.002 1028.17 198.873 1028.17 198.744L1028.26 67.9476C1028.25 66.7206 1028.58 65.5122 1029.19 64.442C1029.8 63.3718 1030.69 62.4767 1031.76 61.8453C1059.93 45.1537 1101.62 35.6861 1132.71 49.4612C1134.42 50.2389 1135.27 51.5551 1135.27 53.4098V84.6392C1135.27 86.3144 1134.45 87.0024 1132.8 86.7033C1115.03 83.353 1097.39 82.6201 1079.86 84.5046C1078.27 84.6841 1077.48 85.5666 1077.48 87.152Z" fill="#FE0000"/>
<path d="M1222.09 107.897C1228.73 110.948 1231.1 108.959 1229.18 101.929C1228.52 99.4464 1227.85 96.9636 1227.16 94.4808C1226.29 91.2219 1224.57 88.2497 1222.17 85.863C1219.78 83.4763 1216.8 81.7595 1213.52 80.8852C1192.67 75.3513 1171.15 79.6887 1148.95 93.8975C1148.86 93.9524 1148.75 93.9814 1148.64 93.9817C1148.53 93.9819 1148.42 93.9534 1148.33 93.8989C1148.23 93.8444 1148.15 93.7659 1148.1 93.6712C1148.04 93.5765 1148.01 93.4689 1148.01 93.3591L1148.1 52.3479C1148.1 51.978 1148.21 51.6149 1148.42 51.3038C1148.63 50.9926 1148.92 50.7472 1149.27 50.598C1181.87 36.2994 1213.91 34.2504 1245.38 44.4508C1271.27 52.8864 1278.94 74.5137 1277.82 100.763C1277.31 113.416 1277.33 126.069 1277.87 138.723C1278.37 150.658 1282.94 160.754 1291.55 169.01C1294.66 171.971 1298.22 175.381 1302.23 179.24C1311.26 187.885 1315.78 185.956 1315.78 173.452L1315.74 58.4951C1315.74 56.3413 1316.75 54.8906 1318.79 54.1427C1354.71 41.2501 1387.39 36.5238 1416.83 39.9638C1451.47 44.047 1463 64.9115 1462.46 96.7692C1461.95 128.328 1461.92 160.514 1462.37 193.329C1462.37 193.551 1462.33 193.771 1462.24 193.975C1462.15 194.18 1462.03 194.365 1461.87 194.519C1461.71 194.674 1461.52 194.795 1461.32 194.876C1461.11 194.957 1460.89 194.996 1460.67 194.99L1415.03 194.945C1413.48 194.945 1412.7 194.167 1412.7 192.611C1412.82 159.796 1412.83 129.494 1412.75 101.705C1412.66 75.5906 1385.11 76.3534 1367.34 82.68C1365.87 83.2185 1365.14 84.2505 1365.14 85.776L1365.09 193.329C1365.09 194.376 1364.57 194.9 1363.52 194.9C1331.49 195.109 1298.94 195.049 1265.89 194.72C1254.79 194.631 1244.02 195.453 1233.58 197.188C1211.02 200.987 1189.83 200.239 1170 194.945C1147.06 188.812 1135.48 173.093 1135.27 147.786C1134.82 98.7435 1187.72 92.013 1222.09 107.897ZM1228.69 157.478L1228.87 140.158C1228.88 139.133 1228.69 138.116 1228.31 137.164C1227.93 136.212 1227.36 135.345 1226.64 134.611C1225.93 133.878 1225.07 133.293 1224.13 132.89C1223.19 132.487 1222.18 132.273 1221.15 132.261L1204.23 132.082C1201.58 132.052 1198.95 132.424 1196.5 133.175C1194.04 133.926 1191.8 135.042 1189.91 136.459C1188.03 137.877 1186.52 139.567 1185.49 141.434C1184.46 143.3 1183.92 145.307 1183.91 147.338V149.402C1183.88 153.488 1185.96 157.426 1189.7 160.353C1193.45 163.28 1198.54 164.957 1203.88 165.016L1220.79 165.196C1221.82 165.208 1222.83 165.017 1223.79 164.636C1224.74 164.255 1225.61 163.689 1226.34 162.973C1227.07 162.256 1227.66 161.402 1228.06 160.459C1228.46 159.516 1228.68 158.504 1228.69 157.478Z" fill="#FE0000"/>
<path d="M1473.13 150.127C1491.62 162.392 1509.46 168.27 1526.66 167.761C1531.72 167.612 1535.64 165.817 1538.42 162.377C1539.15 161.473 1539.66 160.421 1539.94 159.295C1540.21 158.17 1540.23 156.998 1540 155.866C1539.77 154.734 1539.29 153.668 1538.6 152.746C1537.91 151.823 1537.02 151.067 1536 150.531C1527.74 146.134 1518.47 143.098 1508.18 141.423C1482.65 137.295 1469.36 117.462 1470.98 90.9439C1472.55 64.4706 1493.15 48.1828 1518.72 44.1894C1542.29 40.54 1564.2 44.2941 1584.46 55.4518C1584.85 55.6612 1585.04 55.9902 1585.04 56.4389L1585.35 92.4695C1585.36 92.6452 1585.32 92.8192 1585.24 92.9718C1585.15 93.1244 1585.02 93.2497 1584.86 93.3336C1584.7 93.4175 1584.52 93.4567 1584.34 93.4467C1584.16 93.4367 1583.98 93.378 1583.83 93.2771C1568.99 83.4057 1555.11 78.3354 1542.19 78.0662C1533.89 77.8867 1523.34 79.0982 1522.45 89.5081C1521.97 94.8326 1524.38 98.497 1529.67 100.501C1537.78 103.612 1546.02 106.11 1554.39 107.995C1580.69 113.872 1594.64 131.058 1590.6 160.133C1587.67 181.073 1573.63 194.205 1548.47 199.529C1522.15 205.063 1497.06 202.446 1473.22 191.677C1472.39 191.318 1471.97 190.675 1471.97 189.748L1471.92 150.8C1471.92 149.813 1472.33 149.589 1473.13 150.127Z" fill="#FE0000"/>
<path fill-rule="evenodd" clip-rule="evenodd" d="M64.0797 405.829V239.638C72.2711 242.158 218.719 223.36 290.919 213.646C395.517 196.633 454.222 196.055 470.5 197.893C501.375 194.742 556.352 230.711 579.981 249.089C629.13 295.087 669.772 309.737 683.949 311.313H738.296C752.158 307.532 759.3 317.089 761.138 322.339V367.235C753.576 406.932 714.404 424.207 695.764 427.883H470.5C517.128 391.336 496.229 354.37 479.951 340.455C472.338 332.579 449.864 321.079 420.879 338.092C391.894 355.105 397.25 390.339 403.551 405.829H150.72C170.253 370.543 150.457 350.694 138.117 345.181C128.928 340.718 106.77 336.359 91.6469 354.633C76.5243 372.906 85.3458 396.377 91.6469 405.829H64.0797ZM243.661 359.358C258.232 363.96 317.108 363.085 344.675 359.643C332.887 360.098 290.059 350.672 243.661 334.942C213.367 324.671 181.552 308.153 155.861 294.814C146.687 290.051 138.293 285.693 131.029 282.17C137.812 287.032 146.426 293.404 155.897 300.411C187.851 324.049 229.564 354.907 243.661 359.358ZM521.643 291.718C514.272 284.248 507.374 277.258 501.218 271.143C573.68 335.414 622.514 356.996 653.231 368.81C679.871 379.056 709.117 376.862 719.29 376.099C720.847 375.982 721.958 375.899 722.543 375.899C696.551 405.829 668.984 401.055 638.266 391.652C612.448 383.748 560.48 331.079 521.643 291.718Z" fill="#FE0000"/>
<path d="M499.642 118.342L66.4425 190.017C62.0317 154.101 89.809 127.269 104.249 118.342C217.406 99.4387 452.069 59.4268 485.465 50.6053C518.861 41.7837 567.641 46.9296 587.857 50.6053C623.039 59.0067 701.277 90.9322 732.782 151.423C764.288 211.913 763.763 270.618 759.562 292.41C700.332 148.745 561.603 116.504 499.642 118.342Z" fill="#FE0000"/>
<path d="M0.880673 124.643C0.618174 97.3429 18.045 39.5986 89.8454 26.9826C85.3661 27.7143 -10.1129 26.4855 0.880673 124.643Z" fill="#FE0000"/>
<path d="M89.8835 79.7475C48.9264 91.0895 37.1119 139.083 36.3243 161.662C19.3114 104.952 57.5905 69.7708 78.8567 59.269C148.956 44.829 292.621 15.634 306.483 14.3737C320.346 13.1135 326.962 24.8756 328.537 30.9141C266.051 42.4661 130.841 68.4056 89.8835 79.7475Z" fill="#FE0000"/>
</svg>
