<svg width="867" height="471" viewBox="0 0 867 471" fill="none" xmlns="http://www.w3.org/2000/svg">
<path fill-rule="evenodd" clip-rule="evenodd" d="M72.9474 445.734V256.544C82.2724 259.413 248.987 238.014 331.178 226.955C450.251 207.588 517.08 206.93 535.611 209.023C570.759 205.436 633.344 246.382 660.243 267.304C716.193 319.667 762.459 336.345 778.598 338.138H840.466C856.247 333.834 864.376 344.713 866.469 350.691V401.799C857.861 446.989 813.268 466.655 792.048 470.84H535.611C588.691 429.236 564.901 387.154 546.37 371.313C537.703 362.347 512.119 349.256 479.123 368.623C446.127 387.991 452.224 428.1 459.397 445.734H171.577C193.814 405.565 171.278 382.97 157.231 376.693C146.77 371.612 121.545 366.651 104.33 387.453C87.1142 408.255 97.1565 434.974 104.33 445.734H72.9474ZM277.38 392.833C293.968 398.071 360.991 397.075 392.373 393.157C378.954 393.675 330.199 382.944 277.38 365.037C242.894 353.345 206.677 334.541 177.43 319.357C166.986 313.934 157.431 308.973 149.161 304.962C156.883 310.497 166.689 317.751 177.471 325.727C213.847 352.637 261.333 387.765 277.38 392.833ZM593.831 315.832C585.44 307.328 577.588 299.37 570.579 292.41C653.07 365.575 708.661 390.143 743.63 403.592C773.956 415.256 807.249 412.758 818.83 411.89C820.603 411.757 821.867 411.662 822.534 411.662C792.945 445.734 761.562 440.299 726.594 429.595C697.203 420.597 638.042 360.64 593.831 315.832Z" fill="#FE0000"/>
<path d="M568.786 118.463L75.6372 200.056C70.616 159.17 102.237 128.625 118.676 118.463C247.492 96.9435 514.629 51.3945 552.647 41.3522C590.664 31.3098 646.195 37.1679 669.209 41.3522C709.259 50.9162 798.324 87.2598 834.19 156.121C870.055 224.983 869.457 291.812 864.675 316.619C797.248 153.073 639.321 116.371 568.786 118.463Z" fill="#FE0000"/>
<path d="M1.00255 125.635C0.703721 94.5577 20.5421 28.8223 102.279 14.4605C97.1797 15.2934 -11.5124 13.8945 1.00255 125.635Z" fill="#FE0000"/>
<path d="M102.322 74.5273C55.6972 87.4389 42.2477 142.074 41.3511 167.777C21.9838 103.22 65.5602 63.17 89.7694 51.2149C169.57 34.7766 333.116 1.54129 348.897 0.106679C364.677 -1.32794 372.209 12.0618 374.002 18.936C302.869 32.0866 148.947 61.6158 102.322 74.5273Z" fill="#FE0000"/>
</svg>
