<svg width="1184" height="603" viewBox="0 0 1184 603" fill="none" xmlns="http://www.w3.org/2000/svg">
<path fill-rule="evenodd" clip-rule="evenodd" d="M373.606 576.62V383.537C383.123 386.465 553.268 364.625 637.151 353.339C758.674 333.573 826.879 332.902 845.791 335.037C881.662 331.377 945.535 373.166 972.988 394.518C1030.09 447.959 1077.31 464.979 1093.78 466.81H1156.92C1173.03 462.417 1181.32 473.52 1183.46 479.621V531.781C1174.67 577.901 1129.16 597.972 1107.51 602.242H845.791C899.964 559.782 875.684 516.834 856.772 500.668C847.926 491.517 821.815 478.157 788.14 497.923C754.465 517.688 760.688 558.623 768.008 576.62H474.265C496.96 535.624 473.96 512.564 459.624 506.158C448.948 500.973 423.204 495.909 405.634 517.139C388.064 538.369 398.313 565.639 405.634 576.62H373.606ZM582.246 522.63C599.175 527.976 667.577 526.96 699.606 522.961C685.91 523.49 636.152 512.538 582.246 494.262C547.05 482.33 510.087 463.139 480.239 447.642C469.58 442.108 459.828 437.045 451.388 432.952C459.269 438.6 469.277 446.004 480.28 454.144C517.405 481.607 565.868 517.458 582.246 522.63ZM905.209 444.045C896.645 435.366 888.631 427.244 881.479 420.14C965.667 494.811 1022.4 519.885 1058.09 533.611C1089.04 545.515 1123.02 542.966 1134.84 542.079C1136.65 541.944 1137.94 541.847 1138.62 541.847C1108.42 576.62 1076.39 571.074 1040.7 560.149C1010.71 550.966 950.33 489.775 905.209 444.045Z" fill="#FE0000"/>
<path d="M879.649 242.613C951.636 240.478 1112.81 277.936 1181.63 444.848C1186.51 419.53 1187.12 351.326 1150.51 281.047C1113.91 210.768 1023.01 173.677 982.139 163.916C958.651 159.646 951.041 163.916 863.177 163.916C711.127 156.171 325.622 112.545 0 0C33.9224 36.8827 132.154 118.236 253.701 148.585L879.649 242.613Z" fill="#FE0000"/>
<path d="M396.526 330.269L845.791 295.589C700.186 286.859 276.621 231.476 43.4689 123.199C50.1081 144.366 99.7303 200.548 131.197 231.476C162.664 262.405 298.641 346.465 396.526 330.269Z" fill="#FE0000"/>
</svg>
